<?xml version="1.0" standalone="no"?>
<!DOCTYPE svg PUBLIC "-//W3C//DTD SVG 1.1//EN" "http://www.w3.org/Graphics/SVG/1.1/DTD/svg11.dtd" >
<svg xmlns="http://www.w3.org/2000/svg">
<metadata></metadata>
<defs>
<font id="SansCulottesRegular" horiz-adv-x="962" >
<font-face units-per-em="2048" ascent="1638" descent="-410" />
<missing-glyph horiz-adv-x="409" />
<glyph horiz-adv-x="0" />
<glyph horiz-adv-x="2048" />
<glyph unicode="&#xd;" horiz-adv-x="681" />
<glyph unicode=" "  horiz-adv-x="409" />
<glyph unicode="&#x09;" horiz-adv-x="409" />
<glyph unicode="&#xa0;" horiz-adv-x="409" />
<glyph unicode="!" horiz-adv-x="669" d="M248 1802l96 8q25 0 27 -49l65 49l68 2q59 1 59 -110l-10 -199q0 -78 -4 -172t-34 -220t-32 -185l-34 -47l12 -17l-23 -16q2 2 13.5 2t7.5 -10v-13l-6 4h-33l12 -18l27 -2v-6q2 -45 -19 -109l-32 -104q-10 -33 -17.5 -43t-38.5 -15h-35q-8 0 -34.5 22t-64.5 318t-38 390 l-4 186l12 166l-4 127q0 41 10.5 51t53.5 10zM500 182l14 -110q0 -25 -39 -52q-41 -25 -67 -24l-39 18l-142 -18q-57 0 -57 94q0 160 16 279q109 10 168.5 10t118.5 -2q31 -25 31 -109zM373 1675l4 8l-29 9v-9zM371 1620l4 22q-27 -18 -27 -32q13 8 23 10zM401 1608l27 26 q-16 0 -16 21q-12 -23 -50 -60q-2 -18 -6 -96l19 4l10 -8q-12 -6 -20 -20q27 0 38 -13l21 15l-16 71q-23 14 -43 21l2 22q24 5 34 17zM420 1409q-12 35 -14 45q-12 0 -23 -12q2 -14 10 -29l8 4q13 -4 19 -8zM352 1432l10 16l-12 4l-8 -14zM369 1405v10h-21v-10h21zM395 1253 l21 7l-8 16q-13 -11 -13 -23zM348 1198h27v10q0 18 -8 43q-13 -26 -19 -53zM428 1184l-14 4q-12 0 -29 -12q27 0 35 -9q4 13 8 17zM383 1133l37 14l-37 8v-22zM416 1065h12l-10 18l-10 -2zM424 965v20h-12v-20h12zM393 926l19 4v4q0 14 -11 18q0 -16 -8 -26zM399 1016v4 l-2 20q-2 2 -5 5.5t-5 5.5t-6 5t-6 7l16 43q-23 20 -49 61l-6 -65q16 6 24 6t19 -2q-35 -16 -43 -33q23 0 22 -12v-4l-24 -8l-2 -13l-6 -10l8 -27q-4 -12 -17 -32l9 -19q-16 -29 -17 -86v-88q0 -37 6 -69q0 31 9 65q14 2 18 -12t4 -39l21 6v29l-13 2l6 4l13 -6q10 16 18 47 l-16 -6v8l8 14q-8 10 -8 46t14 81l-14 -4l-6 2q18 8 12 35q8 12 10 20l-4 11zM408 776l8 4l-10 11l-9 -7zM381 700l8 17l-10 4l-10 -16zM348 575l14 46l-14 63l-16 -82zM418 274v29h-15l-2 -29h17zM414 238l10 6l-21 20l-8 -6zM340 268l27 13l-5 10l-20 -10zM418 147 q0 -10 -4 -22l2 55q-12 -12 -29 -18q10 -25 10 -32t-4 -24q23 16 25 41zM328 90l39 10q-8 10 -31 33q16 14 24 31q-18 8 -38 24v-53q0 -27 6 -45zM375 1546l20 -18h-28zM350 922l-20 6l12 16q8 -10 8 -22zM348 887l4 -8l-24 -9l2 11zM336 850h12l-10 -23l-10 2zM336 801h14 v-17h-14v17z" />
<glyph unicode="&#x22;" horiz-adv-x="731" d="M416 1397l-17 227q0 119 60 119h131q20 0 26 -17l2 -153l-18 -209l10 -236q0 -23 -26 -57l-29 19q-51 -37 -90 -37t-59 18v10zM256 1413l16 -227q0 -117 -59 -117h-131q-20 0 -27 14l-2 154q0 41 9 111q13 102 4 215q-4 106 -4.5 124.5t26.5 51.5l29 -19q51 37 90 37 t59 -18v-10z" />
<glyph unicode="#" horiz-adv-x="1368" d="M1055 1382l225 -4v-2h-4l-25 -76l-47 -26l49 -19q4 -29 4 -53t-20 -33q-8 -6 -55 -6l-174 -2l-41 -235l6 -31l-10 -18h198l23 -35v-19q2 -45 -15 -102v-14q0 -51 -69 -52q-145 0 -187 11l-2 -17l-37 -12l27 -37l-53 -309l-113 -8l-57 -11q-8 31 -14 31q-7 0 -24 -10 t-22 -10l76 387q-203 -12 -217 -13q-39 -154 -39 -217t8 -104l-55 -17q-37 -10 -51 -26q-33 -6 -47 -6q-102 0 -103 35q0 6 19 100l47 237h-170q-41 0 -55 3h4l14 92l70 6l-51 18v6l-9 45q0 27 27 48h217l29 124q23 96 22 115l-6 31l4 6l-213 -2l-20 35l2 63l39 60 q0 6 -11.5 20t-11.5 27q0 31 31 30.5t108 -9.5t121 -9l4 21l37 12l-26 37l67 311q45 18 133 18q5 0 21 -8q69 33 69 0q0 -6 -8 -47l-78 -336q41 8 220 8q53 231 59 320q2 49 145 49l58 4q39 0 39 -19.5t-82 -355.5zM545 793l108 14q-55 16 -86 18q12 20 42 20.5t40 -9.5 q0 14 -16 30l-92 2q-8 0 -31 -18q18 -10 33 -25l-15 -12h33q-4 -16 -16 -20zM979 1622l49 35l-10 24l-4 -14l-8 8l2 11l-9 -9l-10 9l2 -7l-2 -8q-6 0 -8 31l-4 4q-8 -14 -16 -14h-5q-13 7 -30 10l12 -51q12 -25 41 -29zM686 1749l-14 -14l-13 -4l-14 6l-8 -64q4 14 20 43 l9 -8q-8 -20 -13 -27l19 -14v8q0 17 14 74zM807 1208l2 13h-6zM801 1190q-12 6 -33 22l14 15l-90 6l2 2q2 0 17.5 -16.5t19.5 -14.5q-6 -12 -31.5 -12t-37.5 12q0 -16 16 -33h86q14 -4 37 19zM1016 829l26 9v14h-53zM940 899l6 4l-10 15h-8zM590 1206l28 2l-26 13zM866 801 l6 -2l-6 6v-4zM795 1159l-224 -4l-59 -278h231q21 124 52 282zM442 1225l4 6q-2 -2 -10 -2v-2zM397 1239l19 -18l-2 14zM406 1190l12 14h-17v-14h5zM385 1124h8l-10 19l-8 -4zM721 815v6q-16 12 -22.5 12.5t-25 -2t-22.5 -2.5q6 -2 41 -20q9 8 29 6zM268 1188h51l-24 22 l-27 -8v-14zM680 322l8 63q-4 -14 -20 -43l-6 8q4 20 12 29l-21 14l2 -8q0 -6 -16 -76l14 15l13 4zM403 336q-8 45 -12 51q-8 27 -39 31q-16 -10 -49 -35l10 -25l4 15l7 -8v-13l8 8l8 -8l-2 6l4 11q2 0 6 -31l4 -6q10 16 15 16t36 -12z" />
<glyph unicode="$" horiz-adv-x="1083" d="M598 1047l2 -43q41 -29 105 -66q-2 -20 10 -64l47 19q127 -96 235 -293q19 -34 19 -190v-41q0 -152 -137 -269q-125 -102 -283 -127l-6 -182l-21 -18h-4q-35 0 -67 16q-6 -2 -17 -2q-35 0 -35 82l7 100q-420 43 -420 533v2q0 6 3 18.5t4 24.5q2 28 7 28l33 -10l41 13 l57 -9l101 6q27 0 36 -2q20 -14 21 -43l-4 -51q0 -160 114 -207v17q-2 70 9 92q0 19 2 70t2 65l-6 221h-25q-49 41 -186 140q-102 125 -125 167q-37 74 -37 209q0 193 102 344q115 164 299 183l-2 69q0 49 23 49q18 -8 37 -10q31 8 51.5 8t32.5 -28l-5 -88q39 -2 84 -17 q0 -23 15 -57l39 35q68 0 139.5 -92.5t96 -168t24.5 -233.5q0 -33 -10 -108q-45 4 -74 4l-180 -6l-25 20q6 35 6 57q0 219 -123 271l-14 -432zM561 1782h19l-9 10l2 6v10q0 8 -2 15q-10 -4 -10 -19v-22zM535 1782h12v4q0 18 -8 26zM737 1604v6q0 27 -20 47h-41l-2 -64z M944 1343l33 13l-6 16l-27 -12v-17zM754 1448l4 119h-76l23 -72q20 -43 49 -47zM575 1495h-10l2 -35q8 15 8 35zM504 1167q-6 -12 -6 -21t2 -11q10 16 24 22l8 -6l-10 -51q12 -12 10 -39q6 12 23 18l-6 17q4 46 12 90v4q0 33 -10 78q12 12 22 30q-2 2 -8 4.5t-8 4.5 q-8 8 -8 31.5t20 41.5l-18 29q0 12 20 33l-24 12q2 6 14 41h-4l-27 -4l-2 -41v-27q0 -27 11 -43q-23 -38 -17 -69v-21q6 -20 6 -37.5t-2 -44.5l-22 -39v-2zM461 1118q10 96 10 183v131q0 45 -2 34q-82 -55 -82 -176q0 -63 14 -94t60 -78zM772 664q-6 0 -8 -2q-14 0 -31 34 q0 20 -6 43l-8 6q-14 -8 -25 -28l-45 -15q-4 2 -22 9q43 -18 131 -107l-25 31q25 21 39 29zM143 1194l15 63h-21l-14 -63h20zM408 918q-25 84 -74 167q-10 -10 -25 -47l-12 47l-18 -65q-2 -8 8 -19l10 5q-12 -51 -12 -75.5t5 -39t10 -20t18.5 -18.5t15.5 -17q21 51 74 82z M553 707l2 47l-14 -23l4 -24h8zM535 545l22 8q-4 12 -4 42t2 60h-18q6 -16 6 -30.5t-4 -42.5zM752 393l2 19h-29l-2 -19h29zM688 463q0 80 -96 158v-189q0 -86 2 -145q94 61 94 176zM561 399l2 78q0 12 -10 33l-14 -29l-9 15l-2 -31q0 -6 -11 -41t-13 -37l22 25q4 4 11 47 q12 -8 12 -37t-8 -37q8 2 20 14zM690 209l19 72l-7 22q4 16 3 23v4q-55 -55 -56 -94q0 -27 41 -27zM662 94l20 56h-16l-21 -48zM297 424v8q0 27 -6 66l-33 -19h-12q-8 0 -41 -9t-43 -9l6 2q-14 16 -62 26q-6 -14 -16 -65q2 4 7 14.5t9 14.5q10 -24 3 -56l26 -49q18 33 15 55 l14 15h-25v20h41v-2l13 19l43 18q-6 -23 -6.5 -35t26.5 -45q8 37 41 31zM268 334l2 28h-14l-2 -28h14zM444 154l11 -2l-2 30h-17q8 -8 10 -14q-6 -6 -16 -6l-16 18q20 20 22 47q-31 0 -45 -12q10 -33 29 -129q24 29 24 68zM557 1l2 44v6q0 53 -8 68q-6 -12 -16 -70l-9 14 l-2 -81q-2 2 -11 2t-9 -33t14 -55v4q9 37 14 75q10 -10 10.5 -38t-5.5 -35q10 2 18 14zM131 315l33 15l-4 14l-29 -12v-17z" />
<glyph unicode="%" horiz-adv-x="1693" d="M1315 1034l61 15q88 0 169 -86.5t81 -448.5q0 -524 -147 -524l-41 -17q-8 0 -16.5 9.5t-12.5 9.5l-12 -31l-121 -10q-76 0 -125 74q-27 41 -66 139l2 12l-14 141v258q4 8 14 11q6 4 7 30v9l-15 4q-2 51 -2 90q0 229 168 323l27 -8l16 8zM1284 1800l53 -20q16 0 36 6t22 6 q-229 -469 -465 -897l-90 -154q-66 -115 -66 -149q-35 -59 -96.5 -172t-79.5 -146q-125 -233 -127 -313l-68 21l-36 -17h-37q-45 0 -45 29q0 12 250 495q279 530 296 570l3 31q25 33 55 49l4 41l84 161l45 5l-21 40l209 406q33 8 74 8zM606 1577l15 -141v-174 q0 -80 -1.5 -83t-5.5 -7q-14 -12 -14 -35v-9l14 -4q2 -51 2 -88q0 -231 -167 -325l-27 8l-16 -8l-27 8l-62 -14q-94 0 -172 86t-77 448q0 524 147 524l41 17q8 2 16.5 -8.5t12.5 -10.5l12 31l121 10q76 0 125 -73q27 -41 65 -140zM1364 1769l-21 -12l-16 -2l-12 8l-27 -59 q2 8 35 37l6 -8q-6 -10 -22 -25l18 -16q2 9 39 77zM1567 858l2 23h-17q3 -7 15 -23zM1436 973v10h-9v-10h9zM1546 856v8h-26v-8h26zM1520 864v10h-17v-10h17zM1540 834v6l-14 6l-2 -6zM1452 922l21 -4q-20 20 -48 30q-10 12 -22 21l4 -19h-16q4 0 9 -3q8 -5 27 -11l-26 -12 q6 -14 4 -25q16 10 31 31q0 -18 12 -19q2 0 0 9zM1571 659l12 80q-2 6 -6 17l4 14l-2 25l-10 8q2 12 2 18t-2 16.5t-2 14.5q-8 -4 -21 -25l8 -10q-14 8 -28 8q-20 27 -41 37l12 -14q-18 -4 -18 -35l2 -84l8 -24l-8 -43q0 -18 18 -27l-10 -21l20 4q-2 6 -2 27l-14 2l25 15 l-15 -3l4 19l15 -8q-18 18 -17 30l11 9v-7q0 -10 -3 -16l23 -2l-10 21q4 14 14 22l10 -12l-12 -15q14 -4 31 -12l-19 -2v-20zM549 1649l6 12l-6 2l-6 -10zM578 1569l6 12l-6 2l-7 -12zM496 1681v17q-14 10 -62 28l-18 -8q-4 -27 -15 -35l9 -14l12 8l8 -14l10 16 q-12 6 -16 23l6 10q12 -12 47 -35zM1229 850l-29 -47l6 -19l-2 -6q18 0 31 53l12 7q15 47 68 55l16 27q-24 17 -39 26l8 17q12 -4 21 -5h6l-2 13h-25l-14 -17v-24q-10 -6 -41 -25q18 -4 19 -16l-19 -8l-18 12l6 -8q-8 -2 -14 -17zM473 1632h8l-2 39h-8zM928 1153l6 21h-8 l-8 -17zM582 1479l-2 80q-14 -28 -9 -52l-14 -12q-2 -8 4.5 -11t20.5 -5zM387 1712q-10 10 -29 10q-4 -6 -14 -18l-8 8l-6 -16l8 -2l18 10l11 -18q8 8 20 26zM1210 834l13 12l-6 4l-11 -10zM1505 575l-16 7l-8 -43h18q0 13 6 36zM1167 889l15 6l-6 12l-5 -8l-10 12 q-10 0 -10 -45l-8 4q-4 -10 12 -12l12 4l-8 8l12 15l-6 2zM580 1421l10 6l-19 43l-12 -26l4 -4l-4 -8q6 -16 27 -25zM1192 821l2 6h-12l-2 -6h12zM1163 809l17 10l-23 15l21 2q2 12 -9 26l-2 -14l-16 4l-6 -12zM565 1376l25 4l-19 17l4 -11zM868 1061h11l-9 20l-8 -4z M582 1370q-12 -6 -29 -22l10 -5q11 11 19 27zM270 1706l-20 2l-6 10q-27 -27 -74 -57l55 -10q2 12 13 16l10 -8l12 6l-6 16q0 15 16 25zM1208 668l6 12l-12 4l4 14q-12 -8 -14 -20zM575 1311l13 6q-6 12 -6 33h-9l-4 -21l-22 4q4 -12 8 -45l10 4l2 -10l-4 -8l-18 4l14 -10h8 l2 24l2 2l-4 6l2 5v10zM1434 205l30 -10l6 53q-6 -8 -24 -27l-6 8q16 324 16 409t-16 163l28 26q0 17 -2 25t-2 10l-34 -45l-21 27l14 20l-22 -8l-23 12l-30 4q-104 0 -105 -192q0 -4 6 -18q-10 -27 -10 -60l8 -104l-8 -109l4 -20q-4 -41 -4 -68q0 -174 86 -174q92 0 109 78 zM477 1362v12h-8l-2 -12h10zM1139 586q0 -6 -1 -3t-8 31l13 4l-4 -18l12 -16l20 14l-18 18q14 12 13 52.5t5 52.5q-18 0 -24 -6l-2 8q10 4 26 16q-12 4 -26 4l37 27q-14 16 -19 25l-8 -19q-2 4 -2 12t2 19q-8 0 -20.5 16.5t-18.5 16.5q0 -2 -4 -2l6 -11q-18 -33 -18 -116 v-52l12 -10l18 15l25 -33q-31 -6 -49 -4l-2 -52q8 -14 8 -22t-4 -29l6 -30l16 8l19 -8l-25 26l6 2l21 -10v20q-23 0 -27 11l6 4q-10 4 -14 14q23 12 23 25zM160 1634v8h-13v-8h13zM547 1202l6 12l-6 3l-6 -11zM129 1606l6 12l-6 2l-6 -12zM543 1180l20 10q-16 2 -26 2z M1157 561l-6 12l-21 -10q15 -2 27 -2zM1565 133l6 12l-6 5l-6 -13zM1147 537l6 12l-6 2l-6 -12zM1546 111v8h-12v-8h12zM594 1044v50l-12 10l-19 -14l-24 32q31 6 49 4l2 52q-8 14 -8 23t4 30q-6 27 -6 31l-17 -11l-18 9l24 -27l-6 -2l-20 12v-22q23 0 26 -11l-6 -4 q10 -4 15 -14q-23 -12 -23 -23l6 -18q0 -8 2 -12l-12 -4l4 18l-12 18l-21 -16l19 -16q-14 -14 -13.5 -53.5t-5.5 -53.5q18 0 25 8l2 -10q-14 -4 -27 -14q10 -6 27 -6l-37 -25q14 -14 18 -27l9 19q2 -4 2 -12t-2 -19q6 0 18 -15.5t21 -15.5h4l-7 11q19 32 19 118zM1225 379 l2 12h-10v-12h8zM446 1255l9 109l-4 20q4 41 4 68q0 176 -86 176q-94 0 -109 -80l-31 11l-6 -54q6 8 25 27l6 -6q-16 -324 -16 -410t16 -164l-29 -26q0 -15 2 -23t2 -10l35 43l8 -14l13 -11l-15 -22l23 10l22 -12l31 -4q104 0 105 190q0 4 -7 19q10 27 11 61zM1130 479 l19 -4l-14 12h-9l-2 -26l-2 -2l4 -6l-2 -2v-13l-6 4l-12 -6q6 -10 6 -33h8l4 23l23 -6q-4 12 -8 45l-11 -4l-2 10zM502 1075l-17 10l-6 -12l13 -4l-5 -14q13 8 15 20zM1524 92l-56 10q-4 -14 -12 -16l-10 8l-12 -6l6 -16q0 -14 -17 -25l21 -2l6 -10q27 26 74 57zM1141 406 l-11 4q-10 -10 -18 -27q13 7 29 23zM1118 367l10 10l-24 -4l18 -15zM543 901l6 12l-19 31l-16 -10l23 -14l-21 -2q-2 -12 8 -27l2 14zM512 926l2 6h-12l-2 -6h12zM1122 285l13 24l-5 6l5 7q-6 18 -27 24l6 -12l-10 -6zM528 866l-16 -8l6 -12l4 10l10 -14q11 0 11 45l8 -4 q2 10 -12 12l-13 -4l9 -8l-13 -15zM205 1171l8 43h-18q0 -14 -7 -36zM477 903l10 10l-4 7l-12 -13zM1358 41l6 16l-8 2l-19 -10l-10 19q-8 -8 -20 -27q10 -10 28 -10q4 6 15 18zM1122 246l15 14q2 8 -4.5 11t-20.5 3l2 -79q10 25 10 34t-2 17zM1214 82h9l-2 39h-9zM465 903 l29 47l-7 19l2 6q-18 0 -30 -53l-13 -7q-16 -47 -67 -55l-17 -26l15 -9q0 -2 24 -18l-8 -16q-10 8 -20 4h-6l2 -13h24l15 17v26q14 10 41 23q-18 4 -19 16l19 8l18 -10l-6 6q8 2 14 17zM1292 70l-8 14l-12 -8l-8 14l-11 -14q14 -6 17 -25l-6 -10q-14 12 -47 35l-19 -4v-17 q14 -10 62 -28l18 8q4 27 14 35zM1116 170l6 12l-6 4l-6 -12zM1145 90l6 10l-6 4l-6 -12zM123 1094l-12 -78q0 -4 6 -19q-4 -12 -4 -21t2 -15l10 -11q-2 -12 -2 -18t2 -16.5t2 -14.5q8 4 20 25l-8 10q16 -10 29 -6q20 -27 41 -37l-12 12q18 4 18 35l-2 84l-8 25l8 43 q0 16 -18 28l10 19l-21 -4q2 -6 2 -27l15 -2l-25 -14l14 4l-4 -19l-14 6q18 -18 16 -30l-10 -9v7q0 10 2 16l-22 2l10 -20q-4 -14 -14 -23l-11 12l13 15q-16 4 -31 12l18 2v23zM287 803h16q-4 0 -9 3q-6 4 -28 11l27 12q-6 14 -4 27q-12 -8 -31 -33q0 18 -12 19q-2 0 0 -8 l-4 -3l-21 5q23 -23 47 -29q12 -16 23 -23zM168 907l2 6l-16 7v-7zM190 881v8h-16v-8h16zM174 889v8h-27v-8h27zM266 770v12h-8v-12h8zM125 874h16q0 2 -14 21zM459 66q0 27 -41 38l-66 -24l4 -27l11 15l6 -11l-4 -10l10 6l10 -12l-2 8l6 10l4 -4l-4 -28l4 -4q10 10 16.5 10 t43.5 -17zM1554 768l9 -16l-13 6l-10 -8l-14 14l-15 -14q2 4 2 12t-6 22q0 12 17 29l4 -4l-6 -8l18 -13l2 23l21 -8l-2 -17l-11 5l-4 -9q-4 0 -28 -4q8 -12 28 -14zM1538 745l10 -10l-4 -6l-10 12zM1430 817l-3 -2l3 -2v4zM567 1317l2 8v-10zM569 1298l-2 -4v-2h2v6z M1137 705h14v-7h-14v7zM1147 678l6 -4l-6 -10l-6 2zM567 1169h13v-10h-13v10zM1114 594h12v-8h-12v8zM547 1090l6 -3l-6 -10l-6 2zM543 1055h14v-6h-14v6zM1126 461v-2l-2 -4v6h2zM1124 438l2 -2l-2 -8v10zM264 940l2 -2l-2 -2v4zM150 1024l10 -12l-4 -4l-11 10zM186 969 q0 -10 -16 -27l-4 2l6 8l-18 13l-2 -23l-21 8l2 17l10 -4l4 8q4 0 29 4q-6 10 -29 16l-8 -6l-8 16l12 -6l11 9l14 -13l14 13q-2 -4 -2 -12.5t6 -22.5z" />
<glyph unicode="&#x26;" horiz-adv-x="1138" d="M1018 942l26 -59q0 -298 -139 -523l154 -331l-64 -29h-75l-17 33q-76 -51 -111 -51t-55 18l-43 90q-137 -125 -274 -125q-190 0 -299 146q-94 125 -94 327q0 68 23.5 203.5t55.5 134.5q10 -8 13 -8q12 0 12 10l-6 27q0 49 151 205q-104 246 -104 393t102.5 268t264.5 121 t254 -96.5t92 -255.5q0 -270 -262 -502q74 -200 139 -291q53 102 53 268q25 33 62 35q29 -16 50.5 -16t43.5 16zM735 1604v6q0 27 -20 47l-72 4l29 -68zM752 1473h30l-24 94h-76q18 -73 35.5 -83.5t34.5 -10.5zM504 1038l39 76q0 23 -29 41q14 10 61 14l-47 62 q25 14 63 83.5t38 87t-4 21.5q0 102 -93 103q-37 0 -64.5 -23.5t-27.5 -54.5l-30 -23h30l6 -10q8 -4 13 -10v-6l-29 -27l21 -80q31 -31 30 -43q0 -10 -14 -10q-6 0 -27 4l52 -39q-16 -27 -31 -41q45 -33 45 -84q0 -23 -2 -41zM201 764l14 63h-20l-9 -36zM578 373 q-66 209 -148 325q-86 -104 -86 -204q0 -68 33 -119t94.5 -51t106.5 49zM307 147q0 37 -41 107h-4q-12 0 -39 12l-14 47q-18 -63 -18.5 -70t8.5 -14l10 4q-10 -57 -10 -77.5t2 -30.5t8 -19.5t10 -14.5t13.5 -14t13.5 -14q14 43 59 68q2 8 2 16z" />
<glyph unicode="'" horiz-adv-x="380" d="M256 1413l14 -227q0 -117 -57 -117h-131q-20 0 -29 14v154q0 41 9 111q13 102 4 215q-4 106 -4.5 124.5t26.5 51.5l29 -19q51 37 90 37t59 -18v-10z" />
<glyph unicode="(" horiz-adv-x="665" d="M442 1876l90 -10q16 0 21 10h31q29 0 28 -21q0 -61 -31.5 -114t-37.5 -111q-10 -14 -33 -69l-29 -80q-10 -25 -20 -88.5t-23 -85.5q-49 -94 -49 -609v-51q0 -164 73.5 -417t151.5 -425l-4 -4q-53 20 -75 27q-16 -23 -37 -23h-136q-258 442 -258 1004q0 117 52 475 q10 74 35.5 141.5t40.5 110.5l28 76q10 25 17 24.5t32 -34t45 -33.5q4 0 11 2q-4 10 -43 49q-37 39 -37 45q0 61 50 136t107 75zM391 1761q5 0 70 29l2 41q-18 4 -27 12q-26 -10 -48.5 -33.5t-25.5 -23.5l-2 -96q8 -20 37 -52q-8 6 -8 20.5t16.5 49.5t16.5 39l-45 -14v2 q0 12 14 26zM338 621l47 -52q-29 37 -27 95q-16 -16 -20 -43z" />
<glyph unicode=")" horiz-adv-x="665" d="M193 1866l90 10q57 0 100 -72t43 -139q0 -2 -26.5 -12.5t-28.5 -14.5q6 -2 10 -2t49 13q6 -6 16 -37l50 -162q29 -100 34 -166q21 -307 21 -356q0 -279 -90 -585t-244 -538h-135q-23 0 -33 23q-20 -10 -80 -27l-4 4q92 168 189 452t98 433l20 463q0 98 -19 141.5 t-21.5 97.5t-15.5 97t-52 141l2 25q0 55 -26.5 88t-26.5 104q0 16 5 22.5t25 6.5h31q4 -10 19 -10zM145 1776l15 63h-21l-8 -37zM461 1112l33 12l-7 17l-26 -13v-16zM473 1020l14 63h-20l-6 -36zM522 829l2 97q-31 31 -69 57q-8 -8 -27 -12v-41q4 -2 15.5 -6t24.5 -10.5 t28 -12.5q12 -16 12 -22v-7l-45 15q0 -4 14.5 -38t14.5 -47t-11 -24q21 24 41 51zM150 145l51 52q0 23 -17 43q-1 -60 -34 -95z" />
<glyph unicode="*" horiz-adv-x="1081" d="M670 1400l2 17q2 12 118 74.5t136 83.5q29 -25 53.5 -128.5t24.5 -152.5q0 -6 -30 -6t-42 -6q-10 -16 -101 -16l-161 -4q-16 0 -39 -17h-10q-37 4 -37 -6q6 -6 37 -6q2 -8 21.5 -21t49.5 -57q29 -37 58 -57q23 -12 67.5 -78.5t83.5 -69.5q-4 -12 -98 -86 q-100 -84 -117 -94q-35 25 -41 43q-2 2 -2 47t-27 78q-23 72 -65 172q-14 12 -31 61q-14 -51 -19 -51q-9 0 -34 -73q-14 -2 -27 -56l-18 -65q-27 -72 -70 -154l-65 66q-41 39 -80 47q-14 6 -31.5 21.5t-13.5 25.5q-6 18 -6 31q0 20 20 20q4 0 21.5 19.5t19.5 19.5h6 q14 51 53.5 69.5t80 72t69.5 69.5q2 -27 10 -27t17 15h-7l-12 24q-23 16 -39 17l-49 -5l-72 7q-33 0 -61.5 6t-98 13t-69.5 13q0 53 23 150q29 104 59 131q121 -76 174 -109q0 -20 -29 -49l76 11q7 -5 14 -5q33 -18 74 -51q0 2 9 -2t14.5 -4t9.5 4l-41 180 q-25 117 -25 180.5t148 63.5q100 0 117 -6l-90 -432h4q2 0 0 -2v-2q0 -4 10 -8q31 18 76 43zM938 1503q-16 2 -51 17l2 -11q0 -14 -55 -34l-3 -89q41 16 48 60q12 -12 22 -14q14 6 27 18q-6 16 -6 24.5t16 28.5zM756 987l59 -10l-24 31q-31 2 -86 34z" />
<glyph unicode="+" horiz-adv-x="1669" d="M330 942l119 -4q59 0 282 6l-4 486q0 88 45 88q18 0 78 -33q63 14 76 14q25 0 39 -37v-516q176 -4 320 -4t167 6l-8 2l-6 -110l-72 -25l68 -20l6 -50q0 -25 -47 -47l-441 2l-6 -577q-49 -23 -71.5 -23t-43.5 19l7 51l-64 -49q-57 8 -57 51l16 346q0 14 -4 92l-4 90 l-446 -2l-60 19q2 74 39 129l-18 72q0 25 90 24zM874 1057q-14 -23 -14 -53.5t-22 -143.5l61 127q-12 -129 -12 -137v-14l31 43q20 90 20 120q0 4 -20 39q0 8 3 19.5t6 30.5q8 49 12.5 50t6.5 -1l-16 26l4 125q0 47 -21 55v11q-4 23 -10 69q-18 -6 -18 -26.5t14 -75.5l-14 6 l-23 35q0 35 -12 49l-10 -68q12 -4 32 -40q-16 -29 -22 -35v-19q2 -14 -5 -58t-7 -61q0 -39 8 -79l20 8zM1133 752l-119 16q-57 0 -58 -10q0 -4 66 -27q20 4 44 4t118 -4l2 33q-25 -12 -53 -12zM946 733q-23 10 -41 25l23 12q-23 12 -28 12t-19 -10v2q-12 -18 -21.5 -18 t-11.5 2q-16 -16 -47 -16.5t-47 12.5v-2q0 -14 18 -31q121 -6 133 -6t41 18zM848 379l-17 -70l3 -10q12 -6 20 -42t6 -58q8 33 27 65q-10 16 -13 27l15 96l6 35q0 8 2 12v2q0 43 -18 103q13 10 36 47q-8 4 -12 4h-8q-2 -2 -10 -2t-8 40t30 66l-51 2q-33 -45 -33 -78 q0 -2 4 -18t2 -25q15 -52 9 -106q-14 -31 -72 -131q12 18 22 18l5 -2q25 35 40 35t15 -10zM393 711l74 -4l-35 24l-39 -8v-12z" />
<glyph unicode="," horiz-adv-x="516" d="M287 311l80 -4q26 -21 27 -82.5t-9 -253.5q-10 -45 -59 -145q-49 -109 -78 -133q-16 -4 -44 -4t-83 6q6 41 53 124t57 132q-2 14 -57 18l-68 4q-14 27 -14 132.5t14 193.5q31 14 89.5 14t91.5 -2zM246 186l24 -20l-2 47l-16 10zM213 207v26h-12v-26h12zM199 174l18 19 l-8 6l-19 -19zM293 70q0 2 -7 25.5t-7 33.5q-12 -14 -35 -23q6 -12 20 -26q-18 -14 -28 -31l34 -8q23 13 23 29zM221 104q-20 6 -28 19l-3 -51v20q0 -25 21 -37q-4 14 -4 21.5t14 27.5z" />
<glyph unicode="-" horiz-adv-x="729" d="M106 995l123 -18q16 14 96 14t119 -2h86q55 0 84 4q25 -6 25 -47l-21 -143l11 -76q0 -12 -17 -35l-546 -6q-11 121 8 182l16 -6l-14 70q0 16 10 39.5t20 23.5zM332 846l-35 -12q-8 0 -12 2q-10 14 -31 53l10 -49q0 -6 -2 -13q-8 8 -18 13q-4 -12 -11 -15l-6 2 q6 -18 4 -61l7 10q14 -4 34 -18q16 0 31 14q8 -25 10 -29q0 16 17 33q14 -18 16 -26q10 16 35 24q10 -10 12 -26l6 32q10 -10 19 -24l-19 -4l15 -11q14 2 53 -8l37 -10l6 12l29 -2q12 1 16 17h12q-2 12 -8 14l-8 -2q2 25 16 61l-16 8l-4 -49l-8 47l-31 11l-21 -6v-54l-4 8 q-59 47 -106 48q-10 0 -27 -17q-12 27 -18 27zM100 756l6 22q-2 10 -14 15q4 -25 8 -37z" />
<glyph unicode="." horiz-adv-x="516" d="M399 131l13 -100q0 -23 -35 -46.5t-62 -23.5l-36 16l-127 -16q-53 0 -54 86q0 143 17 252q98 10 152.5 10t107.5 -2q29 -23 28 -100zM326 227v27h-15v-27h15zM322 195l8 6l-19 18l-8 -6zM256 223l23 10l-5 11l-18 -11v-10zM342 115q-4 -14 -20 -23l2 51q-8 -10 -27 -18 q10 -20 10 -28.5t-4 -20.5q14 6 39 39zM244 61l35 9q-6 8 -29 30q10 10 22 27q-16 29 -39 51q-12 -46 11 -117z" />
<glyph unicode="/" horiz-adv-x="1046" d="M969 1798l53 -20q16 0 35.5 6t21.5 6q-229 -469 -465 -897l-90 -154q-66 -115 -65 -149q-35 -59 -96.5 -172t-79.5 -146q-125 -233 -127 -313l-68 21l-37 -17h-37q-45 0 -45 29q0 12 250 495q279 530 297 570l2 30q25 35 55 50l5 41l84 161l45 4l-21 41l209 406 q33 8 74 8zM1049 1767l-21 -12l-16 -2l-13 8l-28 -59q6 10 37 37l4 -8q-2 -10 -21 -25l19 -16q2 9 39 77zM610 1151l8 20h-8l-8 -16zM553 1059h10l-8 20l-8 -4zM143 63q0 27 -41 39l-65 -24l4 -27l10 15l4 -11l-4 -10l12 6l11 -12l-2 8l6 10l4 -4l-4 -28l2 -5q14 10 19 10.5 t42 -16.5z" />
<glyph unicode="0" horiz-adv-x="1126" d="M469 1774l123 10q303 0 395 -287q47 -151 47 -526q0 -209 -6 -221t-14 -17.5t-8 -9.5l6 -55l16 -9l4 -147q0 -381 -291 -543l-45 15l-26 -15l-45 15l-121 -23q-72 0 -150 41t-137 104q-125 131 -125 572v233q2 102 2 232q0 291 72 434q6 10 21.5 14t19.5 8l6 -30l16 -4 q-8 -14 -14 -15h-2q-4 0 -4 -6l14 -20q-23 -12 -22 -27q0 -27 30 -29q-12 -23 -30 -67l8 -6q0 -31 -4 -43v-6q0 -31 67 -52l-14 31l18 12l-45 60l17 35l-4 22l20 12q29 82 6 138l-8 71q8 16 72 58q68 31 73 30.5t18 -23t26 -20.5zM887 1534l12 20l-10 5l-12 -19zM936 1399 l10 20l-10 4l-10 -20zM721 1606l31 8l2 26q-72 47 -105 48l-28 -13l-7 -30q-18 12 -43 12q-8 -10 -22 -31l-17 14l-8 -28q12 -2 20.5 -2t24.5 16q16 -16 15 -31l18 19q8 -6 8 -23l19 15q14 -12 16 -23q0 25 17 25q-23 10 -29 39l12 18q20 -25 76 -59zM946 1251l-6 133 q-18 -33 -18 -51t4 -35q-25 -20 -25 -22q0 -25 45 -25zM940 1153l18 10l-32 72q-8 -14 -19 -43l6 -8l-6 -13q10 -29 41 -41zM918 1079l38 6l-28 27l6 -16zM944 1069q-23 -8 -49 -37l18 -8q15 18 31 45zM952 981q-10 23 -8 55h-14q-8 -18 -8 -37q-8 0 -37 9q12 -55 14 -74 l16 6l25 -16l-6 -15l-31 6l25 -18h14l-20 43h-2l-2 4l4 6l-2 4l4 4v21l-4 2l4 12v-14l10 -8zM772 1055l2 20h-14l-2 -20h14zM905 788l10 21l-10 4l-10 -18zM934 770q-23 2 -45 2l10 -20q19 18 35 18zM907 365q-8 -18 -8 -20.5t12 -2.5l47 43q2 4 -14 19.5t-14 23.5 q10 20 32.5 37.5t22.5 50.5l-10 82q-2 2 -6 2q-6 -2 -27 -31q2 29 -4 60l-45 28q45 8 84 7l2 86q-16 27 -16 48t8 38q-14 41 -10 51q-8 -12 -27 -15l-33 13q18 -14 45 -45l-12 -2q-6 2 -33 18l-2 -35q35 0 45 -18l-10 -6q10 -8 22 -25q-37 -23 -36 -39l14 -49l-21 -6 q0 14 7 31q-14 14 -21 28l-35 -26l31 -29q-20 -20 -20.5 -90t-8.5 -86q31 0 41 12l4 -16q-16 -4 -47 -25q18 -10 45 -8q-16 -14 -63 -43q23 -23 35 -43q0 23 12 31q2 -6 2 -21.5t-2 -21.5q14 0 14 -6zM729 524l10 27q0 27 -6 49q4 16 4 37l2 465q0 14 -4 26q2 6 2 94 q0 277 -162 277q-154 0 -182 -133q-10 0 -31 10l-20 8q-6 -29 -12 -90q16 25 41 45l12 -12l-4 -694q0 -37 5 -86t15 -174q-27 -20 -49 -45q10 -45 6 -56q6 4 58 72q2 -12 10 -25q2 0 4 3l10 -9q0 -8 8 -10l-22 -37l37 17l41 -21l45 -6q182 0 182 268zM254 977l4 35v26 l-10 11l22 38h-2l8 43l-6 9l21 2l-23 12l-12 12l16 9l13 -17l16 17q-14 20 -14 65h-13q5 4 17 33l16 2l-65 59l16 -43l-31 -28l45 6q-27 -14 -57 -45l35 -15v-4l-39 6l20 -90h15l2 -2v-10l-60 16l54 -37l-4 -2l-9 -30l19 -27l-25 -24v-62zM829 578q-8 2 -26 16l-10 -21 l22 -6q-10 -10 -10 -24q24 15 24 35zM899 287l10 22l-30 51l-27 -18l37 -23q-16 -8 -35 -4q-2 -8 20 -32l11 14zM850 328v12h-21v-12h21zM901 264l14 -8q0 10 -9 19.5t-19 9.5l-17 -15l17 -12l-23 -25l10 -4l-2 -4q-20 -4 -24 -10l12 -20l6 16q10 -10 17 -23q16 0 18 76z M788 291l19 18l-6 8l-21 -18zM258 858l27 103l-21 -9l-12 6l-31 -30l25 -54l-19 -81l27 -156l22 156zM623 160q0 -13 41 -29l-13 -27q-18 10 -35 7h-12l4 -21h43q25 0 23 70q31 20 67 39q-29 10 -28 28q12 12 22 12.5t37 -18.5l-10 12q27 6 26 27q0 19 -20 31l49 78 q-8 35 -8 43q-27 0 -49 -90l-19 -11q-31 -76 -114 -92q-20 -12 -49 -43zM453 123h24l-59 24q29 12 45 21q-10 25 -8 43q-20 -14 -49 -53v4q0 27 -21 26l-6 -4l4 -8l-6 -4l-33 6q37 -37 76 -49q20 -23 41 -37q-8 15 -8 31zM418 70l2 18h-14l-3 -18h15zM926 942l-4 8v-10z M942 733h21l-2 -14h-21zM905 602l10 -4l-10 -18l-10 4zM899 545h27l-2 -13h-27zM414 344v4l2 4l2 -2z" />
<glyph unicode="1" horiz-adv-x="778" d="M322 1329q-13 -39 -154 -39q-78 0 -94 6q-29 12 -25 68l2 49q6 8 27 25l-21 26q10 8 39 37q2 2 27 2q88 0 182 94q25 25 57 74q39 53 55.5 68.5t184.5 15.5q53 0 53 -43l-12 -233l12 -76l-16 -129l2 -1049l8 -182q0 -49 -14 -49q-4 0 -8 2h-15q-37 -2 -108 -10h-37 q-16 2 -39 2l-102 10l-15 6q-2 2 -2 14l10 74q0 59 -14 86q4 127 4 211l-8 643v207q2 12 18 29q-10 -10 -15 1t-3 17q18 0 29 23q-8 16 -8 20zM598 1677l10 21l-10 2l-10 -19zM580 1604h28q-14 8 -14 43q-14 -12 -14 -33v-10zM586 1542l22 17q-10 10 -13 14t-7 6zM463 1700 v12h-19l-2 -31zM428 1663l-10 25q-78 -119 -137 -152q4 -4 9 -4t32.5 9t33.5 7q-8 8 -12 19q16 10 33 32q29 -4 31 -4l-19 23q4 6 39 45zM307 1487l29 29l-45 -25zM315 1522q-33 -2 -47 4q-14 -6 -32 -21l45 -6q14 7 34 23zM266 1481q-2 6 -22.5 11t-20.5 9q-12 0 -30 -12 q6 -2 18 -10q22 -6 55 2zM526 1042l11 21l-11 2l-10 -18zM510 969h29q-16 10 -15 43q-16 -12 -16 -33zM516 907l21 17q-2 2 -6.5 6t-7.5 8t-7 6v-37zM526 844l21 8l-4 10l-17 -8v-10zM561 754q-37 6 -31 47q-23 -41 -51 -49q31 0 74 -19q4 13 8 21zM586 657l16 -8 q0 10 -16 17l-27 10l19 39l-5 10q-29 -6 -59 -20l-14 14l-6 -17q-2 -29 47 -57l-11 -78q-12 4 -22 23q4 4 10 18q-25 23 -22 37l-13 -53q0 -33 17 -43q-12 -31 -12.5 -91.5t20.5 -68.5v37l18 -10q8 10 54 51h-31l-21 -21q4 47 41 91l-4 16l6 10q-18 25 -24 43l18 12 q2 8 -2 21zM592 305l16 -8q0 10 -16 16l-27 11l-12 36l-6 27q-8 -2 -14.5 -17.5t-12.5 -17.5l-14 15l-6 -17q-2 -29 47 -57l-10 -78q-12 4 -23 23q6 4 10 20q-25 23 -22 35l-13 -53q0 -31 43 -60l-14 -24q-6 -8 -6 -25l-6 -51q-2 -35 8 -43v37l16 -11l56 52h-31l-20 -21 q4 47 40 90l-4 17v37q-6 0 -18 16l18 12q2 8 -2 21z" />
<glyph unicode="2" horiz-adv-x="1030" d="M950 1423l-14 -34q0 -2 7 -2t13 2l2 -5q0 -176 -2 -182l-45 -164q-27 -100 -201 -334.5t-294 -367.5q8 -39 84 -39l164 6q135 0 153 -31q25 33 101 31q2 2 8 2q29 0 28 -51l4 -158q0 -47 -4 -71q-8 -4 -16 -25h-141l-131 10h-50q-25 -10 -53 -10q-14 6 -20 14l-90 -14 l-228 12l-135 -12l-4 6l-12 64q-8 38 -3 66t10 32q16 13 19 25q-27 20 -26.5 74t6.5 67l166 225q250 340 362 567q0 18 15 62l18 63q8 33 8 66.5t-8 58.5q-25 96 -106 97q-43 0 -64 -3q-63 -49 -76 -112l-20 -127q-4 2 -15 2l-55 -6l-45 10q-24 -4 -49 -12t-38 -7t-40 7 q-4 -2 -10 -2q-25 0 -27 45v65q0 156 51 242t148.5 142.5t197 56.5t123.5 -7l50 -12q27 -4 63 -14q154 -55 205 -242q16 -70 16 -76zM870 1462l9 21q-2 10 -25 57q2 -2 2 -21.5t-22 -35.5q20 -20 26 -31zM858 1405l2 43h-14l-2 -43h14zM608 1587q35 0 35 -61v-21 q12 25 21 49q2 -10 8 -51l16 6l17 -14q2 2 14 22.5t17 26.5t16 18q20 21 49 17q-39 29 -111 66l-67 -46q-2 2 -15 7v-19zM741 1442l-30 45l-27 -27q24 -4 57 -18zM573 1595q0 20 -23.5 43t-35.5 23t-117 -41l9 -43q8 16 14 22l10 -16l-6 -18q10 4 18 12l19 -21q-4 12 -4 15 l8 14l8 -6l-8 -47l6 -8q16 16 100 16zM838 1108l2 29h-13l-2 -29h13zM387 1573h6q-16 18 -37 18v-35l2 11l13 10zM731 1161l12 10l-8 9l-12 -11zM340 1571l2 43q-35 -10 -59 -47l-2 -27q33 35 43 59zM774 1087l14 29l-16 6l-14 -28zM637 920h16l-14 32l-14 -6zM666 782 l14 33h-16l-13 -27zM539 635q41 59 41 82.5t-19 58.5q-6 -39 -39 -82q20 -16 17 -59zM840 238l-101 -11q-2 -31 -24 -30q-2 0 -33 32q-55 0 -102 -10l2 -10l-7 -23q23 -16 23 -35.5t-23 -35.5l39 12q20 -20 62 -47l80 24v9q-2 25 6 39q10 -10 16 -27v4l-6 -33q39 -6 61.5 -6 t43.5 4q14 47 16 127zM535 203q-8 -41 -35 -94q-14 8 -14.5 28.5t20.5 48.5q-20 10 -39 17q4 -20 4 -48t-12 -85q16 29 34.5 28.5t30.5 -4.5q9 46 11 109zM451 170v12h-21v-12h21zM387 133l2 29q-29 10 -49 74q-18 -25 -23 -103h70zM238 260l16 33h-16l-17 -27zM285 51l2 51 h-17l-4 -20q1 -21 19 -31zM178 80v18h-31v-18h31zM733 1585l10 -18l-10 -6l-10 20zM666 1573h28v-14h-28v14zM530 1565h29v-13h-29v13z" />
<glyph unicode="3" horiz-adv-x="1021" d="M598 1761l39 4q10 -29 37 -24q25 10 26 10q53 0 76 -35q84 -68 118 -146.5t34 -208.5t-41 -247q-23 -61 -115 -121l-90 -59q178 -51 217 -146q53 -59 53 -204q0 -346 -82 -447q-2 -6 -36 -31q-45 -39 -69 -70.5t-96.5 -58.5t-121.5 -26q-485 0 -486 536v41l21 35l225 -2 q43 0 52.5 -8t10.5 -81.5t13 -125.5q29 -90 109 -90t116 121q27 80 27 195q0 235 -156 231q-16 -6 -33 -6q-41 0 -47 34l-4 9l11 61q0 16 -3 21l3 -2q-13 107 12 122q77 0 104 14.5t31 16.5q8 16 39 45l10 -2q20 0 21 12q0 23 -23 19q23 35 23 130t-19 142q-27 76 -112.5 76 t-110.5 -80l-33 -147l-221 -2l-37 41q-2 4 -2 22q0 150 80.5 291.5t212.5 146.5q27 14 100.5 14.5t81.5 -0.5t20.5 -10.5t14.5 -9.5zM758 1524q0 41 -72 100l2 -6q-6 -8 -18 -8q-18 0 -35 35q-4 -53 -14 -115q4 0 18 -4t23 -4q-5 26 8 51q31 -29 55 -39q-16 -6 -41 -6v-60 l61 11q2 8 7 22zM705 1317q51 27 51 45t-74 37l43 -37q0 -16 -33 -16q8 -12 13 -29zM735 1253v52h-18v-52h18zM788 1057l-43 -13q4 -16 27 -14q12 9 16 27zM229 1440l15 14l-11 12l-16 -16zM248 1323l16 14l-10 13l-16 -19zM616 901l-57 45q-33 31 -31 58q-4 -12 -4 -23.5 t4 -42.5t4 -41q16 12 25 23q10 -10 10 -31q12 12 49 12zM735 848l-39 -4q-20 0 -28 12q49 -29 49 -57q0 -33 -64 -60l41 -8q0 12 27 37q20 -18 37 -25q-18 -6 -41 -6q10 -10 10 -19t-12 -40l18 4v-61l27 -72l-6 137l22 4l15 45l-7 -4q-14 2 -26 12l-4 56q-6 31 -19 49z M774 246q0 12 -11 59t-11 62q-18 -43 -25 -76q18 -16 18 -33.5t-12 -36.5q41 0 41 25zM580 162l12 74q-43 -10 -105 -13v-59q0 -33 45 -78q18 23 50 47q-14 6 -41 33l14 8q15 -2 25 -12zM221 430l-28 39l-43 -10q3 -17 71 -29zM274 287v18l-49 12v-18z" />
<glyph unicode="4" horiz-adv-x="1075" d="M1022 596l4 -111q0 -20 -2 -36v-35q0 -43 -29 -43q-6 0 -2 10q6 10 0 10l-10 17l-4 94q-10 6 -18.5 -7.5t-2.5 -27.5q-6 -6 -8 -37l11 -37q-12 -20 -78 -20q-18 0 -19 -15l-6 -157l8 -140q0 -23 -2 -61q-10 -10 -18 -10l-47 10l-162 -10q-6 0 -21.5 14t-27.5 12 q-4 319 -2 357l-324 -11q-33 25 -43 25t-32.5 -10t-69.5 -10h-68q-29 12 -29 94q0 31 11 209q4 53 32 114l156 334q68 172 195 436q51 39 51 42t-5 3t-10 -1t-6 6q0 4 19 56t42.5 71.5t121.5 19.5h71l23 -51l-2 -88l14 14l-16 -100q10 -10 16 -41t8 -33l4 64q6 61 25 86 l-16 22l18 8l2 29l-18 53l-2 -72l-15 25l4 74l-20 10q53 -2 115 -2q37 0 43 -86t6 -381l4 -283q0 -172 -19 -309l11 -26q49 2 81 2t33 -2q14 -2 14.5 -21.5t12.5 -28.5q-2 -10 -2 -18zM676 733q0 -5 41 -26q-16 -29 -16.5 -35t1.5 -15q16 4 58 23l10 -12l-8 -45h18l13 59 h-13q0 29 -47 57l8 78q14 -6 23 -20l-10 -21q12 -12 22 -33l12 52q0 29 -18 41q10 35 10 73.5t-6 63.5l6 114q-14 -2 -28 -10l-2 -49q0 -2 10 -57v-13l-15 9l-51 -52h29l18 23q-4 -45 -36 -90l4 -17l-7 -10q18 -25 25 -45l-18 -12q0 -8 4 -21l-23 -18zM295 666l63 4 q14 0 29 -6h55q140 0 152 20l16 702q-18 -25 -173 -365.5t-154.5 -347.5t12.5 -7zM735 635l19 6l-4 10l-17 -8v-4h-12l-12 -35l14 -6zM778 483h27l-21 17l7 18l-17 -6l-6 2l23 25l-21 12l14 6v29l-14 14l-22 -10v10q-12 -2 -37 -10q6 -2 14 -10l-35 -15l-2 -51q31 10 74 31 q-10 -14 -55 -60l32 -16q0 -13 9 -29l-5 9l9 14l-13 6l27 14q0 -31 -14 -47q2 -6 14 -18q4 40 12 65zM281 946l20 -26v65h-18zM750 346v21l-2 -5l-3 -16h5zM299 770l4 98q0 16 -22 35q-2 -113 -13 -184q8 0 19 26zM700 354l-8 52q-18 0 -20 -39q16 -5 28 -13zM770 181l-2 42 q6 2 20 -2l-38 125l6 -4l16 29l-16 6l-6 -10l2 16l-4 -21l30 -47l-33 31q2 -23 -4 -59q17 -34 17 -37q-20 -12 -35 -19l-12 -96l14 -47q20 45 43 45q2 8 2 21v27zM772 913l4 -12q-4 8 -4 12zM780 682h-6l-4 -14l2 -2zM733 639h4l-2 -4l-2 -2v6zM741 567l29 -16l-8 -6l-12 4 l-25 -6q4 20 4 28v4l-4 5l23 10q-1 -13 -7 -23zM768 483l14 6l-4 -6h-10zM768 483h-2h2zM768 223q-2 4 -14 8q4 12 4 19q0 -11 10 -27zM725 213h18l-2 -29h-18z" />
<glyph unicode="5" horiz-adv-x="1081" d="M866 1096l23 4q10 0 14 -2h4q4 0 6 -28t23 -44q37 -27 52.5 -119t21.5 -102q-4 -37 -4 -232q0 -336 -197 -542q-55 -59 -277 -60q-279 0 -395 254q-6 20 -20 147.5t-14.5 157t17 29.5t27.5 -10q27 27 66 26q100 0 121.5 -4t33.5 -6q33 -5 33 -10q0 -115 2 -133 q10 -78 48 -121q68 -33 106 -33q139 0 139 305q0 182 -7 200.5t-18.5 53.5t-15.5 47q-33 86 -94 87l-39 -15q-94 -43 -129 -145q-27 -23 -56 -23t-114 6q-80 10 -86 13q14 449 35 917q6 6 16 31q14 0 29 2h27l250 -4l407 6q6 0 10 -3t7 -1q18 -17 22 -84v-19l-4 -108l4 -45 q0 -33 -37 -33h-10q-14 14 -176 14h-215q-23 0 -51 -4q14 -8 14 -30v-13l-8 -12q-20 -111 -20.5 -214t1.5 -107q121 113 252 112q41 0 103.5 -22.5t62.5 -51.5q-4 -8 -12 -22l14 -4q0 -6 8 -6zM889 1624l24 6q-16 0 -16 12.5t2 18.5l-18 6zM895 1571v43h-14v-43h14z M842 1595l2 72h-13l-2 -72h13zM889 1518v28l-25 -6q-2 8 -5 18.5t-3 12.5l-6 -17l2 -18q-10 -4 -29 -18h29l16 16zM690 1655q-2 16 -14 26h-35q12 -14 21 -34q14 0 28 8zM641 1624l-70 29q-27 0 -59 -17v-6l-18 17l-43 6q14 -29 14 -55.5t-4 -55.5l18 -8l17 14 q115 -14 168 -14t67 2q37 23 45 27q-23 6 -43 49q16 6 31 6l-6 18l-29 9q0 -14 -10 -21l-2 4q4 14 12 23l-18 10l-21 -19q-14 -8 -49 -18zM397 1655q-6 20 -26 28l-2 -36q14 0 28 8zM440 1556l2 21h-12l-2 -21h12zM377 1620l6 12l-23 8v-10zM289 1614l12 12l-8 6l-10 -10z M393 1505q-2 12 -12 35q-10 -6 -10 -18q-1 -17 22 -17zM377 1464l8 23h-10l-8 -19zM408 1440q-6 4 -21 18q-2 -10 -16 -35q21 11 37 17zM807 1079l-19 -63q0 -20 29 -45l-26 -4l-17 6q-4 -29 25 -29l18 8v-10q0 -10 8 -35q18 8 29 58q11 10 25 12q-12 20 -29 39q12 4 20 4 l2 35q-10 10 -38 24h-27zM250 1509l10 23h-10l-10 -19zM252 1485l4 10l-20 10l-3 -10zM668 1059l4 12l-23 8v-10zM254 1462v15h-27v-15h27zM705 932l36 10q-16 10 -14 41q-14 -6 -29 -6q7 -18 7 -45zM713 1004l-43 16q-14 -53 -19 -86l11 -2l26 8q-6 10 -12 31q14 29 37 33z M281 1335q-14 -12 -15 -35q11 10 15 35zM236 1335l10 4l-8 25l-13 -4zM809 778l41 29q-6 0 -8 -2q-16 0 -33 35q0 14 -4 43l-8 6q-14 -8 -25 -29l-47 -14q-6 4 -23 8q37 -14 132 -127zM379 1151v51q-29 -16 -29 -33.5t29 -17.5zM356 1075l31 55q-10 10 -61 -16l30 6v-45z M217 1178l29 8l-4 12l-25 -10v-10zM324 975v12h-35v-12h35zM825 414v18h-28v-18h28zM764 229l16 72l-6 23q4 16 4 22v4q-57 -55 -57 -94q0 -27 43 -27zM735 115l21 55h-17l-20 -47zM350 395v29h-14v-29h14zM260 500v-21h-41v21h41zM348 457v8q0 27 -6 65l-33 -18h-12 q-10 0 -43 -9t-43 -9l6 2q-14 18 -59 26q-6 -14 -17 -65q11 22 17 28q6 -14 6 -28.5t-6 -26.5q18 -29 26 -49q20 33 15 55q20 14 45 51l43 19q-6 -23 -6 -35t26 -45q8 37 41 31zM573 203h-65q6 -4 10 -15q-2 -6 -14 -6l-19 19q23 23 23 47q-29 0 -43 -12q16 -68 29 -130 q23 29 24 68q14 -8 43 -22q0 16 12 51zM432 193l-78 129q-8 -4 -20 -9l-17 9l-14 -27q0 -12 8 -19l11 5q-25 -107 2 -135l19 -18q13 -13 15 -17q21 51 74 82zM205 336l33 14l-7 15l-26 -13v-16zM627 1565l-29 -9l2 37q23 -20 27 -28z" />
<glyph unicode="6" horiz-adv-x="1064" d="M479 1763l109 9q176 0 286.5 -130.5t108.5 -304.5v-24q-16 -12 -33 -13l-2 3l-14 2q-2 14 -13 14t-20 -21l-37 -6l-145 6q-8 0 -16.5 10.5t-18.5 8.5q-4 63 -10 88t-32 49.5t-75 24.5h-18q-150 0 -150 -269q0 -16 2 -28v-29q0 -68 -32 -76q-2 -6 -2 -14l8 -45l-35 -43 l45 26l10 -26q6 -6 13.5 -6t25.5 43q119 98 199 98q223 0 299 -180q47 -117 47 -335t-23 -312q-37 -137 -151 -228l-27 23q-15 0 -22 -53q-18 -10 -125 -54q-14 4 -19 9l-24 -17q-18 4 -31 25l-10 -23q-18 8 -43 8t-39 -8l-19 25l-36 -15q-70 0 -103 25q-12 8 -43 47t-45 47 l-86 123q-41 186 -41 510v219q0 289 27 422q49 250 200 352q53 37 111 37q16 0 19 -20q2 -10 5 -14.5t11 -2.5q4 20 14 43zM801 1540v27q-23 39 -56 47l-2 -43l19 28q6 -20 39 -59zM696 1573q8 4 17 4l12 -10l2 -11v35q-23 0 -37 -18h6zM608 1524l8 12q0 16 -6 43l8 6l9 -14 l-4 -15q2 8 18 21q10 -8 18 -12l-6 18l13 16q8 -8 12 -22l12 43q-98 41 -106 41q-70 0 -74 -121h18q10 2 38 2t42 -18zM436 1518q0 69 39 69l4 19l-16 -7q-49 35 -66 46q-39 -23 -114 -66l14 2q33 0 78 -86l16 14l17 -6q2 23 12 51q2 -14 16 -49v13zM334 1442l57 18l-24 27z M817 950l12 19l-10 4l-12 -19zM788 1001l-24 -14q-12 12 -19 14l9 -20h26q4 12 8 20zM215 1452l29 31q-20 14 -20.5 27.5t3.5 29.5l-28 -57q4 -15 16 -31zM852 823l31 35h-29zM780 899l2 27h-12l-2 -27h12zM227 1405l2 43h-14l-2 -43h14zM842 657q35 13 34 23t-4 20l-6 9z M780 748h11l-9 22l-10 -4zM811 719l2 26h-12l-2 -26h12zM549 958l2 29h-12l-2 -29h12zM324 1182l8 8l-13 10l-8 -8zM868 598l2 27h-12l-2 -27h12zM821 610l10 31h-10l-10 -27zM530 913q-2 12 -10 23q-10 -10 -26 -10q11 -13 36 -13zM328 1092l10 20l-12 4l-9 -18zM166 1169 v29h-12v-29h12zM823 496q-16 8 -24 18l-19 -37q27 1 43 19zM133 1098l37 18l-4 10l-33 -16v-12zM152 1047l-5 -43q1 -17 17 -23l2 88l-16 -8q2 -4 2 -14zM807 328v41h-12v-41h12zM307 788l-31 -47q16 -16 35 -24q18 45 18.5 69.5t-20.5 47.5l17 20h22q-8 39 -8 43h-27v-12 q-6 -10 -34 -51q29 -33 28 -46zM788 285l37 18l-4 10l-33 -16v-12zM688 563q0 264 -146 264t-147 -342q0 -223 146.5 -223t146.5 301zM764 295l2 37h-43zM750 285v12h-21v-12h21zM137 809l29 8q-2 29 -19 88zM799 233q-25 0 -25 -51v-45q23 16 25 96zM291 596l18 59 q-18 4 -30 25l-25 -31l31 -12v-6q0 -12 6 -35zM176 729q-6 16 -41 47l-2 -63q10 -25 29 -25v4q-2 17 14 37zM299 559v29l-16 -6q-14 2 -19 28v-51h35zM680 242q-6 16 -16 30q-31 -29 -41 -59l-45 23q-15 -27 -3 -54q10 14 17 23q18 0 47 -29q0 20 6 37q14 -33 14 -35 q7 17 21 64zM172 614l12 7l-16 22l-10 -6zM139 664v-25q0 -20 2 -31l15 -10q-10 18 -13 39q25 10 35 8zM178 528l10 21l-10 2l-10 -19zM223 500l-10 20q-12 -8 -18 -28q14 8 28 8zM528 211q-6 4 -24 8l-29 -14q-12 31 -33 31q-16 0 -32 -19l-2 -47q23 -20 20 -107l37 17 q4 35 53 53q-12 8 -14 21q10 22 24 57zM291 131l18 55q0 10 -8 68q-23 8 -18 25q6 -2 12 -5h4q14 0 14 25l-10 23q6 63 6 115t-2 75l-26 39h-41v-14q0 -23 8 -31q16 0 26 8l-2 -27q-6 -16 -20 -30q27 -37 35 -56h-4q-8 0 -19 7l6 4v-21l-4 -4l2 -10v-31l-24 -2l10 2h10 l6 -10q-4 -29 -39 -53q16 0 37 -4q-23 -12 -39 -35l7 -8l10 -72l-4 8l10 2q10 -6 39 -43zM170 438q0 12 -2 23l-29 -8q0 -12 15 -97zM524 1565h29v-13h-29v13zM389 1573h29v-14h-29v14zM350 1585l10 -4l-10 -20l-10 6zM481 168l11 -4l-11 -21l-8 7z" />
<glyph unicode="7" horiz-adv-x="960" d="M801 1749l73 -6q39 0 42.5 -12.5t3.5 -42t-18.5 -135t-43.5 -164.5l-39 -93q-88 -242 -114 -393q-4 -80 -35 -280q0 -4 -49 -86q0 -6 4 -7l22 7q6 0 6 -9q0 -109 -32 -340q10 -4 10 -114q0 -84 -60 -84l-192 12l-94 -18q-6 0 -15 12v37q0 12 3 44t16 144l2 2l18 -16 q14 0 15 18q0 2 -12.5 14.5t-12.5 22.5v4q4 4 4 15q20 59 23.5 168.5t15.5 182.5t54 231.5t85 326.5q8 8 21.5 8t21.5 -2h17q45 0 45 21q0 8 -46.5 8t-45.5 20q0 25 33.5 106.5t33.5 84.5h-477q-53 0 -53 30q0 12 3 23.5t12 17.5t9 13l-8 -2l-6 12l-4 43l12 94l-4 68l2 10 q109 -6 240 -6l395 8l10 -88l27 82q20 0 35 -8q16 16 47 16zM717 1649v14l-27 -43l-8 -125q37 64 35 154zM760 1436l2 45q-2 -2 -9.5 -11.5t-13.5 -15.5q19 0 21 -18zM563 1462q23 41 23 64.5t-35 77.5q-4 -43 -21 -60q14 -6 33 -82zM606 1460v13h-22v-13h22zM414 1493v25 q0 20 -2 43v43q-14 -8 -25 -9q-27 0 -39 33q4 -57 4 -72v-12q0 -16 -4 -49q20 10 39 16q-18 29 -18 48.5t16 29.5q23 -51 29 -96zM586 1253l16 29l-16 6l-17 -28zM293 1516v12h-23v-12h23zM229 1534v31q-16 -2 -69 -2v-33q0 -45 16 -68l17 43q11 23 36 29zM608 936h17 l-15 33l-14 -6zM637 799l14 32h-16l-14 -26zM510 651q39 57 39 80.5t-17 61.5q-10 -39 -38 -82q16 -16 16 -60zM608 356l2 109l-28 -57l-2 -13zM532 170l3 29q-31 8 -41 26l-19 47q-20 -29 -22 -102h79zM393 256l15 33h-17l-14 -27zM438 47l2 51h-16l-2 -20q0 -21 16 -31z M395 76v18h-30v-18h30z" />
<glyph unicode="8" horiz-adv-x="1034" d="M760 -4l-12 55q-4 0 -7 -2l-6 31l-16 4q8 14 14 14h2q18 18 13 29q-8 6 -13 23q4 -10 -6 -27l-8 6l-19 8q-14 0 -18 -28l-16 -5q-6 -2 -6 -10l16 -49l-29 -47l27 -10q-39 -39 -160 -39q-242 0 -343 124t-101 367q0 328 217 475q-102 84 -144.5 174.5t-42.5 219.5t30 210 t112 164l41 7q16 35 45 43l26 -11q31 0 39 27q61 -10 78.5 -10t61 17.5t55.5 17.5q178 0 270 -168q74 -135 74 -326q0 -227 -193 -358l-20 114l-23 -155l19 -66l-27 -102l21 8l12 -6l31 30l-25 54l19 82l-13 14l8 10q220 -104 220 -430q0 -393 -199 -475zM629 1505l-17 74 q-6 -6 -14 -10l-14 6q16 16 32 27q-8 4 -19 36.5t-13 34.5q2 -55 -27 -78q-31 -20 -33 -61l11 4l8 25q2 6 8 6t38 -31t40 -33zM670 1298q0 205 -142 205q-156 0 -155 -217q0 -117 20 -149q25 2 25 -23q0 -4 -6 -33l6 -12q33 -20 33 -39q18 -23 79 -22q80 0 113 112 q27 74 27 178zM332 1507l-27 -127q0 -55 6 -49l35 31q-10 20 -10 38t18 32q-2 27 -22 75zM330 1214l16 41l-6 64q-20 -14 -16 -37q12 -33 6 -68zM360 881q-12 -4 -49 -6t-44 -9.5t-10 -26.5t-24 -18q-6 -35 -8 -47q18 -18 37 -45q0 -16 -8 -24h22q10 0 56 -11q-10 18 -37 47 q29 16 53 17q-16 12 -47 8q10 10 10 25v10l-12 8l-4 6l10 10h2l8 11q-10 -4 -41 -25l-2 8q8 39 88 49l7 13h-7zM721 696l-4 -34v-27l10 -10l-20 -39h2l-9 -43l5 -8l-11 -3l25 -24l-17 -8l-12 16l-8 -10q-2 272 -156 272q-174 0 -174 -284q0 -92 41 -181t123 -90 q127 0 156 164l41 -22l16 -19q68 18 68 43q0 20 -35 37q-6 -2 -23 -14l-37 -6q27 16 58 45l-35 14v4q8 4 23 4l16 -8l14 -23l2 52l-12 16l-12 -21l-11 64h-14l-4 2v10l61 -16l-53 39h2l11 30l-21 27l25 25v61zM795 225l-13 43q-2 2 -41 8q2 10 2 27q0 29 -67 51l14 -30 l-18 -13l45 -59l-17 -35l5 -22l-7 -5q0 -8 4 -16q15 15 21 27l8 24q10 6 19 2q4 -8 10 -14q-10 -4 -29 -18l-14 -15q32 -6 33.5 -13t1.5 -10v-16q43 39 43 84zM690 233q-4 -4 -33 -20q0 -2 1 -13q4 -46 4 -79l16 16q-4 10 6 45l2 23zM766 385l-35 -20l-12 18l18 18 q29 0 29 -16zM688 434h12q0 -2 -14 -33l-8 17q2 6 2 41q8 -19 8 -25z" />
<glyph unicode="9" horiz-adv-x="1067" d="M612 1716q13 0 29 41q82 0 176 -88q152 -141 152 -582q0 -74 -2 -116l2 4q8 -8 8 -76.5t-16 -101.5q-2 -18 -3 -58l5 -129q0 -233 -66 -393q-90 -213 -285 -250v2q2 14 -10 15q-12 0 -76 -17q-150 0 -221.5 35t-144.5 152q-43 72 -56 159l-6 88l-4 41q0 14 31 15l111 -8 q39 2 114 8q14 0 29 -19q6 -184 151 -184q94 0 125 102q14 49 14.5 141.5t-5.5 100.5l8 37q0 59 -13 92q-66 -96 -180 -96q-211 0 -311 168q-76 127 -76 325.5t19 294.5q29 154 116 228q18 -12 19 -29l-6 -35q0 -18 12 -27l-6 -22l18 2q0 35 -5 48t5 24q-8 8 10 8q2 0 9 2 q-27 20 2 47q-8 0 -29 14q43 35 117 64q2 -2 2 -8.5t-4 -14.5q0 -18 12 -18q4 0 8 4q6 47 33 55q14 8 68 8l100 -6v-12q0 -35 20 -35zM731 1145l-37 -58l8 -94q19 64 29 152zM657 1184l5 104q0 186 -123 187q-156 0 -156 -299q0 -254 149 -254q123 0 123 178q1 12 9 18 q-6 29 -7 66zM733 895l2 88q-27 -33 -30 -106zM293 1563l14 10q-35 4 -10 35l-27 -15l15 -24l-11 -47l-12 -4q-18 6 -29 -13q-16 -35 -22 -39h29q6 4 20 23q-4 -45 -39 -90l6 -17l-6 -10q16 -27 25 -45l-19 -12q0 -14 2 -21l-20 -18l-16 8q0 -12 43 -27q-16 -29 -16.5 -34.5 t1.5 -14.5l8 2l-2 -28h19l2 35l28 14l15 -14l6 16q2 29 -47 57l10 78q14 -6 21 -20l-9 -21q14 -14 21 -33l12 52q0 29 -16 40q10 35 10 99t-6 78zM651 858q11 37 11 54t-7 40q-10 -25 -38.5 -48t-53.5 -23l-14 6q0 -4 24.5 -14.5t28.5 -24.5l25 20q10 -10 24 -10zM252 1184 l20 8l-4 10l-16 -8v-10zM266 1137v14q-12 -2 -37 -10q6 -2 19 -15v11h18zM324 1034l-23 17l8 18l-18 -6l-4 2l22 25l-45 24v-6h-18q0 -10 -2 -14l24 6l13 -4q-10 -14 -56 -60l4 -2h39v-18h-2l4 -2l-10 -15l8 -12q17 20 17 47h39zM756 504v69l-19 -41v-28h19zM248 965l12 10 l-16 16l-11 -12zM772 383l12 10l-4 45l-22 -41zM756 459q-14 12 -22.5 12t-8.5 -51v-23q29 25 31 62zM262 805l6 129q-2 -39 -20 -107q-18 -23 -19 -36q0 -35 25 -35l4 -6v6h10zM739 328v39h-18v-39h18zM752 272q-12 20 -21 27l-2 -106q5 26 23 79zM272 385l2 39h-41 q16 -21 39 -39zM244 266l59 13q0 16 -2 22q-20 6 -31 14q-2 20 -18 58q-6 -41 -8 -107zM244 219l32 12l-6 15l-26 -13v-14zM229 1221h19v-4l-19 -7v11zM262 805q-2 4 -2 10q-16 0 -27 -10q0 -16 21 -49h4z" />
<glyph unicode=":" horiz-adv-x="516" d="M393 950l13 -100q0 -23 -35 -46.5t-62 -23.5l-37 17l-127 -17q-53 0 -53 86q0 143 17 252q98 10 152.5 10t107.5 -2q29 -23 28 -100zM385 131l12 -100q0 -23 -34.5 -46.5t-61.5 -23.5l-37 16l-127 -16q-53 0 -53 86q0 143 16 252q98 10 152.5 10t107.5 -2q29 -23 29 -100 zM317 1026l2 27h-14l-2 -27h14zM315 993l9 6l-19 19l-8 -6zM248 1022l22 10l-4 10l-18 -10v-10zM319 932l-4 -21l2 52q-12 -12 -65 2l33 -31q18 -20 12 -39q18 10 22 37zM293 836h2q0 4 -4 8q4 4 4 14t-29 39q-25 12 -35 23v-48q0 -25 7 -41l34 9q17 -4 21 -4zM311 227v27 h-14v-27h14zM307 195l8 6l-18 18l-8 -6zM242 223l22 10l-4 11l-18 -11v-10zM311 113l-4 -21l2 51q-8 -10 -26 -18q10 -20 10 -26.5t-4 -22.5q18 10 22 37zM229 61l35 9q-6 8 -28 30q10 10 22 27q-25 12 -35 23v-46q0 -27 6 -43z" />
<glyph unicode=";" horiz-adv-x="516" d="M387 950l12 -100q0 -23 -33.5 -46.5t-62.5 -23.5l-35 17l-129 -17q-53 0 -53 86q0 143 16 252q98 10 152.5 10t107.5 -2q29 -23 29 -100zM352 307q27 -21 28 -82.5t-9 -253.5q-10 -45 -60 -145q-49 -109 -78 -133q-16 -4 -43.5 -4t-83.5 6q6 41 53.5 124t57.5 132 q-2 14 -57 18l-68 4q-14 23 -14 130.5t14 195.5q98 10 152.5 10t107.5 -2zM313 1026v27h-14v-27h14zM309 993l8 6l-18 19l-8 -6zM242 1022l24 10l-4 10l-18 -10zM313 932q0 -14 -2 -21v52q-11 -11 -65 2l33 -31q20 -20 12 -39q22 12 22 37zM287 836h4q0 4 -6 8q4 4 4 14 t-29 39q-27 16 -33 23l-2 -21v-27q0 -25 6 -41l35 9zM252 203l2 10l-16 10l-5 -10zM199 207v26h-13v-26h13zM184 174l19 19l-8 6l-19 -19zM264 129q-14 -14 -35 -23q6 -12 21 -26q-18 -14 -29 -31l35 -8q4 18 8 88zM207 104q-20 6 -29 19l-2 -51v20q0 -25 21 -37 q-4 14 -4 21.5t14 27.5z" />
<glyph unicode="&#x3c;" horiz-adv-x="1802" d="M1518 197l22 -66q-8 -12 -29 -16l-1214 559q-25 27 -25 44t11 73q-23 47 -15 88l66 6l-60 35q-6 23 76 50t243.5 110.5t532 250t398 166.5t26.5 -45q0 -20 -26 -119q57 -43 57 -61.5t-20 -38.5l-971 -420q154 -88 446 -215q324 -135 451 -203q59 -31 59 -78t-2 -63l-65 2 l43 -43zM514 985q26 -4 21 -14q43 -12 43 -31q0 -10 -31 -16l-41 -9l-6 -16l35 -20q38 14 96 22q53 20 92 62q51 -18 49 -19v25q0 16 19.5 27.5t40 11.5t36.5 -15q8 16 51.5 48t57.5 32t43 -16v18q0 10 2 29q20 2 33 2l37 -4q-10 -10 -52 -29l11 -2q23 0 114 33l127 41 l15 22l77 29q53 25 58 49q12 3 37 17l-19 12q-18 -6 -41 -23l-2 29q33 12 33 25v2l-55 -13q2 -10 2 -15t-2 -11l-35 10q-10 -2 -26 -7q-38 -13 -81 -26l-63 -37l14 -16l2 -8l-14 4q-57 -12 -195.5 -63.5t-142.5 -73.5l4 -7v-2l-51 9q-14 0 -40 -15.5t-32 -15.5 q-33 -31 -96 -51q-59 4 -125 16zM1184 309l14 29h-10q-29 -2 -62 22l-55 39l-8 -39q19 2 121 -51zM963 446q-13 0 -17 -4h-4q-53 0 -70 37l-4 -14l6 -23q96 -49 110.5 -49t25.5 2q-3 4 -23 37l23 4l-62 58q6 -12 6 -20.5t-1 -12.5t10 -15zM829 506q-10 10 -30 41 q-2 -2 -13 -2t-26 12q14 -31 69 -51zM727 567l2 2q0 12 -4 25q-18 -4 -31 -12q23 -15 33 -15zM633 604l33 10l-17 4l-33 29zM403 836l3 16l2 2q0 27 -37 29l-2 -6zM627 586l6 12l-31 16l-6 -12zM455 670l55 -29l-16 33l-31 6z" />
<glyph unicode="=" horiz-adv-x="1441" d="M522 1176l242 14h223q98 2 223 2q50 0 50 -47q0 -23 -35 -88q25 -61 24.5 -75.5t-28.5 -33.5l-1012 -6q-12 41 -12 75t16 62l33 -6l-29 64q2 18 19.5 37.5t42 19.5t107.5 -9t136 -9zM866 680q211 0 365 -8l-2 -97l-49 -26l47 -19l4 -51q0 -25 -31 -47l-993 -10l-17 35 q2 63 25 123l-4 53q0 49 36 49t131 -9t152 -9zM793 1010l204 -35l19 16q49 -6 82 -6t39 21h16q8 0 16 2q-2 20 -20 20q-6 0 -27 -6l8 27h7q27 0 26 14l-45 8q0 -12 -6 -24l-22 24l-11 -2l-78 14q-8 0 -30.5 -4t-26.5 -4l6 -20l-2 -8q-31 31 -219 30q-78 0 -78 -20 q-29 35 -53 35q-2 0 -18.5 -4.5t-24.5 -2.5q-25 -10 -49.5 -10t-34.5 2q-45 33 -86 66q12 -8 12 -17l-2 -4q23 -27 23 -40t-8 -13l-54 14q-6 -18 -19 -18t-22 2q16 -20 17 -39q8 8 16 12l66 -14q20 -4 30 -8q44 0 84 18q8 -16 31 -37q2 10 10 31q4 10 32 10t42 -32 q33 31 100 30q12 0 29 -34q6 18 19 43q18 -10 49 -31zM965 459l2 33q-16 -14 -32.5 -14.5t-45.5 5.5t-37 6l6 -36q17 10 107 6zM285 1034q-10 12 -29 13l16 -33q3 10 13 20zM807 459q-20 14 -29 24l17 13h-33q4 18 18 20q-2 2 -11 2t-32.5 -9t-23.5 -15l4 -2l39 -9 q-14 -20 -40.5 -20t-37.5 10q0 -16 14 -31l80 -2q15 1 35 19zM637 479q-6 2 -37 21q-10 -12 -33 -8q20 -16 27.5 -16.5t23 1.5t19.5 2zM543 489q-4 12 -13 21q-12 -12 -18 -25h16q11 0 15 4zM459 477l20 25l-12 -4l-35 12zM461 459v14h-29v-12zM307 457h49l-22 22l-27 -8 v-14z" />
<glyph unicode="&#x3e;" horiz-adv-x="1802" d="M244 131l26 68q0 10 -2 14l45 43l-65 -2v37q0 70 67 104q123 61 442.5 195.5t483.5 222.5l-942 420q-18 20 -18 37.5t63 62.5q-18 98 -18 119q0 45 28.5 45t415.5 -181t472 -227t231 -112q92 -35 92 -51v-6l-64 -35l66 -6v-21q0 -35 -21 -67q6 -41 6 -64.5t-28 -52.5 l-1254 -559q-18 4 -26 16zM1427 836l39 41l-2 6q-37 -2 -37 -25v-22zM1309 641l57 29l-6 10l-33 -6zM758 1102l37 4q14 0 34 -2q0 -35 -2 -47q29 16 43 16t55.5 -30.5t49.5 -49.5q16 14 39 15q53 0 53 -64l25 10q16 4 26 9q37 -41 88 -62q13 -1 94 -22l35 20l-4 16l-39 9 q-31 6 -30 16q0 18 47 31q-5 10 20 14q-31 -2 -127 -16q-63 23 -92 51q-6 0 -30.5 15.5t-39.5 15.5l-51 -9v2l4 7q-4 23 -139 74.5t-190 62.5l-13 -4l2 8l15 16l-62 37q-41 8 -102 33l-37 -10v6l4 20l-55 13v-2q0 -12 30 -25l-4 -29q-25 18 -41 23l-18 -12q25 -14 37 -17 q-4 -25 53 -49l76 -29l12 -22l125 -41q92 -33 104.5 -33t18.5 2q-29 14 -51 29zM1184 604l18 43l-35 -29l-16 -4zM1190 586l31 16l-7 12l-30 -16zM1120 582q-12 8 -30 12l-7 -25l2 -2q8 1 35 15zM1055 557q-18 -14 -41 -10q-4 -10 -35 -41q13 6 21 8t15 5t12 7l10 8 q7 7 18 23zM932 442l6 23l-4 14q-16 -37 -72 -37h-2q-8 4 -16 4q8 8 8 22.5t8 25.5l-65 -58l22 -4l-24 -37q10 -2 24.5 -2t114.5 49zM737 360l-6 39q-6 -4 -23.5 -16t-27.5 -18.5t-26 -13.5q-28 -13 -56 -13l14 -29q105 53 125 51z" />
<glyph unicode="?" horiz-adv-x="1089" d="M266 1163l-112 -12q-55 0 -68 4q-25 8 -25 51q0 168 64 293q70 143 211 203q27 12 74 8q12 14 22 39q74 25 152 25q150 0 264 -95q117 -92 149 -235q17 -74 13 -107q-12 -4 -23 -16q0 -2 7 -5q22 -9 22 -52l2 -9v-43q0 -4 -11.5 -12t-11.5 -14l4 -35q0 -43 -68.5 -153 t-105.5 -109q4 16 4 22v2h-2l-22 -53q-117 -98 -165 -169t-52 -202l-154 -2q-40 -4 -49.5 1.5t-18 16.5t-12.5 13q-14 0 -37 -35q-8 0 -16 -1t-25 16q4 12 1 31t-3 38q0 233 263 441l67 4v2q0 2 -18 8l-21 6q0 -6 29 27q14 20 37 49q66 84 69 162q0 14 13.5 14t13.5 21.5 t-6 23.5l-12 -8q-6 2 -6.5 50t-32 67.5t-90.5 19.5h-41q-178 -6 -179 -219v-25q2 -10 2 -31.5t-20 -21.5zM600 156l16 -111q0 -23 -35.5 -40t-68.5 -17l-41 16l-139 -12q-49 0 -60 53q-2 6 -2 101t13 190q49 6 123 6l163 -2q33 -25 33 -113q0 -20 -2 -34v-37zM905 1405v27 h-12v-27h12zM911 1282l19 6v4q0 23 -12 25q-1 -17 -7 -35zM616 1538q-4 27 -18 41l10 4q12 -6 24.5 -38t12.5 -54v-4q0 2 -2 4l16 -8l-6 55q-8 35 -24.5 53.5t-16.5 14.5q0 8 2 14l-20 6q-14 6 -8 8q-10 -10 -56 -35q-16 0 -26 11q0 -29 -25 -76q20 8 60 33q12 -27 8 -56 q14 14 18 45q10 -14 35 -10l-8 10l8 5q2 -2 6 -15zM891 1210l8 7l-8 12l-10 -8zM811 1464q0 -10 4 -14v-4q0 -12 -16 -41l8 -2q-18 -39 -18.5 -182.5t16.5 -163.5v84q0 45 2 61h4q6 2 10 -5q10 -17 10 -58q16 6 21 8v35l-12 4l4 4l18 2q3 8 15 49l-17 -8l-2 4q0 10 8 25 q-8 14 -8 33.5t12 80.5l-14 19l-6 2q14 8 12 24q8 12 10 25q-8 31 -28 31q-12 0 -33 -13zM457 1563l18 55l-59 8q-23 -23 -23 -53q12 23 28 23t36 -33zM444 1536q-2 8 -16 18q-14 -6 -45 -32l-16 -105q38 2 77 119zM131 1278l37 51l-12 53q-21 -38 -25 -104zM442 711 q21 29 21 38t-14 21q-86 -109 -84 -192l32 71q23 47 45 62zM516 246v28h-16v-30zM512 209l10 6l-20 21l-8 -7zM438 240l27 10l-6 12l-21 -12v-10zM518 119q0 -16 -2 -23v56q-8 -8 -29 -21q12 -20 12.5 -28.5t-3.5 -24.5q22 16 22 41zM467 70q-6 10 -31 34q16 16 23 29 q-18 10 -37 25v-19q0 -59 8 -78q29 9 37 9zM834 1376v-4l-21 6l10 23q11 -11 11 -25zM834 1319l-23 8l10 14q9 -12 13 -22zM819 1300l12 3l-10 -31l-10 4zM821 1239l15 2l-2 -20l-15 -2z" />
<glyph unicode="@" horiz-adv-x="2211" d="M1595 -96q2 0 0 12.5t-10 10.5q-10 -2 -8 10t73 55t87 43q37 0 47 -80l26 -14l-6 -50q-317 -262 -712 -262q-166 0 -340 45q-55 141 -134 164q-63 6 -212 23q-326 279 -326 745q0 401 221 717t598 416q98 27 124.5 26.5t53.5 -12.5t34 -12t22.5 16.5t20.5 19.5t42 3h21 q383 -4 634.5 -237.5t251.5 -612.5q0 -291 -168 -533q-186 -270 -465 -270q-229 0 -229 201q-119 -197 -323 -197q-344 0 -345 408q0 115 29 217q0 6 29 88q10 0 21.5 -8.5t16.5 -8.5t5 4l-17 68q0 102 169 208.5t276 106.5q174 0 254 -157l37 73q27 45 60.5 45.5 t45.5 -32.5q14 33 43 33h64q-8 -33 -125 -506q-49 -215 -49 -262q0 -84 92 -84t184 92q123 125 160 235.5t37 313.5q0 279 -224 452q-207 164 -487 164q-326 0 -564.5 -193.5t-318.5 -506.5v-72q0 -6 -18.5 -51t-18.5 -72l5 -74q0 -211 85.5 -390t260.5 -285q92 -37 174 -76 l26 -35q23 -31 30 -31t30.5 18.5t34.5 18.5l170 -14q160 0 313 49l131 51zM1929 539l13 10l-15 16l-12 -12zM1423 918l-18 -89l2 -2q6 0 31 56.5t26 68.5q11 11 31 27l2 96q-43 0 -59 25q-6 -14 -6 -26.5t9 -33t9 -22.5l27 14q2 -2 2 -9t-2 -17q-16 -6 -78 -31l-2 -41 q21 -5 26 -16zM1907 442l10 9l-16 18l-11 -12zM1270 700q30 132 30 146t-16 63q-43 131 -179 131t-228 -188q-74 -154 -74 -320q0 -225 168 -225q213 0 299 393zM1364 195l43 18l4 -2l-27 31q25 18 41 28q-2 -2 -10 -2q-14 0 -31 35q0 14 -4 43l-8 6q-14 -8 -24 -28l-48 -15 l-10 6l4 -45q12 -6 31 -41q23 -35 39 -34zM266 844l23 -6q2 2 2 6l-33 53q10 -10 10 -23.5t-10 -33.5q4 4 8 4zM285 811l-54 10q35 -39 35 -53q17 18 19 43z" />
<glyph unicode="A" horiz-adv-x="1130" d="M518 1741l139 8q88 0 105.5 -7t23 -17.5t9.5 -34.5l4 -25q33 -182 57 -305l160 -954l55 -256q19 -92 19 -117q0 -35 -197 -35q-100 0 -111 22q-20 43 -30 166q-17 211 -58 209l-55 -4q-31 -2 -53 -2q-12 2 -6 8l-19 29q6 6 6 16l23 -4q12 23 -6 54q-14 8 -15 30l17 56 q0 8 -7 8t-15.5 -7.5t-5.5 -19.5t-1 -19t-12 -28l-29 6l14 33l7 6l-35 18q10 2 35 21q-10 -4 -21 10q-4 -6 -26.5 -10t-22.5 -16t43 -37l-8 -4q-18 6 -35 8q20 -51 25 -55q16 -27 40 -23l9 -20q-10 -14 -15 -5q12 -16 13 -30q0 -35 -31 -27q-18 6 -23 6l-57 -2 q-33 -4 -66 -166t-32 -227l-269 -4q-20 0 -20 39v14q0 63 37 270l100 506q18 109 39.5 202t58 339t82.5 346q18 37 76 37zM467 666l37 -4q4 0 6 -10.5t10 -10.5t19 -2q0 4 4 16q29 2 64.5 1t45.5 -1q31 0 31 37q0 119 -37 248q-4 10 -16.5 24.5t-16.5 22.5q27 14 27 27 l-6 67l-37 15l18 24q0 12 -8 27l17 8q4 4 4 8q-8 12 -8 17l4 6l-43 22q15 0 36 31l11 12l-11 35q-14 0 -22 21l12 32q4 45 -22 97q-31 -49 -31 -109q21 8 25 -27q-25 -6 -58 -26l21 -25l6 -30q-6 -2 -31 -43q14 -8 37 -37q-61 -78 -61 -82l8 -13q8 2 24 27l21 8 q-2 -25 -43 -59q-8 -25 -8 -29l-2 -4q0 -2 9 -11t9 -18.5t-6 -27.5q-29 -29 -29 -52.5t2 -33.5v-27l-28 -137q0 -12 -2 -18v-5zM328 1004l10 16l-12 29l-7 47l-10 -58v-18zM309 975l6 18q-10 4 -22 -16q4 -32 4 -35zM330 983q-25 -20 -25 -80q0 -4 -5 -21.5t-3 -23.5 q18 2 31 -10v12l-2 68q6 30 4 55zM322 821l6 19l-31 6l25 -53v28zM326 758l-27 53q-2 -33 12 -82q1 15 15 29zM473 430l31 19l-27 24q-10 -12 -6 -24.5t2 -18.5z" />
<glyph unicode="B" horiz-adv-x="1146" d="M313 1759l144 -24q25 0 24 16q0 6 -6 10q25 0 67 -19t66 -20q20 14 35 15q170 0 274.5 -103.5t104.5 -275.5q0 -305 -115 -377l-59 -33q-41 -27 -45 -43q20 -16 56 -33q216 -98 216 -387q0 -94 -25.5 -207.5t-80.5 -154.5q-4 -8 -107 -80q-61 -43 -221 -43q-4 0 -6 -2h4 l-6 -2l-271 10l-118 -14l-74 12q-10 -8 -47 -10l-21 6v8q0 86 11 158l-7 10l21 21q-18 16 -18 24t6 21.5t6 66.5l-8 281l10 280q0 16 -8 60l12 35l27 12q-33 25 -33 45l-4 373q0 166 8 244.5t41 93.5q14 4 84 10zM741 1587l7 17l-43 12v-17zM686 1593l8 52h-12l-55 -23z M856 1331l31 19l-31 16l-16 -29zM868 1268l25 59l-41 -18l-2 -41h18zM371 1554l35 31l-25 68l-25 -92zM395 1454l-4 84q-49 -51 -49 -102q0 -18 6 -35q10 35 47 53zM731 1325q0 23 -16 39q-35 115 -135 133q-35 6 -67.5 6t-57.5 -4q-25 -33 -25 -223q0 -72 23 -100 q2 -2 2 -5.5t-11.5 -26t-11.5 -30.5q0 -63 66 -98q18 -2 51 -2q117 0 156 106q26 66 26 205zM797 831l2 41q-16 0 -27 -2h-27q-16 0 -28 62q-4 -37 -4 -52t20 -65q-2 -2 -20 -14h37q31 34 47 30zM874 729l15 39q-35 0 -55 -39h40zM934 618l8 15l-33 14v-16zM795 735l2 29 h-21l-2 -29h21zM526 911l17 4l-13 31l-16 -8zM430 1030l2 19h-31l-2 -19h31zM504 967q-20 31 -68 30h-39q-2 -8 -14 -49q2 -10 25 -26q16 0 22 22l-6 4v2h12l47 -4l-22 25q6 2 14.5 2t28.5 -6zM547 874l-19 15q-29 0 -36 -12v4q0 27 -15 41v-13q0 -18 -12 -43q-41 25 -57 33 q20 -43 20 -76q10 10 27 11q8 -6 53 -33l51 14q-2 4 -2 12q0 -4 11 7q31 31 42 118l-16 -8l2 4q0 -23 -13 -56.5t-30 -39.5l-8 2q-2 2 2 6q14 8 18 37l-10 -8v-4zM371 897v18h-31v-18h31zM883 240l22 26h-41l-2 -20zM766 471l8 51q0 131 -49 194t-174 62q-68 0 -105 -24 q-10 -45 -10 -82l13 -130l-13 -145v-24q4 -8 4 -52.5t9 -58.5h81q154 0 203 80q16 55 24.5 77.5t8.5 51.5zM750 203l20 28l-31 7l-10 -25zM647 117l35 26l-27 29q-20 -18 -55 -35q-12 27 -49 68q-20 -14 -86 -47q10 -23 61 -49l-14 -5q-27 2 -70 21q0 -20 29 -49l45 -37 q53 10 53 90zM324 141q-10 18 -27 64l2 6q-18 43 -59 39h-4q-6 -16 -6.5 -36t16.5 -19q8 0 37 12l-2 -2q0 -17 43 -64z" />
<glyph unicode="C" horiz-adv-x="1136" d="M985 535l66 8q14 0 14 -27q0 -293 -107.5 -419t-396.5 -126q-166 0 -284.5 89.5t-155.5 261.5q-23 109 -23 313l-4 280l39 27q0 4 -20.5 8t-20.5 11v129q-2 131 25 131q6 0 22 -4q-6 23 -33 30v6q0 31 31 134.5t48 142.5t57 88q4 -4 0 -9t-2 -14l12 17q0 -6 -2 -15 q6 6 14 9l4 -19q-6 -2 -35 -24l46 -23l-11 -14l8 -13q16 20 17 48h39l-23 16l8 18l-18 -6l-4 2l22 25l-51 29q16 -4 29 2l-19 12q121 115 289 115q86 0 164 -25l12 -51l62 14q10 0 22 -6q121 -51 180.5 -199.5t59.5 -302.5q0 -53 -4 -123q-8 4 -19 4l-88 -10l-92 10l-76 -6 l-18 29q4 45 4 80q0 264 -147 264q-129 0 -176 -86q-31 -57 -37 -205q-8 -281 -8.5 -484.5t26.5 -277.5q45 -129 178 -129q12 0 13 -12l6 -6q20 2 30 -25q-9 -38 -29 -40q-12 -1 -12 -6t3.5 -23.5t3.5 -22.5q0 23 34 23q10 -6 27 -23q18 6 18 25l-8 43q0 4 2 6 q0 16 20.5 36.5t20.5 35.5q-12 -10 -61 -19q6 4 6 15.5t4 15.5q92 43 92 205q0 35 25 43zM262 1145l-6 -33q0 -8 8 -16q6 8 12 34q20 -29 27 -49q-4 -10 -14 -18q8 -6 8 -21.5t-45 -56.5l10 -37l-14 -24l31 -31l-21 -37q-14 -20 -14 -39v-4l2 2l12 -57l-14 6l-6 -12v-4l-2 2 l-9 -15q0 -10 6 -16l13 4l-10 -25l6 -6l10 6q2 0 10 7l2 16l-14 29l41 -25q12 -20 12 -41q29 -33 29 -49l-29 -10l-31 -23q-2 4 -8 57l-8 9q0 -8 -20 -11l-3 -30q0 -16 3 -27q41 -33 63 -61q14 39 72 71l-17 74q-8 16 -49 57q-10 12 -18 37l10 6q12 0 27 -32q0 25 2 43v12 l-13 29q-2 12 -2 38.5t8 43.5q-10 41 -10 73l13 139q0 8 6 39.5t0 47.5l-9 8l5 26l20 -30l6 55l-12 84l-21 22q6 27 9 35l-9 43q-12 -10 -10 -30v-21q-4 -6 -18 -4q0 25 -6 25q-2 -16 -2 -35l-9 -41q0 -6 9.5 -21.5t5.5 -27.5l-25 -29v-131zM893 1542q0 -43 -4 -59v-8 q0 -54 29 -70l26 100q-6 20 -26 47q-16 -4 -25 -10zM760 1575l2 4q0 27 -23 49l-59 -10l16 -53q25 33 39.5 33t24.5 -23zM934 1233q12 41 12 55.5t-28 75.5l-23 -21l27 -184q0 33 12 74zM672 1534q-20 43 -21 76q-10 -10 -26 -11q-12 8 -56 33q-8 -2 -49 -14l2 -12 q0 -2 -18 -21q-27 -23 -35 -104l14 6q0 27 13.5 57.5t29.5 36.5l9 -2q-6 -10 -21 -43l10 8v4l8 11l9 -3l10 -12q27 0 37 12v-4q0 -27 14 -41v13q0 18 12 43q15 -10 58 -33zM291 510l-51 43l-2 -109l16 -55v12q-2 52 37 109zM668 33q24 29 24 45t-12 24l-29 21l-37 -47 q2 -2 13.5 -5t16.5 -7q9 -6 9 -22.5t-22 -45.5zM258 334l8 14l-14 -2zM281 315h-17l-18 -20l4 -8l-6 -23l4 -8l16 35q17 -1 17 24z" />
<glyph unicode="D" horiz-adv-x="1230" d="M111 1360l-7 293q0 74 48 84q12 4 55 4q106 14 129 14q246 0 461 -22q342 -37 342 -537l2 -358q0 -260 -8 -334q-18 -227 -91 -305q-131 -137 -262 -181q-100 -31 -315 -30q-23 0 -31 -8l-51 4l-33 20q-12 2 -38.5 2t-67.5 -11t-49 -11q-49 0 -74 69q-18 49 -19 113 l2 915l15 211zM956 1493q-8 12 -26 35l-2 -43q8 2 28 8zM1010 1413q-4 12 -4 21.5t10 19.5q-14 4 -17 12q2 12 15 33q-10 10 -13 21l9 14q-14 0 -41 12q25 -12 24.5 -63t-22.5 -97l-17 -4q10 -10 29 -10l-2 -53q14 8 14 31.5t-6 29.5q2 0 21 23v10zM1036 1354l8 8l-12 10 l-6 -6zM942 1432l2 28h-14l-2 -28h14zM829 1567l2 59q-33 0 -77 31q-6 -14 -9.5 -32.5t-12.5 -32t-9 -17.5t10 -21h2l6 -41q0 -4 2 -6q4 0 17.5 23.5t13.5 30.5l-2 4v4q0 18 -10 28l14 5l6 -7l13 13l4 10q7 -18 30 -51zM666 1612l2 45q-16 -8 -43 -8l-2 -37l2 -31 q16 35 41 31zM803 1430l20 45h-12l-18 -41zM776 1444l23 8l-4 12l-19 -10v-10zM965 1290l-25 27h-27q8 -8 19 -35l-4 -14q25 10 37 22zM592 1628v27h-51q-2 -14 -2 -32t10 -42q10 16 43 47zM930 1157l18 27l-10 8l-18 -27zM494 1589l2 43q-10 10 -33 25q-14 -6 -19 -8 q-23 14 -45 22q-45 -12 -45 -41q0 -20 15 -49h32l17 14zM934 1061l12 29h-12l-10 -25zM977 907q-23 66 -33 66h-2v-23q0 -16 -5 -44.5t-5 -33.5q35 15 45 35zM213 1589q31 17 31 34t-29 17q-2 -6 -2 -10v-41zM883 899l22 -6q8 0 15 6l6 27q2 14 2 45l-35 -17q-16 -6 -33 -43 q8 -2 17 -16q4 4 6 4zM913 834l7 45l-25 -25l-4 -41zM881 850l10 20l-10 2l-11 -18zM377 1430q0 6 -8 32l-27 -78q-20 -4 -27 -10q16 -6 39 -22q-10 -4 -14 -15q8 -12 16 -34q0 16 17 16zM369 1155l4 131l-35 8v4q6 -8 6 -53q-10 -12 -33 -37q0 -2 16.5 -13t16.5 -21t-8 -44 q21 13 33 25zM1032 520q0 12 -10 12v-2q8 10 8 31.5t-14 34.5q-25 -18 -51 -47l-2 -49q12 0 22 -6l-6 -17q16 12 25 21q8 -8 8 -24.5t-8 -35.5q28 19 28 82zM440 274l174 -12l25 14q129 0 160 125q12 41 12 180.5t12.5 326t12.5 301t-43 175.5q-51 76 -187 76q-6 0 -24 -12 l-136 -4q-6 -135 -6 -293v-133q18 -7 9 -21q2 -176 -9 -723zM991 432q-4 6 -13 15.5t-14 15.5q-11 11 -20 43l-4 -82q33 10 51 8zM371 1081l-21 -28l-8 -37q15 40 29 65zM899 342l19 27l-11 8l-18 -27zM903 246l12 28h-12l-10 -24zM397 885q-41 43 -37 114h-28v-12 q0 -14 14 -48t14 -40q-27 -23 -49 -47q35 -2 39 -12l-14 -17l10 -16q-25 -18 -35 -29q6 -10 31 -14q-6 -72 -37 -197q2 -10 2 -28q0 10 -18 -43q16 -37 14 -64h-20l43 -12q-2 -4 -2 -24t8 -50l20 4q4 0 21 -4v8q0 29 -8 70l-11 -10q-18 0 -30 24q4 2 10 2l24 -4l11 25 q4 25 0 31q12 12 18 28l-2 8q-16 16 -16 103.5t24 130.5q-12 6 -12 51t16 72zM754 213q-20 -20 -176 -63h57q6 -29 12 -82q0 23 35 22q10 0 31 -24l12 -5l16 19q0 10 6.5 62.5t6.5 70.5zM369 135l-4 45q0 23 20 41q-25 8 -25 41q-20 -12 -30 -12t-13 2v20q23 12 33 25h-28 l-3 -68q-10 -12 -12 -100h21q4 39 14 74q6 -31 25 -84q2 6 2 16z" />
<glyph unicode="E" horiz-adv-x="1028" d="M449 662l4 -267q0 -49 -19 -80q348 4 434 4t95 -24q6 -8 6 -80q0 -221 -64 -221l-450 4l-271 -14q-82 0 -82 34q0 102 9 355q47 16 47 22t-21.5 16.5t-23.5 15.5t-2 27.5t2 39.5v41l-4 1163v4l2 -2q4 0 12 14q29 41 139 41l213 -16l260 22q23 0 64 -8l4 -12q12 2 14 8 l21 -2l-43 -31l22 -20q-14 -12 -29 -41l9 4l8 -4q0 -27 14 -58l31 7q2 -4 10 -9q-14 -5 -14 -7.5t2 -18t2 -19.5q2 2 45 35l-14 51l-27 -8l8 10q2 -2 2 -1t2 14v2l33 30q-41 10 -41 21.5t31 13.5q0 6 -2 13l8 6q8 -2 23 -2l20 -21q10 -143 10 -187t-18 -77l-107 2 q-115 0 -144.5 -11t-45.5 -11l-117 20q-49 0 -78 -18q4 -53 4 -89l-6 -225q0 -70 45 -69l197 16q182 0 182 -64v-55q2 -25 2 -55q0 -125 -24 -148q-25 -2 -155 -2t-157 17h2q-2 2 -7 2t-13 16.5t-12 16.5l-54 10q10 10 31 26l2 97q-35 0 -76 -4q43 -37 33 -62l29 23l4 -17 q-76 -35 -88 -41l-2 -41l26 -12q-2 -8 -30 -43v-2l2 2l76 14v-81zM856 1489l39 70l-68 -37l25 -2zM180 1610q-4 4 -12 61q-25 0 -25 -43t23 -43q14 15 14 25zM178 1509l2 54q-16 -12 -33 -29zM141 1460h31q-8 20 -31 39v-39zM217 1401q-16 -4 -20 -4q-18 0 -19 20q0 8 2 13 l-26 6q14 -43 10 -99q26 52 53 64zM477 981l-51 10q35 -39 35 -53q16 20 16 43zM786 225q-29 0 -73 -28q16 -4 26 -15q4 4 15 4v-2q3 0 32 41zM408 150l2 51h-52q0 -16 -10 -33q-12 29 -24 43l-13 -96q31 -12 49.5 -12t47.5 47zM381 51l47 66l-72 -35l15 -16z" />
<glyph unicode="F" horiz-adv-x="972" d="M289 1753l192 -22q23 0 78 16t74.5 16t53.5 -14t40 -14l43 20q18 6 30.5 6t58.5 -16t65 -19l20 -20q8 -142 8 -189t-16 -79l-107 2q-111 0 -147.5 -11t-69.5 -12l-90 21q-68 0 -96 -19q2 -14 2 -51l-12 -287q0 -68 43 -67l252 12q49 0 63 -26t14 -103t-18 -160h-348 q-4 -16 0 -35l-23 -18q37 -31 37 -98l-16 -70l10 -405q0 -66 -2 -80q-2 -37 -59 -37l-70 4l-131 -10q-61 0 -62 43v75q2 35 3 76l-7 455l11 612q0 213 -9 420q0 84 185 84zM903 1589l-14 51q-35 -29 -35 -40t2 -26t2 -20q2 2 45 35zM799 1565l30 30l-24 17l-39 -10z M709 1556l22 46l-10 14l-35 -27zM526 1612l-24 -6q-4 4 -4 6q-8 4 -52 16q4 -12 4.5 -15t-13 -18.5t-15.5 -23.5q10 18 57 20t70 4q-6 0 -23 17zM180 1614q-4 4 -12 61q-25 0 -25 -43t23 -43q14 15 14 25zM172 1520v20q0 12 -6 19l-25 -66h31q-2 2 -2 11.5t2 15.5zM420 915 l2 43l-66 -53q25 0 25 -24q19 18 39 34zM238 907v2q0 27 -15 41q-6 -14 -16 -28q11 -11 31 -15zM137 608q0 -10 41 -26q-16 -29 -16 -36t5 -32q9 -43 13 -51v-6q12 4 21.5 49t19.5 49l12 -14l9 16q0 29 -47 57l8 78q14 -6 22 -20l-10 -21q12 -12 23 -33l10 52q0 29 -17 41 q10 35 10.5 92t-22.5 67l2 -36l-14 8l-51 -51h28l19 22q-4 -45 -39 -90l6 -16l-6 -11q18 -25 24 -45l-18 -12q0 -8 4 -21l-22 -18z" />
<glyph unicode="G" horiz-adv-x="1177" d="M557 631l-4 104q0 63 18 68l21 -2q14 0 14 18q-51 20 -51 59t8 48q113 8 318 8q25 -10 91.5 -10t80.5 10q32 0 32 -76l-12 -383q0 -141 -65 -262q-127 -240 -473 -240q-146 0 -314 125q-129 139 -129 484v483l29 31l-27 30q-2 35 -2 60q0 223 140 406t360 184 q63 0 125 -21v-2l-15 -84q0 -6 5 -10l77 76l78 -56q102 -55 156.5 -184t54.5 -260q0 -8 -6 -88q-4 4 -6 4q-20 -25 -41 -25l-125 7l-98 -9l-23 27q2 8 2 25q0 279 -149 278q-135 0 -189 -108q-37 -76 -37 -232v-518q0 -137 29 -211q45 -104 166 -104q14 0 39 -29 q27 -27 35 -27l-131 -39l82 -6q0 -2 -21.5 -21.5t-21.5 -27.5t14 -15t14 -12q0 23 37 23l25 -23l71 15l-20 24q0 2 -19.5 8.5t-19.5 18.5t24.5 32.5t24.5 24.5l-4 -2q-2 0 -16.5 7.5t-22.5 5.5q2 2 2 15t-6 40q84 43 84 219q0 49 -6 117q-127 -4 -156.5 -4t-46.5 6z M762 1577v22q0 35 -12 52l-50 -21l-2 -63q23 29 35 28.5t29 -18.5zM969 1317l32 12l-28 51q-4 -61 -4 -63zM752 1421l32 119l-55 31q4 -16 4 -36t-18 -38l12 -43q13 -33 25 -33zM934 786q5 0 70 29l2 41q-14 2 -27 12q-16 -6 -37 -26l-37 -31l-2 -96q8 -20 37 -51 q-8 6 -8 18t7 30.5t17.5 38t10.5 21.5l-47 -14v2q0 12 14 26zM782 805q-12 10 -32 14l-2 -53q14 8 34 39zM893 612l53 -10q-35 39 -33 53q-20 -18 -20 -43zM901 227q0 6 -45 13l25 39l-109 -52q2 -2 10.5 -5t12.5 -5t9 -5q9 -5 9 -25t-12 -44l59 31q41 18 41 53zM354 463 l-24 20q-8 -33 -8 -62.5t14 -64.5v11q0 53 18 96zM420 209l20 10l-16 23q-4 -25 -4 -29v-4zM315 201q3 -3 9 -39q10 0 49 -51q33 62 86 82q0 4 -6 12q-25 -8 -37 -19q-20 -12 -27 -26v4q0 12 14 39h-4l-20 -10v18q-2 -4 -12 -14l-2 4q0 12 4 24q-4 4 -4 13t22 45h2l-29 45 q-6 -4 -18 -9l-16 9l-19 -29q0 -10 8 -16l11 4q-10 -57 -11 -82v-4z" />
<glyph unicode="H" horiz-adv-x="1183" d="M1075 332l6 -232v-69l-28 -35q-6 -8 -153.5 -8t-166.5 28q2 39 2 125l-4 379q0 107 2 154h-268q-23 0 -31 -25l4 -653l-276 -12q-14 0 -29 30l-22 43q2 53 2 172l-11 627l11 354l-7 244q0 205 19 256q12 31 45 37h61l154 10q18 0 29 -2q35 -29 35 -51q0 -262 -7 -713h88 q27 2 71 2t72.5 -6t41 -20.5t24.5 -16.5q2 27 1 91.5t-1 109.5l11 29q-10 14 -11 192v328q4 18 19 45q55 12 74.5 12t27.5 -10t17 -10t43 20h18l72 4q31 0 51 -27.5t20 -62.5l-8 -332l6 -710zM1030 1665v14h-20v-14h20zM1006 1622l10 31h-10l-11 -25zM915 1636l21 27l-10 8 l-21 -26zM991 1651q-18 2 -49 16l2 -10q0 -18 -35 -35l-4 -88q25 10 27 59q16 -12 22 -14q14 6 27 18l-4 19q0 19 14 35zM958 1520l29 8l-16 20q-13 -8 -13 -28zM893 1616q0 14 -45 14l-17 -10q16 -23 35 -33q15 13 27 29zM969 1438h10l-8 28l-13 -4zM918 1464l12 21l-12 4 l-11 -21zM903 1430h37l-29 14zM315 1604q15 -3 16 -11t27 -45q7 41 50 31v12q0 23 -7 62l-30 -25q-27 31 -34 31t-36 -21.5t-39 -21.5l6 2q-14 16 -61 27q-6 -14 -17 -66q4 14 19 29q4 -20 4 -27.5t-4 -28.5l27 -49q18 33 14 56q10 8 45 51l20 -2v-4zM371 1489v29h-15 l-6 -45zM242 1423l28 47l-8 9l-41 -25zM176 1378l29 33v33l-27 -21zM188 1354l23 10l-2 31l-19 -31zM197 1319l24 -29l-10 49h-14v-20zM948 887l2 76l2 8q0 47 -16 53v31q-18 -2 -18 -21q0 -4 4 -24l-25 6q0 20 -12 31l-8 -43l22 -7l-22 -22v-12q0 -53 -23 -55.5t-25 -2.5 q18 -33 39 -90l21 6l8 -2l-10 -8q-20 -55 -21 -231q0 -14 7 -84t-1 -95q12 -27 7 -82l-60 -63l17 -10q16 12 38 22l13 -6q-2 -2 -15 -51q18 -6 13 -39q16 16 35 16l-9 17q2 20 21 90v8q2 33 -14 74q8 6 32 31l-16 163h-8q-27 27 -27 52q8 16 33 30q-10 2 -39 15q6 16 29 49 q4 -29 4 -45q12 8 12 78q0 11 23 120zM217 1264l-14 18l-10 -59q14 16 24 41zM485 852l2 43l-47 -37l-2 -27l6 -14zM911 86h13v61l-21 -32zM829 92l35 8q-18 33 -16 119l-37 -45q23 -29 23 -45l-3 -6q0 -4 -1 -12.5t-1 -18.5zM205 774l-6 21l-23 -11q11 -10 29 -10zM254 586 l2 28h-12l-2 -28h12zM381 612h-43l-2 -16l2 -29v-47q2 -20 2 -47v-41q0 -14 -10 -49q39 -8 43 -8v43q-32 32 -8 69l-5 11v45q-2 10 -2 31.5t23 37.5zM301 463l23 8l-5 10l-18 -8v-10zM217 510l10 74q-14 0 -28 6l2 18q31 14 30 35q-18 8 -28 19q10 10 22 26q-23 12 -30 33 l-21 -41q0 -86 -12 -256q18 -47 14 -78q10 -10 27 -10q14 6 24 20q-18 4 -20 13q22 16 57 28l17 -4l-9 35q-14 -39 -53 -39l-12 4q14 10 29 76l12 6q-31 0 -31 35zM383 254l2 74q-12 16 -27 30l7 -16q-37 -29 -39 -63q22 -11 57 -25zM338 238l12 20l-12 4l-10 -20zM213 299 l14 8q0 16 -12 29zM319 152l-38 86q-20 -16 -35 -17q14 -6 20 -20l-6 -29l25 6l12 -10l-31 -33q37 1 53 17zM950 1645h13v-27h-13v27zM911 961v-17q-12 6 -22 17l18 12zM897 928l27 -23l-37 -39l12 33zM932 872l2 -45l-14 19v26h12zM913 784l19 -10q-14 -12 -31 -18 q4 20 12 28z" />
<glyph unicode="I" horiz-adv-x="602" d="M479 205l4 -148q0 -57 -19 -57l-153 -12q-35 0 -41 2l-57 43q-14 0 -35 -33q-10 0 -21 -1t-28 15q8 223 8 392l-8 358l4 745l-10 146q0 98 43 98l63 -6l152 6q88 0 88 -65l8 -181l-12 -135l10 -168l-2 -65q-2 -166 -6 -312v-6l8 -129q0 -12 -12 -24l12 -21l-22 -18h4 q16 0 16 -13v-14l-6 4h-33l12 -22l27 -2q0 -125 6 -377zM319 1522l5 10l-29 10v-10zM340 1479q-23 -20 -27 -41q8 8 25 14q2 9 2 27zM395 1470q-39 0 -39 25q-2 -33 -28 -74q-2 -25 -6 -121l18 7l10 -11q-14 -14 -20 -26q25 0 37 -17l22 19l-16 90q-18 14 -41 24v29 q23 4 39 25.5t24 29.5zM348 1225q2 -2 8 -31l9 4q10 -2 18 -10q-10 31 -12 57q-23 0 -23 -16v-4zM317 1217l11 20l-13 4l-8 -18zM332 1184v12h-21v-12h21zM354 1120l21 8q-6 16 -8 21q-13 -11 -13 -29zM334 1053v8q0 25 -8 57q-8 -20 -19 -65h27zM385 1034l-12 4 q-16 0 -31 -14q25 0 35 -10q8 16 8 20zM399 987l-57 10l18 -26q21 10 39 16zM393 887h13l-11 22l-10 -4zM401 760v26h-12v-26h12zM377 823v11q0 6 -2 20q-11 11 -23 29q0 4 19 53q-14 12 -72 78v-6q6 -14 16 -76q6 4 27 8l16 -4q-33 -14 -45 -41q14 -4 23 -14v-4l-23 -11 q-4 -20 -10 -28l8 -35q0 -12 -16 -41l6 -23q-16 -43 -16 -146t4 -157q6 55 10 82h2q16 0 18 -18t3 -47q16 6 20 8v35l-12 4l4 4l14 -8q10 25 19 59l-17 -8v4q0 10 8 24q-6 14 -6 55t13 105l-15 -6l-6 2q18 8 14 45q8 12 11 25l-4 12zM422 602v2q0 20 -10 27q-4 -25 -9 -35z M414 547l10 20l-10 4l-13 -18zM383 524l8 6l-10 13l-8 -8zM324 274l12 56l-12 80l-19 -103zM340 1360l20 -23h-28q4 7 8 23zM328 713v-6q-4 2 -21 8l10 20q11 -10 11 -22zM324 664l4 -11l-23 -10v12zM311 616h13l-11 -28l-10 4zM311 555h15v-20h-15v20z" />
<glyph unicode="J" horiz-adv-x="1136" d="M969 1747l24 4q12 0 26.5 -15.5t14.5 -27.5v-375q-2 -166 -2 -292.5t2 -166.5v-129q-27 -16 -51 -45q45 13 51 7q-2 0 -2 -19q0 -342 -108 -512q-137 -209 -461 -209q-172 0 -322 119q-49 37 -80 134t-30 181q0 29 26 23l-24 43v53q2 2 44 2t52 8h6q2 0 9.5 -11t15.5 -11 q35 20 64 23q64 6 118 -1q6 -23 6 -59q0 -205 172 -205q184 0 185 389v76q-11 189 8 266q0 2 12 18.5t12 26.5q-29 12 -30 56l2 41l-7 262q0 176 -4 311q4 8 21.5 19.5t19.5 15.5h27l143 12q16 0 25 -6q2 2 6 2zM961 1677v15h-21v-15h21zM936 1634l12 31h-10l-12 -25z M854 1657l6 33l-10 8l-19 -27zM924 1663q-16 2 -52 16l2 -10q0 -18 -34 -35l-2 -88q20 8 26 60q12 -12 21 -15q16 6 28 19q-15 20 11 53zM889 1532l31 8l-19 21q-8 -9 -12 -29zM823 1628q0 14 -45 14q-6 0 -16 -10q14 -20 37 -33q12 13 24 29zM899 1450h10l-6 29l-14 -4z M850 1477l10 20l-12 4l-8 -20zM834 1442h36l-28 14zM782 414l-14 -52q16 -6 16 -18t-2 -20q16 16 35 16l-10 16l12 62l6 24q2 2 2 9q2 -2 2 -5v7q0 37 -16 75l31 11q16 6 24 20q-35 23 -34.5 66t30.5 57q-29 31 -26 51q10 18 30 31q-10 2 -39 14q14 29 29 49q4 -29 4 -45 l37 199l-14 16q6 76 6 113.5t-17 44.5q-14 27 -14 31q-25 -2 -24 -19q0 -14 22 -26l-22 6q0 20 -25 31l2 -43q14 0 23 -7l-21 -22v-10l-14 -115q0 -8 3 -29.5t3 -25.5l18 6l9 -2l-9 -8q-23 -61 -22 -168l16 -66q-33 -39 -33 -74l2 -61q9 -19 -4 -47l-10 -35q-10 -14 -59 -63 q6 -2 18 -11q23 23 36 23t13 -6zM782 195l35 8q-6 10 -6 44t2 58h-29q20 -24 7 -74zM770 129l2 47l-20 -22l6 -25h12zM608 96l2 78q0 12 -16 33q-12 -18 -23 -29l-12 15v-31q-12 4 -27 31l-34 -29q14 -4 22 -12l-16 -17q12 0 22 -6q-6 -2 -22 -18q25 -12 20 -31h27 q8 35 20 76q16 -10 16.5 -36.5t-9.5 -37.5q16 0 30 14zM293 285l2 73l-25 31l4 -16q-37 -29 -38 -64q22 -10 57 -24zM416 92h35q-12 8 -15 17q2 10 2 28v13q0 68 -63 67q-4 0 -15 -2q16 -39 25 -111q16 20 27 29q4 -10 8 -27zM250 268l10 21l-12 4l-8 -21zM125 330l14 8 q0 16 -14 29v-37zM291 182l-37 86q-23 -16 -37 -16q14 -6 21 -21l-7 -28q14 0 27 6l10 -10l-30 -33q37 0 53 16zM883 1657h12l-2 -27h-12zM850 1051l4 -35q0 -12 -16 -29v10q0 12 -9 21q12 12 21 37v-4zM842 950v-16q-12 6 -23 16q8 8 19 13zM852 885h12v-27h-12v27z M825 901l23 -18l-29 -27l10 33zM866 764q-6 2 -18 10q-10 -10 -10 -29q10 5 28 19z" />
<glyph unicode="K" horiz-adv-x="1169" d="M1016 1741l55 6q35 0 53 -25q-55 -102 -127 -317t-112 -301l6 12q-78 -193 -113 -219q-6 -4 -16 -29q8 -8 22 -16q63 -37 152.5 -291t175.5 -469q16 -43 16 -63q0 -35 -28 -35l-160 -6l-133 6q-2 -2 -6 -2q-23 0 -35 49q29 16 104 18l-118 21q0 6 -15 49 q-57 205 -205 522q-35 78 -102 78q-4 -12 -4 -21t4 -30q-20 -33 -20 -408v-106l8 -158v-22q-53 -4 -84 -4l-193 6q-35 45 -35 47l-4 1636q0 68 56 82q25 4 108 4q35 0 13 -67q4 0 16 31.5t47 31.5h23q10 2 20 2q51 0 51 -43l-4 -137q-4 -176 -6 -369l-2 -65q0 -70 5 -105 t60 -55l-49 -33l39 -57l25 26l-8 23l55 27l-31 43l25 22q25 35 246 688q8 25 116 25h56q23 -2 53 -2zM965 1509l2 41q-27 -20 -78 -47q2 -2 2 -10t-9.5 -35.5t-9.5 -36.5q32 53 93 88zM831 1346l23 57q-27 -18 -39 -51zM793 1284l24 41h-41l-2 -41h19zM725 1221l25 65 l-48 -20v-19zM276 1595l13 70l-17 6l-14 -29zM301 1061l31 135l-27 41l-16 -160zM281 1225l12 55l-33 -18l-20 -37h41zM700 766l7 16l-41 15l-2 -17zM287 1208q-12 6 -25.5 6t-28.5 -14l-2 -39q17 20 56 47zM631 772l14 72h-18l-15 -72h19zM537 791q0 5 -16.5 10.5 t-18.5 12.5t2 67q-29 -14 -33 -70q-39 -31 -39 -47v-2q43 -4 43 -17q15 34 62 46zM766 492l2 18h-41l-2 -18h41zM969 207v41q-20 10 -58 47q0 -25 -18 -41q12 0 39 -18zM238 924l2 18h-31l-2 -18h31zM309 1356q4 16 10 46t-16 46q10 35 10 92.5t-22 67.5l2 -37l-14 8 l-52 -51h29l18 22q-4 -45 -38 -90l6 -16l-6 -10q18 -25 24 -45l-18 -13q0 -8 4 -20l-23 -19l-14 9q0 -13 41 -27q-16 -29 -16.5 -35t2.5 -14q16 4 57 22l12 -14l8 16q0 29 -47 58l8 78q14 -6 23 -21l-10 -20q12 -12 22 -33z" />
<glyph unicode="L" horiz-adv-x="964" d="M920 240l14 -179q0 -33 -16 -61l-783 -6q-33 20 -33 55l13 244l-4 207q-2 74 -5 221l19 35q16 0 16 35q0 4 -7 4t-9 2v24l-19 -12l5 49q25 0 26 -6q-2 8 -2 20t15 19l-13 51q0 6 9 6t18 -12l10 -21v46v10t-11 11t-20 17q-2 12 -2 39t9 43q-10 41 -11 74l13 139 q0 69 -23 95l8 2l17 -7l6 56l-13 84l-18 22q10 6 18 6l-8 43q-10 -10 -10 -30l-16 20q0 113 4 125q-4 8 -4 12q0 29 120 29h68q31 -2 70 -2q84 0 84 -125v-37q-2 -16 -2 -37l4 -557q0 -283 -8 -461l-13 -12l-12 2l-16 -10q16 -6 16 -33.5t-8 -36t-8 -10.5l4 -2 q-8 -2 -19 -27q12 -2 8 -16l17 35q6 -6 10 -13.5t2 -7.5l-4 5q6 14 23 30q-7 -39 6 -53l-6 -72q33 -20 42.5 -20t16.5 2q51 -10 94 -10l252 8h39q27 -14 27 -51zM133 1245q-6 -2 -2 -10t0 -10q4 0 -12 -21l-6 -6l2 70q8 -5 18 -23zM332 682l18 63l-35 -38q7 -7 17 -25z M838 94l12 10l-29 29l-10 -12zM403 535l-22 16l8 18l-22 -6l-7 2l29 25l-55 28q6 8 6 33q-12 -2 -37 -10q6 -2 19 -14v-4q0 -8 -5 -29l25 6l12 -4q-10 -14 -55 -59l45 -23l-8 -14l6 -13q16 21 16 48h45zM358 487l-10 -12v-33q10 25 10 45zM444 319v29q-4 10 -10 29l-4 -31z M330 412l10 10l-14 18l-13 -12zM272 371l56 16q-25 0 -25 27h-41zM489 150v40h-18v-40h18zM473 106l66 11q0 20 -11 30q-32 -18 -55 -41zM276 301q-16 -4 -28 -12l-2 -74q30 49 30 86zM342 1206l14 56l-18 45l-10 -68zM358 1085v19q-6 18 -16 57q-10 -72 -10 -90l2 -10z M334 973l37 78h-29zM332 813l14 43l-10 84l-12 -98z" />
<glyph unicode="M" horiz-adv-x="1593" d="M1147 1753l301 -4q49 0 49 -61.5t-18 -71.5q-16 -6 -17 -33q0 -27 13 -31q14 0 14 -28l6 -1172l-4 -215q0 -104 -16 -127q-23 -14 -78 -14l-117 4q-2 0 -6 25.5t-12 25.5t-16.5 -25.5t-12.5 -25.5l-53 -4q-55 0 -56 55l19 266l-4 271q0 133 2 172l12 106q10 76 10 125.5 t-2 81t-16 31.5t-12 -12q-14 -47 -68 -301.5t-86 -445.5t-45 -296q-4 -68 -84 -67l-62 12l-4 -12l-20 16q-20 -12 -27 -18l-57 6q-4 4 -4 32.5t-10 42.5v9l12 69q0 8 -4 8l-21 -16q-41 158 -88 383q-16 106 -78 408q-14 63 -45 161q-4 6 -8 7q-8 0 -24 -23q14 -29 14 -127 l20 -205v-233q0 -76 -3 -81t-3 -18l2 -49l2 -22v-66q-4 -8 -4 -45l4 -125l-10 -69q0 -35 -121 -35h-96t-67.5 4t-29.5 6t-7 20.5t-5 26.5h11q10 0 12 8q-12 12 -18 23l-9 78q10 37 11 110l8 228q0 49 -2 75l12 21q8 8 8 29.5t-12 23.5q-12 6 -12 37l6 922q0 125 67 135 q82 12 181 10h94q74 0 94 -12q35 -16 35 -71.5t19 -117t34 -108.5q-8 -25 -14 -90q18 -31 18 -39t-12 -25q4 -4 33 -18q2 -8 2 -32t-17 -40q8 -6 19 -18q2 -31 20 -89t23 -79q-14 0 -39 -6q33 -16 47 -27q4 -4 6 -70q-27 45 -55 70q-4 -20 -4 -33.5t34.5 -54.5t36.5 -45 l-32 -33q-6 -8 -6 -47l14 -6l10 8q4 -16 4 -29l-16 15q-26 -26 -10 -76q10 -8 30 -8q37 0 37 47q0 14 -2 24q10 6 49 21q0 2 2 7t8 26l19 2l-2 -35l-17 -15h25v-12h-29v8l-32 -30q8 -4 14 -4q20 0 20 22q-4 -31 19 -31q-4 4 -4 7.5t4 7.5q4 -16 10 -23l-2 -2q-12 0 -18 -8 l10 -16h-8l-31 -2q-4 -6 -8 -25l6 -2l12 4l19 -21h-72v9l-10 4q-8 0 -35 -6.5t-35 -6.5l43 -36l-31 6q6 -29 4 -107q10 12 23 21l-29 -35v-4q-2 -16 15 -31q-6 -16 -17 -26q2 14 -10 30l-6 -18q14 -25 39 -49q12 29 24 82l-4 -9l13 7q2 4 2 13t-2 19l-9 6l2 9l7 -15h-17 l39 29v-23l76 -8q-2 -20 -19 -20l-20 -21q23 -37 43 -53v-39q-18 10 -27 23l-12 -19q8 -8 29 -41l-39 -20q18 -18 33 -72q12 4 43 29v24q-10 -4 -17 -12h-28l16 21q39 6 39 55q0 23 -20.5 44t-20.5 28l10 -3q14 0 27 7q-10 10 -21 12q14 25 27 55h-12l-7 10l13 9 q18 29 18 71l-18 54l10 12l10 2q-2 4 -2 19t23 34l4 96q-10 12 -45 47q20 0 33 -12l12 27q4 10 28 20q-37 16 -84 47q25 -4 33 -4l6 11l2 36l27 5v36q0 14 -24 27l-9 27q29 -11 58 0q0 6 -27 26q0 4 -1 21.5t16.5 59.5t37.5 48l-10 6q-12 -4 -16 -10q4 4 14 25l-14 -2 l-11 14l-28 -6q4 29 59 63l-8 19q-12 -12 -18 -15q-15 56 3.5 130.5t18.5 101t29 158.5q14 63 135 63zM883 686l4 -10l-21 -10v12zM883 664l2 -11l-21 -10l2 12zM752 582q24 12 45 26q23 0 43 -18l-2 -21q18 -16 51 -45q-25 8 -30 10.5t-1 6.5q-35 0 -55 -45q0 4 -1 12t9 29 q-16 4 -27 4h-4l-20 -15q10 29 16 47q-14 8 -24 9zM825 438h23v-12h-23v12zM1356 1532l10 37q0 12 -8 14q-6 12 -19 19q-2 18 -18 53l-10 -15l-15 9q-4 -63 -4 -72.5t17 -42.5l-6 -18l4 -17l49 23v10zM1171 1575l-16 20q-27 -16 -49 -51q20 15 65 31zM1288 1386l4 11l-28 10 v-10zM1159 1454q10 52 10 67t-18 38l-21 -105h29zM1288 1343q-25 -20 -24 -40q4 8 22 14q2 8 2 26zM1118 1458l4 10l-43 17v-10zM1343 1335q-20 0 -16 25q-12 -29 -51 -74q-2 -25 -6 -121l18 6l10 -10q-14 -14 -20 -26q27 0 37 -17l22 19l-16 90q-18 14 -41 24v29 q23 4 37 20q18 27 26 35zM1135 1358l22 8l-4 10l-16 -8zM1159 1270l2 49q-8 18 -31 39h-34v-10q0 -25 6 -70q43 -6 57 -8zM1331 1053q-10 31 -12 57q-23 0 -23 -16l2 -4q0 -2 2.5 -11.5t4.5 -19.5l8 4q10 -2 18 -10zM1268 1110l12 20l-12 5l-11 -19zM991 1352l10 28h-10 l-12 -24zM1139 1243l-29 25q0 -37 -10 -74q21 26 39 49zM1280 1049v12h-20v-12h20zM981 1321l18 18l-8 7l-18 -17zM1303 985l20 8l-6 21q-14 -9 -14 -29zM981 1268l23 8l-5 10l-18 -8v-10zM1282 918v8q0 25 -8 57q-8 -20 -19 -65h27zM1335 899l-14 4q-16 0 -31 -14 q25 0 35 -10q2 8 10 20zM1327 852l-37 10v-26q21 10 37 16zM1321 752h12l-8 22l-12 -4zM578 1438l18 32q-14 0 -16 13zM465 1575q-18 4 -14 53q-18 0 -33 -14q-10 23 -25 22l-6 -39q-16 -10 -27 -24q12 -10 29 -29q-8 -8 -10 -16l4 -10q21 10 82 57zM471 1554 q-37 -27 -45 -34q35 1 45 34zM1329 625v26h-12v-26h12zM1362 543h29l-11 20q0 -18 -18 -20zM592 1264l10 43h-12l-10 -43h12zM1229 383q20 0 20 -66q16 6 21 9v34l-10 5l4 4l12 -9q10 25 18 60l-16 -8v4q0 10 8 24q-6 14 -6 57t14 103l-16 -6l-6 2q18 8 14 45q8 12 10 25 l-4 12l13 10v31l-25 29q0 4 18 53q-27 35 -51 78l-4 -82q6 4 27 8l16 -4q-33 -14 -45 -41q14 -4 23 -15v-4l-23 -10q0 -14 -10 -29l8 -34q0 -12 -16 -41l8 -23q-18 -39 -18.5 -144t4.5 -159q6 55 10 82h2zM1374 444v27h-12v-27h12zM1350 467v2q0 20 -11 27q-4 -25 -8 -35z M283 1509l10 21l-10 2l-11 -19zM254 1548q-18 25 -55 51l-2 -51q12 -6 22 -16q12 20 35 16zM266 1530l2 12h-26l-2 -12h26zM1341 412l11 20l-11 4l-12 -18zM217 1501l8 6l-12 13l-8 -9zM1311 389l8 6l-10 13l-9 -9zM248 1399q-8 33 -33 57v-35q17 -22 33 -22zM547 1053l2 28 h-12l-2 -28h12zM260 1343v13l-35 -8v-15zM379 1257l39 39q-2 0 -12 6q-22 11 -39 11q-2 14 -37 14v-12q0 -27 2 -49q-8 -10 -15 -31q10 -10 35 -14q10 -14 10 -39t-32 -52q10 -14 43 -32l2 28l-15 4q18 8 37 21l-16 43l6 4l-16 14q12 8 39 31zM215 1282l23 10l-2 11l-21 -11 v-10zM332 1178l10 6l-18 20l-9 -8zM1260 240l12 28h-12l-11 -24zM262 1141l-55 -11q23 0 43 -12q8 13 12 23zM188 1139l23 10l-4 10l-19 -8v-12zM223 1108l-26 18q6 -68 4 -79q2 18 22 61zM700 367l9 6l-11 12l-8 -8zM834 180l8 13q-6 14 -17 24l-8 -29zM735 322 q-18 0 -35 16q0 -35 -10 -59q31 16 45 43zM731 246v12h-35v-12h35zM705 219v21h-15v-21h15zM727 197v20h-14v-20h14zM356 399q0 29 -16 41q10 35 10 92.5t-22 67.5l2 -37l-17 8l-51 -51h29q6 4 20 23q-4 -45 -39 -90l7 -17l-7 -10q16 -27 25 -45q-12 -6 -18 -12q-2 -8 2 -21 l-21 -18l-16 8q0 -12 43 -27q-19 -34 -15 -49q20 4 56 23l14 -15l6 17q2 29 -47 57l10 78q14 -6 21 -21l-8 -20q14 -14 20 -33zM330 209l20 8l-4 10l-16 -8v-10zM356 137l-22 17l6 18l-16 -6l-7 2l25 25l-51 28q4 8 8 33q-14 -2 -39 -10q6 -2 19 -15v-4q0 -18 -3 -28l25 6 l12 -4l-55 -60l43 -22l-8 -15l8 -12q12 16 16 47h39zM1309 1202h-29q4 6 8 23q17 -17 21 -23zM1255 578v-7q-4 2 -20 9l12 20q8 -8 8 -22zM1251 528l4 -10l-22 -10v12zM1239 420h14v-21h-14v21zM307 481l8 -4l-10 -20l-10 6z" />
<glyph unicode="N" horiz-adv-x="1267" d="M1049 1745l90 6q20 0 20 -31q0 -4 6 -24q-18 -90 -22 -279l2 107v-643l-4 -353l12 -112q4 -123 4 -254.5t-10 -149.5t-47 -18l-70 4q-29 -4 -88 -12q-35 8 -45 20t-126 266.5t-116 276.5l13 41q0 18 -15.5 42.5t-26.5 24.5t-20 -6l-151 361l-25 -19q4 -12 4 -26l-14 -207 l8 -373l-20 -174l24 -133q0 -18 -7 -47t-7 -33q-12 2 -35 2l-145 -8q-111 0 -134 37q-2 14 -2 53l9 596l14 76q16 0 16 35q0 4 -7 4t-9 2v24l-19 -12l5 49q25 0 26 -6q-2 25 -8 31t0 8l-12 51q0 6 9 6t17 -12l11 -21v46q0 8 2 10q-2 2 -13.5 11t-19.5 17q-2 12 -2 39t8 43 q-4 10 3 40t7 34l19 102q0 12 -19.5 34t-21.5 28l-8 70l8 2l16 -7l-27 66l15 57l-12 39q10 6 18 6l-8 43q-10 -10 -10 -30l-3 84q0 57 29 96q41 8 176 8h4l9 -33q8 37 38 37q49 0 76 -15t55.5 -109.5t76.5 -195.5t75 -153l131 -303h8q16 0 17 20l22 693q0 16 18.5 35.5 t32.5 19.5l76 6zM106 1163l-4 99q3 38 11 22q10 -4 26 -27q0 -8 -10 -43q0 -33 -20 -53q0 -14 -3 2zM1106 1610q-10 -8 -57 -86q27 0 26 -25q11 45 31 111zM975 1620l12 10l-16 17l-10 -11zM1102 1270q0 29 -17 41q10 35 10.5 93t-24.5 66l4 -36l-16 8l-51 -51h28q8 6 19 22 q0 -45 -37 -90l6 -16l-6 -11q16 -27 24 -45l-18 -12q-2 -6 2 -20l-20 -19l-17 8q0 -12 43 -26q-16 -29 -16 -35t2 -14q20 6 55 22l14 -14l7 16q2 29 -47 57l8 78q16 -6 22 -20l-8 -21q14 -14 21 -32zM1047 1108l20 8l-2 10l-18 -8v-10zM1120 958l-22 17l6 18l-17 -6l-6 2 l25 25l-51 28q4 8 8 33q-18 -2 -37 -10q2 0 16 -14v-4q0 -18 -2 -29l25 6l12 -4l-55 -59l43 -23l-8 -14l8 -13q12 16 16 47h39zM322 1690q-12 -2 -33 -15q14 -29 22 -49q11 37 11 64zM565 1296l-67 160l-19 -35q6 -43 65 -103q17 -16 21 -22zM293 1538l20 -65l-2 116l-14 23 zM1055 674l10 184q-8 -57 -21 -106q-14 -14 -14 -24.5t25 -53.5zM1010 203l-27 26q-4 0 -8 -6l-2 2q-12 0 -15 -63l-6 4q-12 0 -16 -60q10 0 35 16.5t35 18.5l6 64zM915 190q-6 2 -8 63.5t-16 76.5l-19 -119q35 -23 29 -49q2 12 14 28zM305 526l14 56l-18 45l-10 -68z M322 406v18q-6 18 -17 57q-10 -72 -10 -90l2 -10zM297 293l37 78h-29zM295 133l14 43l-10 84l-12 -98z" />
<glyph unicode="O" horiz-adv-x="1179" d="M92 698l6 308q0 236 8 309q18 199 87 287q8 8 22 13t18 9l9 -31l14 -4q-6 -14 -14 -14h-2q-4 0 -4 -6l16 -21q-23 -12 -23 -26q0 -27 31 -29q-14 -23 -31 -68l7 -6q-2 -47 -3 -47q0 -33 68 -53l-16 31l18 12l-45 59l16 35l-4 23l21 12q16 45 16 78t-10 59l29 47l-25 11 q20 41 127.5 60t187.5 19q317 0 414 -219q60 -135 60 -495q0 -113 -35 -189q27 -25 26.5 -34t-26.5 -15l26 -31l4 -221q0 -455 -256 -563q-74 -33 -260 -33q-289 0 -399 238q-78 168 -78 495zM961 1593l-64 13l6 -17l-26 -22l-3 41q27 16 29 43q-6 2 -20 2t-25 -8l6 -132 q18 12 41 48q14 -4 33 -15q3 18 23 47zM1036 1165l13 64l-19 69q-35 -81 6 -133zM1028 1061l21 39l-9 39l-18 -43zM1036 885l29 76l-25 81q-6 -10 -9 -52t-13 -42q16 -20 16 -38.5t2 -24.5zM778 592l4 446q0 418 -168 418q-188 0 -188 -414l4 -323l-4 -166q0 -297 176 -297 t176 336zM254 977l4 35v26l-10 11l22 38h-2l8 43l-6 9l21 2l-23 12l-12 12l16 9l13 -17l16 17q-14 20 -14 65h-13q5 4 17 33l16 2l-65 59l16 -43l-31 -28l45 6q-27 -14 -57 -45l35 -15v-4l-39 6l20 -90h15l2 -2v-10l-60 16l54 -37l-4 -2l-9 -30l19 -27l-25 -24v-62zM932 170 v41q-4 4 -41 33q0 -25 -14 -39zM834 254l14 31l-17 4l-14 -29zM258 858l27 103l-21 -9l-12 6l-31 -30l25 -54l-19 -81l27 -156l22 156zM877 137q-45 18 -46 51l5 48l-11 2l2 -19q-12 -47 -12 -51q0 -35 39 -35l2 2q4 0 9.5 1t11.5 1zM791 266l-7 23l2 22v4q-53 -57 -53 -96 q0 -27 39 -24h4q3 8 15 71zM836 92l12 4l-19 31v-25zM752 78l18 57l-16 -2l-19 -47z" />
<glyph unicode="P" horiz-adv-x="1148" d="M614 1745l66 12q201 0 319 -178q109 -158 109 -365q0 -262 -144.5 -408.5t-406.5 -146.5q-53 0 -104 7v-148l-4 -338q0 -66 4 -168q-49 -25 -148 -24l-129 4q-74 0 -74 188q0 47 21 56l31 18l-41 12q-6 6 -7 17l3 301q20 35 20 219l-14 444l8 264l-17 58q2 2 8.5 2t34 -6 t35.5 -6l-61 43q-2 18 -2 31t12 81l94 33q43 16 154 16l113 -20l65 12zM905 1503v19h-41l-30 -17zM774 1536l33 23l-74 -5v-18h41zM680 1530l29 26l-33 29l-80 -14v20q4 59 -45 72q-43 -41 -49 -90q12 23 37 22q2 0 14 -4q-27 -14 -43 -47q47 -49 61 -49t28.5 30t27.5 38 q16 0 53 -33zM885 1069l33 14l-9 15l-24 -13v-16zM930 942q-6 14 -10 39h-41q18 -39 51 -39zM328 1606q-2 -2 -9 -2l-18 16q0 -10 -8 -53l-19 6q-20 0 -20 -25q0 -6 15.5 -21.5t15.5 -17.5l12 4l20 17q-2 2 -2 10t6.5 34t6.5 32zM950 852l2 41h-4q-20 0 -41 33h-37 q14 -10 17 -17q-20 -37 -33 -82q8 27 51 27h23q10 -2 22 -2zM580 915l53 -18l10 12l-2 13q-31 0 -66 18q104 0 156 80q49 70 49 171t-53 179q-6 10 -31.5 24.5t-29.5 18.5q-59 27 -109 27h-74q-6 -8 -14 -38t-10 -40t-2 -240l-17 -128q0 -17 15 -38q29 -18 82 -18l-48 -35 q-14 0 -24 10q-4 -33 -27 -75l58 32l4 -12q0 -7 -17 -35q18 8 41 37q8 -12 35 -12l10 12l27 -14q14 0 31 8q-23 16 -23 31l-18 -4l-21 10l13 24h2zM770 952v29h-18v-29h18zM504 770l4 4l-19 4zM481 780l-43 -8q-12 0 -16 4l6 4q-6 23 -22 23q-20 -10 -23 -25l10 -49h58 q39 0 51 31l-33 -8l-10 4zM346 801v20h-29v-20h29zM399 668v18h-30v-18h30z" />
<glyph unicode="Q" horiz-adv-x="1179" d="M96 680l-4 276q0 328 47 488q82 270 326 317q72 12 145 13q197 0 289 -80q188 -165 188 -652q0 -57 -2 -102v-104q0 -12 -14 -33t-14 -36t8 -17q4 -4 16 -15l4 -80q0 -254 -100 -452q-76 -147 -254 -211v-6q0 -20 45 -97l21 -14l-4 -10l6 -12q66 -57 127 -66q8 -23 8 -45 v-4q-4 -4 -4 -19q-78 -47 -172 -120h-33q-20 0 -57 23.5t-83 79.5t-46 101l6 23q0 6 -18.5 15t-20.5 14l-10 53q-10 47 -27 55q-2 2 -68 14q-156 31 -245 234q-59 141 -60 469zM852 1577l2 41q-20 20 -39 35q-4 -27 -16 -39q14 -14 53 -37zM856 1487l14 29l-16 6l-14 -29z M831 1368h64q-39 6 -45 45l-4 60q-7 -19 -15 -105zM840 1307l12 10l-16 18l-13 -12zM823 1137l37 67l-12 76q-6 -10 -17 -29q-12 -16 -26 -16zM428 788l-6 -288q0 -139 67 -193l43 -33q16 -8 58 -8q117 0 155 137q18 68 26.5 307t8.5 392.5t-20 222.5q-41 139 -150.5 139 t-154.5 -131q-35 -98 -35 -217zM209 1186l18 63h-43q13 -28 25 -63zM281 1038l-23 17l8 18l-22 -6l-6 2l28 25l-55 28q6 8 6 33q-12 -2 -37 -10q6 -2 19 -15v-4q0 -8 -4 -28l24 6l12 -4q-10 -14 -55 -60l45 -22l-10 -14l8 -13q17 20 17 47h45zM784 383v18l-16 -16l-2 -35z M754 264l22 39q-14 8 -18 23q-37 -35 -37 -107q0 -14 22 -14q29 33 29 45t-18 14zM741 135q-4 14 -10 41l-12 -74l16 -8zM717 12l37 4q-2 10 -21 52zM573 182h-65q6 -4 10 -14q-2 -6 -14 -6l-19 18q23 23 23 47q-29 0 -43 -12q16 -68 29 -129q23 29 24 68q14 -8 43 -23 q0 16 12 51zM535 0l2 41h-21l-2 -41h21zM559 -84v21h-41v-21h41zM778 -240h-65l8 -12l-12 -6l-19 16q23 23 23 49q-29 0 -43 -14q6 -17 26 -129q20 31 25 68q14 -6 43 -21q4 39 14 49z" />
<glyph unicode="R" horiz-adv-x="1161" d="M584 1726l55 23q221 0 330 -152q96 -133 96 -362q0 -135 -32 -232t-130 -176q-51 -31 -110 -73l12 -13q68 -53 108.5 -122.5t65.5 -134t64.5 -190.5t76.5 -286l-4 12q-25 -39 -78 -38l-209 6q-59 0 -73 30l-21 84q-39 145 -88 349q-84 256 -180 256l-2 -2l-14 -3 q-23 -45 -23 -620l-8 -92q-63 -8 -182 -8h-119q-10 27 -10 55v498l-7 434q0 102 9 608q2 76 12 106q18 55 78 56q16 -53 30 -53t17 61l276 10q6 -31 60 -31zM641 1602l6 16l-43 12v-16zM571 1608l15 51h-19l-16 -51h20zM825 1346l17 28l-17 6l-16 -28zM838 1282l2 41h-19 l-2 -41h19zM446 1122l-8 -82q0 -47 33 -61q35 -2 61 -2q131 0 177.5 78t46.5 211t-64 164q-18 8 -74 23t-60.5 15t-90.5 -16l-29 -31v-63zM272 1446l62 88h-17l-67 -59zM252 1503l37 25q-31 -6 -51 -19zM211 1368q62 -49 76 -35q-4 0 -17.5 47.5t-33.5 46.5q-18 0 -11 33 l-26 6q14 -49 12 -98zM233 1309l21 18l-57 25l-4 -43h40zM233 1282l-53 10q37 -39 35 -53q18 18 18 43zM264 1217q-12 6 -25 6t-28 -15l-2 -39q22 23 55 48zM498 889l16 29l-16 6l-17 -29zM231 1075l2 68l-32 -49v-19h30zM506 879q-33 -14 -33 -50q0 -2 12 -81q19 25 21 131 zM750 510v18h-41v-18h41zM950 195v41l-4 2q-2 4 -7 8t-11 11t-16 17l-19 19q0 -35 -16 -51q12 0 36 -19zM223 930l15 55l-19 45l-10 -67zM240 809v18q-6 18 -17 58q-10 -72 -8 -90v-11zM215 696l37 78h-29zM213 537l14 43l-10 84l-10 -99z" />
<glyph unicode="S" horiz-adv-x="1126" d="M899 1141l-129 -4l-25 20q6 35 7 57q0 102 -41 188.5t-125 86.5t-133.5 -56.5t-49.5 -152.5t86 -178q27 -27 175 -125q16 -14 57 -39q0 -18 10 -64l49 19q174 -131 256 -293q19 -37 19 -178v-53q0 -172 -164 -287t-342 -115q-242 0 -360 143.5t-117 391.5q0 14 8 71l6 2 l37 -10l37 13l57 -9l100 6q25 0 35 -2q20 -14 21 -43l-4 -51q0 -90 47 -153.5t127 -63.5t131 62.5t51 144.5t-127 178l-45 29q-39 25 -39 31q0 21 -9 25.5t-28 4.5h-10q-23 25 -49 45l-17 4q-4 18 -30.5 48t-28.5 36q-6 2 -9 2t-5 -20q2 2 6 2q-4 0 6 -10l2 -6l-8 4l-76 35 q-98 117 -130 180t-32 194q0 231 128 378t358 147q74 0 139 -19q0 -23 14 -57l39 35q70 0 141 -92.5t95.5 -167t24 -185.5t-6.5 -151q-74 4 -129 2zM805 1534l35 12l-6 17l-27 -13zM805 1436l33 -4l-4 73h-21zM801 1339l65 11q0 33 -20 53h-41zM821 1190l66 123h-76 q4 -14 -3 -47t-7 -53.5t20 -22.5zM791 750q-23 -10 -41 32q0 14 -5 43l-8 6q-14 -8 -24 -28l-47 -15q-6 4 -23 9q45 -18 133 -107l-26 31q25 19 41 29zM348 895q0 -6 4 -11t2 -7l8 -19l9 8q8 27 55 52q-23 10 -30 46.5t-13 49.5q6 23 6 54.5t-16 43.5q10 35 10 92.5 t-23 67.5l2 -37l-16 8l-51 -51h29q6 4 20 22q-4 -45 -39 -90l6 -16l-6 -10l10 -15l-14 -53l-18 -12l10 -17l-17 9q0 -10 19 -21q8 -23 8 -26q6 -2 21 6l-13 18l4 19l-10 10l-8 -2l16 6q-2 6 -2 20l15 9l2 -11q0 6 6 23v-45q49 -29 47 -58l-6 -16l-15 14q-35 -18 -55 -22v6 q-2 -6 -2 -18t14 -27h31zM162 1194l14 63h-20l-9 -36zM758 369v18h-29v-18h29zM729 209l16 72l-4 22q2 10 2 27q-57 -55 -57 -94q0 -27 43 -27zM725 109l20 55h-16l-20 -47zM145 453q13 -31 0 -56q18 -29 27 -49q16 29 16 40t-2 15l17 15h-25v20h41v-2l12 19l43 18 q-6 -23 -6 -35t27 -45q6 33 33 31h8v8q0 27 -6 66l-33 -19q-12 0 -50 -9t-48 -9l6 2q-14 18 -60 26q-6 -14 -16 -65q2 4 7 14.5t9 14.5zM307 334l2 28h-14l-2 -28h14zM367 240h-66q8 -8 10 -15l-14 -6l-18 19q20 20 22 47q-31 0 -45 -13q10 -33 29 -129q25 29 24 68 q2 0 43 -23q1 21 15 52zM170 315l33 15l-6 14l-27 -12v-17zM330 1116l2 -6l-2 4v2zM365 1069v2v-2zM352 1075l-4 -4l-8 31q10 -17 12 -27zM365 1065l16 -33l-4 -12q-4 12 -12 24v21zM352 928l4 -10l-20 -9v11z" />
<glyph unicode="T" horiz-adv-x="1105" d="M496 1747l136 12q15 0 27 -4v2q2 -2 23 -28q10 31 23 30l36 -20h43q72 0 129 30q111 -23 150 -16q16 -11 16 -31l-18 -77q14 -37 14 -97.5t-4 -81.5q-12 -37 -57 -36l-88 6q-27 0 -52 -13l-151 15q-10 0 -25 -19q2 -14 13 -37q-2 -2 -2 -39l10 -51v-6l-17 -37l21 -6 q-20 -39 -20.5 -55t4.5 -33q-23 -12 -23 -27q0 -23 31 -28q-14 -29 -15 -39l2 -72l17 -43l-29 -28l43 6l-47 -45l27 -15l-2 -4l-29 6q6 -70 10 -90h15l4 -2l-2 -4l-21 -12l14 -15h-4l-16 -32l4 -29l-10 -23l2 -34h16l4 47v47l33 24l-10 -145l-21 -14l-16 8l23 -62l-19 -81 l23 -17v-37l2 -4v-90q0 -162 12 -217l8 -33q0 -43 -11 -54t-52 -11l-103 20l-14 -12l-10 41l-15 -45l-47 10l-12 8l-76 -14q-6 0 -13 13t-9 13q9 55 14 101l45 4v2q-49 8 -49 20l4 33q0 27 -8 51q16 12 26 23h-4q-16 0 -22 14q2 6 2 119l8 700l-10 39l14 267q0 33 -59 39 h-86l-172 -9q-16 0 -37 23q0 59 47 51l-4 37l-17 -4q-12 0 -22 16v4l-10 78q0 96 13 115.5t101 19.5t103 -14q2 -8 16 -23v5q0 27 33 26zM848 1669l26 55h-32l-25 -69zM864 1559q23 41 23 65.5t-33 75.5q-4 -43 -20 -60q16 -6 30 -81zM868 1534l2 45q-8 -12 -22 -27 q16 0 20 -18zM348 1524l4 55q-33 -41 -35 -74zM100 1686q-25 -29 -43 8q10 -88 2 -133q20 10 37 16q-16 29 -16 49t14 29q23 -49 31 -94q-2 -2 -31 -2v-29q0 -49 15 -72q2 4 4 15.5t3 16.5q3 15 25 19l-2 68l-2 -2h2q7 2 11 10l-7 14q-25 23 -24 33q2 -6 2 0v19q2 12 2 18 q-12 16 -23 17zM449 786l30 19l-6 82q-16 -19 -24 -101zM496 702q-2 2 -15 82q-39 0 -39 -75q0 -27 33 -39q17 14 21 32zM496 520l-21 23l12 65l-12 13h12q-14 33 -49 63l-2 -63h10v-33l15 -33l-21 16q0 -12 -10 -24t-10 -15q0 -12 31 -14l16 -65q-35 -66 -25 -174 q10 25 18.5 30.5t26.5 7.5l2 41l-18 23l23 78l-9 53l-4 4q4 4 15 4z" />
<glyph unicode="U" horiz-adv-x="1173" d="M825 1135l9 -19q2 -2 -7 -16l2 -6q-4 4 -2 6l-2 14v21zM838 1077l6 -22l-6 -39l-4 26zM862 1751l152 4q39 0 48 -19.5t9 -64.5l-16 -264l10 -293v-133q-2 -59 -2 -210.5t-3 -165t-10 -16.5q-18 -7 -18 -11.5t11.5 -11.5t11.5 -11q0 -80 -17 -199q-35 -213 -148.5 -309 t-344 -96t-314.5 110q-78 113 -95 202t-17 229.5t2 216.5v172q0 188 -19 290q10 35 11 109l10 164l-14 215q0 23 2 45q8 29 16 48q11 25 141 15h60q84 0 114 -6q14 -8 15 -26l-8 -326l-7 -737v-152q0 -121 21 -176q33 -92 135 -92t129 123q6 6 16 51l13 12l6 -22 q16 12 39 22l12 -6q-8 -12 -14 -51q18 -6 12 -39q20 16 35 16l-8 17q6 12 11 48t7 42h2q0 18 -12 43l-25 39q25 6 56 31q-37 90 -37 149t18 107l-22 28q-8 8 -7 51q12 20 31 31q-2 0 -39 14q0 18 8 50l7 -45q8 12 18 107t12 99l-18 45l8 64q0 53 -10 57v17q0 4 -2 14 q-16 -4 -17 -20q0 -4 4 -25l-4 6q0 20 -12 31l-8 -43l20 -6l-20 -23v-10l-14 -94q0 -8 3 -30t3 -26l12 9l4 16l2 -29q-20 -59 -20 -180l4 -258q2 -16 20 -35q4 -12 4 -16l-26 -62q8 -18 8 -43l-4 -39q-4 -6 -22.5 -6t-20.5 -2q0 6 -10.5 14.5t-10.5 12.5l-6 192l23 134 q0 66 -4 69l-15 -18q-4 4 -4 84l-4 288l14 371q0 63 -6 90l8 19q14 14 117 14zM870 1636l39 27l-8 8l-41 -26zM772 1690l25 28l-33 4l6 -16zM850 1604l29 8l-19 20q-10 -10 -10 -28zM864 1683l-10 17q-6 16 2 37q-14 -2 -53 -2l6 -9q4 -12 -41 -51l29 -84q35 29 22 72 q16 -6 27 -6q10 8 18 26zM834 1612l12 30h-10l-11 -24zM842 1585v14h-21v-14h21zM864 1573l-59 2l16 -100q10 67 43 98zM786 1554l17 -24l-15 53l-12 -4zM389 1642l31 -10q4 41 0 103l-31 6l-31 -15q-47 -31 -69 -28q-29 29 -53 28q-10 -23 -19 -65l19 29q4 -16 4 -27l2 -4 l2 -33q4 -37 2 -39q6 -8 30 -2q10 16 0 55l31 35l55 33q-4 -25 -4 -53.5t17 -50.5q2 39 14 38zM295 1542l14 23l-41 8v-25zM856 893l-10 29q-10 -10 -10 -29q4 -6 20 0zM272 1530l-22 6l-17 -92q39 18 39 86zM303 1454l-16 49l-29 -108q27 0 45 59zM231 1403l15 -29v58 l-15 -11v-18zM246 1350l28 2l-4 22l-22 -8zM858 238l-6 55l-27 18q16 -27 17 -55q-1 15 -13 -104l35 38q-6 10 -6 48zM819 164l8 49l-28 -25l8 -24h12zM186 745l31 -47q-8 31 -8 95v57q-6 25 -37 24q-14 -18 -18 -18q-2 -37 2 -98q4 4 9 10t10 10t9 8l6 -26zM338 537l-4 51 q0 68 12 94l-33 -49v-98q2 -29 2 -62t-10 -70q39 -8 43 -8v43q-16 16 -16 35.5t8 34.5l-4 10q2 6 2 19zM229 606l2 29h-12l-2 -29h12zM193 530l10 74q-14 0 -29 6l2 19q31 14 31 35q-20 10 -29 18q10 10 23 27q-23 12 -31 32l-20 -41q2 -78 -11 -256q16 -49 13 -77 q10 -10 26 -11q14 6 25 21q-18 4 -21 12q17 13 58 29l18 -8l-10 45l-6 -17q-25 -29 -47 -28l-13 4q14 10 29 75l12 7q-31 0 -30 34zM342 311l6 64q-31 14 -49 16l14 -10q-14 -41 2 -74q4 -2 27 4zM338 254l22 8l-4 10l-18 -8v-10zM313 258l27 37l-29 -2l-8 -31zM188 319 l17 9q0 16 -15 28zM324 240q-8 -4 -20.5 -3t-16.5 5h-4q14 -6 20 -21l-6 -28l16 4v-21l-10 -20q56 0 62 88zM319 127l5 16q0 4 -2 7l-37 -29q10 -4 22 -12l-14 -17l22 -6q-8 -4 -24 -18q20 -10 22 -31l4 -37q12 20 15.5 62t5.5 51q18 -10 18 -52t-12 -55q8 0 31 47l2 78 q2 10 -10 55l-21 -26l-18 -10l-2 -31q-6 4 -7 8zM182 844l8 -39q-7 0 -20 20q-6 25 6 25q4 0 8 -4q0 -2 -2 -2z" />
<glyph unicode="V" horiz-adv-x="1097" d="M729 1642l-12 48q0 25 20 43q2 20 45 20q131 0 209 -18l53 14q23 -29 23 -39q0 -35 -20 -95t-21 -93q-19 -28 -51 -234l-31 -43q6 -37 6 -66.5t-12 -83t-24.5 -117.5t-40 -184t-69.5 -385t-89 -413q-2 0 -9 -5q-17 -11 -34.5 -10t-61.5 7l-35 -13q-31 18 -49 19v4 q-16 -16 -71 -16q-84 0 -90 49q-20 27 -39 139q-47 221 -103 524l-26 133q8 14 20 58l-6 14l-21 8q-25 45 -71 369l-2 -8q-18 45 -52 225t-34 215t28 35l197 8q80 0 99 -19.5t21.5 -80t12.5 -92.5l-6 -19q14 -18 27 -113q14 -72 14 -98t-2 -39l-21 15l-10 -19q47 -20 47 -43 q0 -8 -2 -16l-16 2l-6 -6l-11 2l-6 -4q14 -4 35 -19l-16 -4q-8 4 -15 4h-10l-12 -6q70 -20 70 -96q0 -37 -12.5 -43t-14.5 -10q36 -13 59 0l-10 -27q-12 -6 -12 -21l24 -84l6 -4v-37q2 -10 19 -20v-6l-29 -27l33 -59q-10 -18 -23 -53l3 -13h2h-2q-31 -8 -31 -34q0 -17 69 -9 q-16 -27 -30 -41l43 -125q25 29 57 113l12 18l-30 82q20 4 61 19q-31 27 -31 76q0 6 17 120q37 43 37 57.5t-2 33.5q-14 -10 -37 -39q-6 16 -6 18q0 14 43 47l-21 6l4 13l-4 4l-8 -2l-10 16l4 21q14 14 14 76.5t12 105.5q12 2 35 18q-10 16 -10 51.5t6 42.5q-2 6 -2 19 l10 92q35 98 35 147zM950 1591q-39 -29 -47 -35q18 0 35 9q10 12 12 26zM881 1610q-20 6 -17 53q-18 0 -33 -14q-12 23 -26 22l-8 -39q-20 -16 -27 -24q8 -6 31 -29l-10 -16l6 -11q21 11 84 58zM911 1337l4 117q-20 37 -57 92q0 -25 -18 -24q16 -16 22 -31l-47 -25 q14 0 37 -22v-19l-14 17q-18 -4 -41 -19l63 -16l-29 -18l-8 4l-4 -2q31 -25 92 -54zM760 1434l10 67l-43 -4q4 -10 33 -63zM805 1167l108 -32q-20 12 -77 32q23 8 41 21q-12 20 -21 43l6 4l-16 14q20 10 41 31l-31 14l41 39l-55 17q-2 14 -39 14v-12q0 -27 2 -49 q-8 -10 -14 -31q10 -10 36 -15q32 -45 -22 -90zM807 1214l8 7l-18 20l-9 -8zM727 1260h12l-6 43h-14zM301 1544q-12 20 -47 51l-21 -20q21 0 68 -31zM776 1049l2 28h-14v-28h12zM780 1030h-30l24 -8q-10 -10 -16 -23q22 11 22 31zM326 1475v10l-50 -17l5 -10zM231 1513 l7 -59h30l-14 105q-23 -23 -23 -46zM391 1341l12 5l-10 24h-10zM401 1311l9 8l-19 16l-10 -6zM397 1257v11l-20 8l-4 -10zM256 1354v10l-16 8l-4 -10zM297 1354h-37q-25 -18 -33 -39l-2 -49q53 8 62 8v4q6 23 10 76zM246 1239l37 -49q-8 31 -7 74zM449 860l28 43l-6 8 l-14 -12zM713 633l-39 -49q14 -14 31 -25q-2 35 8 74zM668 342v12q4 23 -6 70q-41 6 -60 8l-2 -49q6 -16 31 -41h37zM475 342v12l-24 -10l4 -10zM532 221v10l-38 17l-7 -10zM459 147l20 105h-28l-13 -62q1 -23 21 -43zM508 162q-20 -14 -72 -31l21 -20q12 10 51 51z" />
<glyph unicode="W" horiz-adv-x="1697" d="M752 1305h45v-13h-47zM893 1149q-53 -27 -73 -27t-40 21l2 18q-72 43 -75 45q12 -2 55 -16q37 0 57 45q0 -4 1 -13t-11 -28q20 -4 25 -4h10l20 14q-6 -10 -16 -45q16 -10 45 -10zM711 1077l22 10v-10l-18 -10zM711 1055l20 10v-10l-16 -11zM764 997h31l-2 -12h-29v12z M1198 614l29 86q-42 69 6 351l37 180q29 144 20 215v37q23 35 37 28q-25 14 -27 54q18 6 19 57v35q-2 14 -2 35q0 49 59 54t143.5 5t147.5 -8l-10 -33q-37 -10 -37 -18l2 -4q0 -6 2 -11l-4 -30q10 -16 20 -39l-6 -13l-6 -4v-6q0 -37 -23.5 -112.5t-27.5 -116.5t-36 -176.5 t-44 -227.5l-14 -147q-16 -35 -27 -111l-6 -127q-12 -84 -70 -84q-14 0 -22 2l-4 -51q0 -57 16 -57l29 10q4 -4 4 -12q0 -31 -53 -283q-2 -35 -21 -88q-23 -8 -55 -8l-203 2q-47 0 -47 25q0 66 -51 245q8 23 14 88l-20 33v2q0 14 14 29q-20 10 -35 20q-2 10 -2 33t19 37 l-21 20q-4 45 -20.5 111t-16.5 70l19 8q-18 14 -41 45l8 18q18 -23 37 -39q10 37 10 83.5t-14 66.5q20 23 20 74l-16 6l-10 -6q-4 12 -5 20v6l19 -14q14 14 14 37.5t-4 40.5q-16 6 -33 6q-59 0 -59 -51q0 -12 2 -19q-18 -10 -53 -22l-8 -33l-21 -2l2 35l55 51l-14 2 q-20 0 -20 -20q-2 10 -21 28q-6 -2 -22 -14q0 20 10 24q20 4 22 9l-10 16q25 4 41 2l8 25l-6 2l-14 -2l-19 20l76 -2l-2 -8l12 -4q12 0 49 6t46 6q-21 21 -45 39l32 -8q-6 29 -4 108l-24 -22l30 35v4q2 16 -14 30q4 16 16 27q-4 -16 13 -29l4 19q-14 25 -39 49 q-10 -25 -27 -84l-16 10l-15 -6q12 -6 29 -49l2 8l-12 8q-23 -14 -41 -30v22q-68 8 -80 8q0 20 19 21l22 20q-20 33 -45 54l-2 30v8l31 -20l10 16q-26 34 -29 41l39 21q-18 18 -33 71q-10 -4 -45 -28v-25q14 6 19 15h28l-16 -21q-41 -6 -41 -57q0 -29 19 -43l2 -19v-8l-11 2 q-14 0 -28 -8q8 -8 22 -12l-28 -54l10 -2l10 -10l-12 -8q-20 -27 -21 -72l21 -51l-13 -12l-10 -4q2 -4 2 -19.5t-24 -34.5l-2 -94l75 -67q-27 2 -63 30l-23 -47q29 -2 95 -26h-13l-69 -15l-6 -12l-3 -37l-6 -4l90 16q0 -4 -16 -14t-16 -12q10 -18 34 -45q-12 6 -27 6t-34 -6 q14 -6 29 -25q6 -14 12 -86l-6 4l-10 -2l10 -6q14 4 18 10q-4 -4 -16 -28l16 6l11 -15l-46 -30l15 4q-6 -70 -12 -76l-78 -37q45 12 62 12t20 -2v2l2 -2q0 -8 -15 -30q2 -4 2 -20.5t-12 -81.5t-10 -95l-29 -129q-25 -100 -49 -100l-84 14l-160 -4q-39 0 -39 70 q0 27 -22.5 88t-22.5 87t-32 224l-54 227q-33 147 -47 330q-2 29 -49 267.5t-57 449.5q35 18 65 18l70 -4l55 8l92 -24q14 0 23 8q-4 0 -4 -7t18 -22q0 -14 10.5 -34.5t10.5 -38.5l22 -240q0 -39 9 -97.5t9.5 -102.5t21 -154.5t20.5 -176.5l14 -210q0 -25 18 -48 q8 12 37 130t29 133q29 72 54.5 218t36.5 183q51 175 60 283q4 113 29 145q4 10 10 27.5t21 17.5q6 0 22 -8h4q49 0 50 14q10 -10 24 -12q16 6 25 14l69 -20q25 -39 72 -299l92 -508l19 -152q16 -111 35 -135l26 -37q0 2 -2 4zM1417 1593l23 -16l-6 -18l16 6l6 -2l-24 -25 l53 -29q-8 -14 -8 -28v-4l39 10q-8 2 -19 16v6q0 6 4 27q-8 -4 -28 -8l-11 4q25 28 58 61l-45 23l6 12l-6 12q-16 -16 -17 -47h-41zM1524 1473l2 14h-29v-14h27zM1423 1511v13l-22 -11l4 -10zM1407 1386l-12 -53q0 -31 18 -43q-10 -31 -10 -91t20 -69v37l17 -8q18 16 53 51 h-29q-8 -6 -20 -20q4 45 39 90l-6 16l8 11q-14 20 -27 43q12 6 19 12q2 6 -2 20l22 19l16 -8q0 10 -18 16l-27 10l19 39l-4 10q-16 -4 -58 -22l-14 14l-8 -16q0 -31 49 -55l-8 -78q-16 6 -23 20q6 6 9 21q-25 23 -23 34zM1386 1040l31 -18q-6 47 -6 82q-2 -21 -25 -64z M956 1491l2 20h-16v-20h14zM934 1513l2 21h-16v-21h14zM952 1473v12h-39v-12h39zM1423 999l2 11l-24 -11l4 -10zM1348 1010l57 8q-23 0 -47 12zM958 1452q-33 -16 -47 -43q20 0 37 -16q0 39 10 59zM1419 918l2 59q-16 -14 -69 -39l20 -29q0 12 6 15q18 -10 25 -21l-6 17l4 6 q6 -8 18 -8zM795 1513l10 29q-16 6 -21 8l-6 -12q7 -15 17 -25zM950 1346l8 8l-10 10l-8 -6zM893 1376v13h-21v-13h21zM1395 856l2 10l-25 -8l4 -12zM1384 803v12l-36 -8v-14zM1397 692v35q-23 23 -35 23q12 -35 35 -58zM1399 629l8 8l-12 12l-9 -8zM279 1688l34 6l-18 22 h-16v-28zM1370 606v15h-29v-15h29zM1073 874l2 60q-10 -14 -28 -51zM1325 616l10 19q-8 6 -28 6h-4zM1411 528l2 52q-14 6 -24 16q-8 -20 -35 -16q18 -27 57 -52zM1059 829l12 19l-14 4l-8 -21zM1323 528l10 7l-18 18l-10 -6zM1063 784l12 4l-8 17h-12zM819 1047v10l-22 -8 l2 -11zM1047 733h30q0 23 -20 31q2 -8 14 -21q-12 -8 -24 -10zM1225 434q32 -16 55 -16q0 -14 37 -15v13q0 27 -2 49q14 17 14 33q-12 10 -37 12q-8 10 -8 36t33 56l-45 33l-2 -29l16 -6q-23 -8 -41 -20q8 -12 19 -41l-7 -7l17 -14q-16 -8 -39 -31l31 -14zM317 1491 q-2 2 -63 20q20 -14 45 -24q-2 -6 -8 -29h-39q10 -18 24 -18h27v10l12 37q2 2 2 4zM1073 709v6h-14l-12 -92q28 61 26 86zM254 1462l8 25l-10 4l-12 -29h14zM1323 346q-8 2 -61 14q10 4 26 19l12 -2l-92 26l-4 -88q10 -45 39 -108q0 10 12.5 24.5t24.5 14.5q-16 16 -23 30 l50 25q-16 0 -39 23v4q-2 6 2 14q4 -10 14 -16q19 6 39 20zM201 1323l10 8l-12 10l-9 -6zM1044 426l11 41h-13l-10 -41h12zM168 1294l8 21l-10 4l-8 -21zM1315 160l-29 26q14 16 14 47v5l-34 -27q-8 -4 -60 -55q18 -4 15 -54q18 0 32 15q12 -23 27 -23q6 29 8 39 q19 13 27 27zM287 1348q-23 0 -23 67q-16 -6 -20 -8l-2 -35l12 -4l-4 -6l-14 8q-8 -18 -21 -59q12 4 18 8v-4q0 -10 -8 -25q8 -14 8 -52t-16 -108l16 7l7 -2q-16 -8 -15 -45q-8 -12 -10 -25l4 -12l-14 -9q-2 -18 26 -61q0 -12 68 -53q23 -31 53 -78q4 45 4 82q-6 -4 -24 -8 l-23 6l4 2q-20 10 -41 37q-12 2 -18 5t-4 9v4l22 10q4 20 11 29l-9 35q0 14 19 43q-6 4 -8 20q18 37 18 152t-6 154q-4 -84 -10 -84zM637 776l10 6l-10 13l-10 -9zM178 1272l-20 -8v-4q0 -14 12 -25q0 21 8 37zM145 1260v26h-12v-26h12zM1149 193l45 34q-25 -4 -35 -8 q-8 -16 -10 -26zM182 1202h-30l10 -20q0 18 20 20zM1057 248v45l-21 -33q15 0 21 -12zM193 1079v27h-13v-27h13zM272 956l11 5q-94 18 -99 18h-8zM346 825h16q-4 4 -9 11q-17 26 -25 34q6 -18 18 -45zM307 868l2 29l-39 -18zM307 842q-27 0 -37 10q-6 -16 -8 -21l14 -4 q17 1 31 15zM344 815q-6 -2 -27 -2v-6q-2 -14 9 -59q10 22 18 67zM580 502v12l-25 -10l4 -10zM295 745q-12 0 -23 -8l9 -20q14 8 14 28zM340 670v12h-23v-12h23zM510 537q-10 -16 -41 -50q18 -18 29 -24q0 41 12 74zM588 367l18 18l-8 8l-18 -18zM332 596l10 20l-10 5 l-13 -21zM299 639q0 4 -6 33l-10 -4q-8 4 -19 12q14 -43 15 -59q20 0 20 18zM614 303l11 25l-11 4l-10 -29h10zM512 373v16q0 25 -6 64q-53 8 -62 8l-2 -49q12 -23 33 -39h37zM471 362v13l-22 -10l4 -11zM348 541l-20 -6l-13 12l25 24q-27 0 -39 17l-22 -19q12 -47 16 -90 q16 -12 43 -24v-27q-23 -2 -39 -22q-16 -25 -29 -33q23 0 19 -25q41 68 53 72v12q-2 16 2 60.5t4 48.5zM530 242v10l-41 16l-6 -10zM455 170l22 102h-31q-10 -51 -9.5 -67.5t18.5 -34.5zM336 324v12l-25 8l-4 -10zM504 182q-27 -16 -70 -30l19 -21q22 16 51 51zM330 236 l-11 -37q0 -2 29 -31q4 -41 19 -55l10 14l16 -6l2 61l-14 54l4 18l-4 14l-51 -22v-10zM1446 1274l14 -4l-12 -21l-10 4zM260 1331h14v-20h-16zM258 1212l23 11v-11l-19 -10zM279 1151l-11 -21q-10 10 -10 23v6q5 -2 21 -8zM289 528h30l-10 -20zM338 428q0 -16 -27 -41 q0 18 2 27q17 6 25 14z" />
<glyph unicode="X" horiz-adv-x="1036" d="M852 1751l123 6q31 0 31 -16q0 -31 -20.5 -53.5t-49.5 -20.5l-16 -6q2 -14 45 -27q-12 -35 -140.5 -360.5t-128.5 -353t77 -228t84 -232t77.5 -215.5t71.5 -233q0 -20 -114 -20t-159 6q-23 2 -39 43l-18 61q-8 18 -8 29l8 29q0 20 -27 57t-28 49l-66 217q-29 96 -39 97 q-11 -27 -18 -27l-105 -367q-10 -37 -57 -174q-8 -18 -82.5 -18t-89.5 2l-51 10l-52 -14q-33 8 -32 31q0 6 2 12l137 403q53 139 174 482q-47 111 -129 329.5t-114.5 307t-45.5 169.5l27 21q18 2 55 2t64 -2h61l55 -4q33 -6 43 -25q23 -47 45 -143q25 -153 62 -264l12 -51 q8 -39 23 -39q8 0 30 49q27 74 74 223.5t74 218.5q18 45 59 45zM803 1679l-47 23l8 12l-6 12q-14 -14 -19 -47l-41 2q20 -12 25 -16l-8 -18l16 6l8 -2l-26 -25l53 -31q-10 -18 -8 -28v-4l39 10q-8 2 -19 16q0 12 4 33l-28 -8l-11 4q13 14 60 61zM805 1559v14h-27l-2 -14h29z M702 1599l3 13l-23 -10l4 -11zM774 1487l19 -8q0 10 -19 16l-26 10l20 39l-4 10q-29 -6 -59 -20l-15 14l-8 -16q0 -31 49 -55l-10 -78q-16 6 -23 20q6 6 11 21q-25 23 -23 35l-12 -54q0 -33 16 -43q-12 -31 -12 -91t20 -68v36l17 -8l55 49h-31q-6 -4 -20 -18q4 45 41 88 l-6 16l8 11q-16 23 -27 45q8 2 21 10q0 8 -4 20zM733 1147l19 76l-17 2l-14 -27zM694 1128l17 -6l-4 31l-39 53zM696 1057l19 45l-45 -19l4 -51zM344 1260h16l-12 129q-6 -4 -6 -43t2 -86zM360 1190v18h-28v-18h28zM342 1118h16l-12 33l-16 -6zM326 1028l41 -57l-19 112h-20 zM731 602l17 6l-13 31l-18 -8zM762 498l-12 65q-2 -39 -35 -39q35 -20 47 -26zM350 715l33 76l-10 69q-11 -47 -23 -145zM733 440q-10 -100 -10 -106v-4q0 -40 12 -58l23 127zM373 641l10 88l-39 -70l-2 -18h31zM367 543l2 51h-17q-2 -20 -1.5 -30.5t16.5 -20.5zM145 61 l15 125q-18 -25 -45 -86q32 0 30 -39zM723 1362l12 -4l-10 -21l-12 4z" />
<glyph unicode="Y" horiz-adv-x="1013" d="M944 1751q8 -4 22.5 -4t18.5 -4q0 -39 -63 -211l-82 -227q-53 -158 -181 -578q-6 -20 -10 -195t-8 -176q12 0 -25 13q-16 -10 -16 -29q0 -4 20.5 -13.5t27.5 -35t7 -87t-2 -89.5v-64q0 -57 -61 -57h-31q-12 2 -29 2l-192 -4q-27 0 -27 33l-4 301l8 135l-16 293 q0 66 -98.5 375.5t-161.5 558.5q-6 8 -6 28.5t14 25.5t115 5l18 -18q-4 8 20 13q29 6 53.5 8.5t55.5 -9.5t35 -27.5t25.5 -119.5t59.5 -251t50 -227v-12q0 -43 11 -47q18 80 28 131l15 45q2 35 13 87.5t77 264.5l20 98q16 63 57 66q135 0 242 2zM190 1503l3 76h-21l-2 -76 h20zM756 1108l20 82l-26 -33l-11 -43zM195 1606v18h-29v-18h29zM479 887l15 141q-10 10 -21 10q-18 0 -29 -34q14 0 24.5 -43t10.5 -74zM186 1651l2 51q-20 -8 -20 -22.5t2 -28.5h16zM180 1458h17l-13 33l-18 -6zM477 717l12 96l-14 33l-14 -6zM434 37l25 86l-31 8 q-20 -12 -20 -22.5t10 -20.5zM401 39l-12 84q0 12 6 22l-6 17l-27 -15q-14 -20 -14 -49q0 -53 53 -59zM762 1593l14 56l-18 45l-10 -68zM778 1473v18q-6 18 -16 57q-10 -72 -10 -90l2 -10zM754 1360l37 78h-29zM752 1200l14 43l-10 84l-13 -98z" />
<glyph unicode="Z" horiz-adv-x="980" d="M401 295l39 8h236q104 -2 233 -2q18 0 19 -22v-109q2 -48 2 -109q0 -68 -103 -67l-149 10h-70q-25 -10 -53 -10q-14 6 -20 14l-89 -14l-229 12l-141 -12q-14 0 -25 18q-2 18 -2 112.5t2 108.5v7q0 35 26.5 93t26.5 60v2q0 45 67.5 195.5t103 210t76 175.5t79.5 195 q2 6 46 21.5t44 34.5q0 6 -6 6l-51 -16q-6 0 -6 6q43 82 98 211l-98 -9l-332 13q-35 0 -47 14v29l4 20q0 2 -6 47q12 29 12 33q-10 15 -10 31l10 70l-14 53q0 8 41 24l260 -6v-37q14 -2 20 5.5t6 17.5t12.5 17t331.5 5l13 -26q14 0 43 -15q-18 20 -23 35l13 8h22q10 2 25 2 q63 0 72 -34.5t9.5 -135t-18.5 -145.5q-68 -172 -194 -449q-117 -246 -208 -440.5t-102 -263.5zM791 1593l6 97l-37 10l10 -107h21zM774 1432l10 122q-8 14 -16 15q-6 0 -20 -37q8 0 26 -100zM584 1473q22 41 22 54t-24 52q0 -14 -11 -18q-18 -4 -20 -7q14 -6 33 -81z M600 1409l23 39v47q-25 -41 -23 -80v-6zM453 1546l43 -4q18 0 18 11t-41 34t-41 27q-16 8 -31 8q-4 -6 -10 -6q-12 0 -22 22q4 -61 4 -78t-4 -55q20 10 39 17q-33 60 -2 77q12 -12 36 -57q0 4 11 4zM313 1526v12h-22v-12h22zM250 1544l2 31q-16 -2 -70 -2l-2 -10v-23 q0 -45 17 -67q16 39 23 52t30 19zM524 1200l-59 -80l2 -57q49 55 57 137zM532 1108l-71 -107l8 -57q26 27 63 164zM457 803l20 65l-10 47l-21 -73zM469 696q29 48 29 59t-17 48q-18 -27 -41 -82q4 -4 4 -14t-4 -38t-4 -36zM469 569l14 33h-16l-14 -27zM889 117l12 92 q-10 12 -44 24.5t-54 12.5l-51 -21q-2 -31 -25 -30q-2 0 -33 32q-76 0 -123 -10l4 -10l-8 -23q23 -16 23 -35t-23 -36l39 12l82 -47l80 24v7q0 27 8 41q6 -6 15 -27v4l-5 -33q41 -6 62.5 -6t42.5 4zM535.5 117q17.5 23 17.5 32t-13.5 28.5t-13.5 23.5q-10 -49 -34 -95 q-14 8 -14.5 29t20.5 49q-20 10 -39 17q4 -20 4 -47t-12 -86q16 29 45 28q6 0 22 -4q0 2 17.5 25zM442 168v12l-61 39q-2 -2 -2 -12q0 -25 47 -53zM379 131l2 29q-29 8 -49 73q-20 -29 -23 -102h70zM279 100l2 52h-17l-4 -21q1 -21 19 -31zM127 25l4 47l-22 75l-9 -94z" />
<glyph unicode="[" horiz-adv-x="739" d="M651 1982q14 9 19 9q53 0 53 -27q0 12 -12 -25l4 -2q0 -41 -8 -98q-262 0 -289 -14q2 -23 2 -56l-12 -337l10 -222l-8 -180l-9 -100l5 -174q0 -86 -3 -187q9 0 -3.5 -36.5t-12.5 -49t10 -16.5v-61q2 -436 -14 -486h295l-2 -65l-2 -9l14 -51q0 -14 -26.5 -14t-32.5 2l12 2 q-37 -4 -138 -4t-157.5 -7t-75.5 -3q-16 -2 -53 -2q-94 0 -94 34v199q47 16 47 23q-6 4 -45 8q10 498 10 948l21 571l-4 373v4q2 0 4 -2q20 39 47 39h55l70 10l118 -12l148 27zM651 1884l-28 2l-13 -6l-8 10v-2q-70 0 -78 -8q2 -14 80 -14q27 0 47 18zM209 1812q14 15 13 21 t-11 65q-23 0 -23 -43t21 -43zM205 1757l53 37l-10 14l-53 -36zM184 1688h31q-8 20 -31 38v-38zM252 1614l-21 -4q-20 0 -20 20q0 8 2 12l-27 7q10 -35 11 -136v-26q0 -43 -4 -80q24 115 59 207zM362 1268v18l-63 -12l-2 -19zM633 -145q-29 0 -74 -29q14 -2 27 -14q4 4 14 4 v-2q4 0 33 41zM324 -74l2 51h-52q-4 -23 -10 -32q-12 27 -24 43l-15 -97q33 -12 43 -12q27 0 56 47z" />
<glyph unicode="\" horiz-adv-x="1046" d="M86 1778l115 30q7 0 22 -30.5t21 -36.5l151 -357l-22 -41l45 -4l71 -161v-41q31 -14 54 -50v-30l258 -570q215 -473 215 -500.5t-55 -23.5h-31l-33 17l-72 -21q2 84 -102 313l-156 318q0 39 -55 149l-80 154q-199 412 -401 897q72 -12 55 -12zM133 1702l-24 59l-13 -8 l-16 2l-21 12q10 -14 35 -77l19 16q-10 10 -19 25l4 8q12 -6 35 -37zM455 1151l10 4l-8 16h-8zM506 1059l8 16l-8 4l-10 -20h10zM948 51l6 27l-63 24q-33 -8 -41 -34q-2 -8 -6 -54q8 4 43 17l18 -11l4 5l-2 28l4 4l4 -10l-2 -6l13 10l10 -6l-4 10l8 11z" />
<glyph unicode="]" horiz-adv-x="757" d="M426 1976l125 -10q18 0 32.5 -18.5t16.5 -18.5v-4l-12 -278q-12 -328 -13 -586v-115l-16 -786q0 -115 -6 -127q0 -2 -47 -8q6 -10 47 -23l-6 -192q0 -41 -96 -41h-78l-195 10q-104 0 -151 6l12 -2q-14 -2 -37 -2t-22 14q0 12 8 21v4l8 100h295q-4 16 -4 216t8 331 q12 6 12 22l-18 76l4 4l8 142q6 92 6 143l-6 86q0 117 13 335q19 314 12 408v62q0 35 4 80q-27 14 -289 14l-4 43q4 8 4 17.5t-4 37.5l4 2l-10 27v-4q0 29 53 29q12 0 18 -9l58 9l147 -27zM539 1812q22 0 22 43t-22 43q0 -25 -15 -61q0 -10 15 -25zM541 1757l10 15l-51 36 l-11 -14zM528 1688h31v38q-23 -18 -31 -38zM555 1649l-27 -7q0 -6 2 -10q0 -23 -20 -22q-4 0 -21 4q27 -12 52 -64q-2 12 -2 31t16 68zM225 1880q-10 8 -78 8q-1 -8 -8 -8l-12 6l-29 -2q20 -18 72.5 -18t54.5 14zM367 1411l63 -12v18l-63 13v-19zM446 -109l-10 97 q-8 -10 -26 -43q-8 14 -9 32h-51v-51q29 -47 53 -47q10 0 43 12zM111 -174q-41 29 -72 29q20 -39 22 -38t7.5 1t15.5 -6q17 12 27 14z" />
<glyph unicode="^" horiz-adv-x="2211" d="M567 1067l-63 16q-12 0 -49 -4t-47 -4q12 18 176 211q109 123 159 223l58 -10q-8 35 -8 43l49 55q23 25 94 119q14 0 55 19.5t64.5 19.5t58.5 -14l19 -37q18 45 36 45q25 0 56 -8q46 -46 77 -92.5t37 -65.5q68 -31 60 -88q112 -99 319 -412q-23 -23 -122 -22.5t-130 15.5 t-137 171q-47 68 -110 123l-54 45q-33 31 -32 55q-16 12 -52 54q-66 -76 -161 -166q-49 -35 -123 -138t-119 -128t-111 -25z" />
<glyph unicode="_" horiz-adv-x="1142" d="M500 -332l53 -16q20 0 37 31q45 -18 155.5 -18.5t116.5 1.5q59 16 103 17h147l21 -33l-25 -58q-16 16 -27 17l-65 -17q-86 18 -219 18.5t-224 -18.5q-10 16 -20 19l-12 -19q-8 8 -23 9l-39 -4q-20 0 -28 14l-60 -19l-8 19q-12 -18 -84.5 -18.5t-97.5 18.5 q-23 -20 -57.5 -20.5t-55.5 20.5l-25 -35q-4 16 -45 16l5 91l14 6q10 -8 59 -39q14 0 29 33q6 -2 18 -2l45 4q25 0 37 -19q61 20 137 20.5t111 -36.5q10 18 27 18z" />
<glyph unicode="`" horiz-adv-x="1056" d="M408 2316l90 -4q27 0 75 -99t64 -151l-45 -14l57 -10q13 -55 58 -127q-8 -20 -43 -21h-62q-31 0 -33 21l-49 59v19q-29 12 -119 138t-94 157q20 33 101 32zM508 2191l31 13l-31 82l-12 -54q-8 -8 -8 -20.5t20 -20.5zM469 2202l6 63v14q-47 -16 -47 -54t18 -60l27 -11 l4 17q-8 8 -8 31z" />
<glyph unicode="a" horiz-adv-x="1024" d="M907 236l11 -37q0 -6 -3 -9l5 -28q0 -6 -7 -17q14 -159 -14 -165q-18 -6 -25 -7q-43 0 -57 45q-4 -47 -51 -47h-113q-10 0 -10 78q-6 6 -16 6q-49 -90 -193.5 -84t-204.5 54q-178 132 -178 538q0 297 121 455q101 129 283 129q147 0 202 -78q-4 29 9 53l12 25h59 q6 6 23 6l129 -20q18 0 18 10q2 -186 2 -307l-4 -469q0 -121 2 -131zM659 1020q-4 2 -14 24q-2 0 -21.5 21.5t-23.5 21.5q-29 0 -51 -28q18 6 26.5 6t12.5 -2l-19 -25l41 4h13v-2l-7 -4q12 -43 21 -43q12 9 22 27zM793 805l22 18l-6 31l-39 -53zM766 874q16 0 16 20.5 t-8 35.5h-2q-37 4 -53 -39q2 -2 2 -6t-14.5 -31t-14.5 -33q45 49 41 66l15 -47zM504 920l-6 -11q2 -6 47 -16q14 4 36.5 28.5t24.5 24.5q66 0 76 -10q0 10 19.5 20.5t21.5 16.5q-14 -8 -88 -8h-29q-4 4 -8 4t-6 -6q2 6 2 28.5t-16.5 22.5t-16.5 -45q-8 12 -33 12l-16 -14 q-4 4 -8 14l-8 8q2 -25 10 -33t8 -10l-8 -2q-12 6 -25.5 40t-13.5 56l2 -4l-14 8q0 -74 41 -117q8 -9 8 -7zM528 1004l13 26l-15 8l-12 -30zM375 989q-4 -25 -37 -26l-53 2l2 -41h4q16 0 37 -31h32l-16 14q13 39 31 82zM307 827h19l-2 29h-19zM236 821h36q-18 39 -49 39z M326 584l6 -154q0 -28 30 -108q49 -90 150 -91q33 0 119 43q6 12 6 35v23q-2 10 -2 22.5t4 20.5v31l-6 198l4 139q0 68 -8 103q-35 25 -103 24q-201 0 -200 -286zM662 221l-3 -37h-8q-14 0 -14 -4t9 -7t9 5l-8 10l-14 -47l22 -28l31 -4l-4 -109q51 52 51 115l-4 -4l-31 14 v16q16 8 45 37q-12 0 -26 -2l-33 -6q-6 0 -6 10v53q-10 -10 -13 -10t-3 -2zM236 352l24 13v16l-31 -14zM233 274l21 11l-10 24l-29 -6zM227 219l19 6v21h-37zM725 211q0 6 8 26.5t12 59.5q-18 29 -53 25q10 -4 27 -29l-33 2q8 -6 35 -41v-2l-8 2q-27 -33 -23 -41 q21 -6 35 -2z" />
<glyph unicode="b" horiz-adv-x="1034" d="M389 1163q0 -51 19 -51q8 0 43.5 18.5t102 18.5t110.5 -12q297 -87 297 -562q0 -379 -99 -460q-4 -12 -43 -41l-53 -39q-61 -49 -217 -49q-27 4 -82 14q-18 2 -86 51q-6 -2 -10 -26.5t-6 -24.5h-9l-141 -16q-35 0 -39 34q-12 -33 -57 -32q-4 0 -37 6v8q0 100 8 158 q-6 10 -6 16l2 2v35l12 37v131l-4 467l4 526q4 12 13 35l18 12q-27 23 -29 28t-2 42l6 178l-6 49q0 29 60 29h28q12 -2 29 -2l55 16l86 -22q16 0 41 6q6 -41 4 -53l-4 -86l6 -66q0 -14 -6 -21t-6 -32l10 -99v-6l-2 -18l-4 -64q2 -23 4 -65l-8 -29v-20q-2 -10 -2 -21z M330 1645q-14 0 -29 -43l-18 -56l43 19q-2 23 4 80zM725 936l2 41q-14 0 -25 -2h-24q-35 0 -41 26l31 -81l-17 -15h33q27 33 41 31zM791 872q-35 0 -50 -38h37q3 15 13 38zM707 840v28h-19v-28h19zM268 1182l4 -25q0 -23 -2 -35q-6 -8 -53 -63q2 0 16 -10q23 23 34 22.5 t11.5 -6.5t-7 -27.5t-7.5 -23.5q18 -6 12 -39q16 16 33 16l-10 17l12 61l6 25q0 4 2 8v2q0 41 -14 76q12 8 31 30l-4 39q0 9 20 111l-12 16q2 16 2 56t-14 47v12q0 6 -2 18q-25 -6 -21 -22q0 2 -2 4q-6 0 -12 -21q2 20 -10 31l-9 -43q10 0 21 -6q-4 -20 -4 -29.5t-9 -55.5 t-10 -62l29 20l-12 -108q-18 -8 -19 -35zM377 1155l2 19l-29 -21v-18zM465 1016l14 4l-12 31l-14 -9zM424 1051l-18 24q-2 2 -21 4h-4l2 2q-2 2 -2 9h2l-10 30q-8 -6 -27 -18l-12 -49q2 -10 22 -27q14 0 21 23l-6 4v2h12zM481 979l-16 14q-23 0 -33 -12v4q0 27 -14 41l2 -12 q0 -18 -12 -43q-25 18 -52 33q18 -45 19 -76q10 10 24 10q8 -8 50 -33l43 15q-2 4 -3 12q0 -4 11 6q31 30 39 119l-15 -8l2 4q0 -23 -13 -56.5t-26 -40.5l-8 2q0 2 4 7q14 10 17 36l-11 -8v-4zM317 926v18h-26v-18h26zM776 365l6 14l-30 14v-16zM299 834q0 2 -14.5 31.5 t-10.5 37.5q-14 39 -53 39h-2q-6 -16 -6 -36t14 -19l19 -35l14 45q0 -18 39 -63zM680 463l6 133q0 287 -219 287q-61 0 -94 -25q-8 -35 -8 -102l10 -140l-8 -206q0 -25 2 -76q4 -12 4 -17.5t-6 -3.5l8 -24q45 -35 86 -35q145 0 188 80q6 35 18.5 67.5t12.5 61.5zM778 287 l19 28l-29 7l-10 -25zM784 231l19 27h-37v-20zM416 106l33 27l-27 29q-18 -18 -49 -35q-16 27 -54 129q-6 -35 -24 -84q-12 -16 -45 -25q10 -23 57 -49l-14 -4q-23 2 -62 21q0 -25 18.5 -42.5t22.5 -21.5q19 -19 25 -22q49 8 49 90z" />
<glyph unicode="c" horiz-adv-x="919" d="M635 348l-6 21l6 6h-2h127q19 -19 24 -19q0 18 41 18.5t41 -28.5q0 -299 -260 -356q-37 -8 -110 -10l-52 -3q-2 2 -6 3q-141 0 -218 65.5t-107 132.5q-61 133 -62 406q0 485 297 567q45 14 130 14t140 -16q0 -8 9 -23l16 13h6q76 0 147.5 -119t71.5 -203v-18 q0 -49 -14 -64h-2l-6 -4h-37q-10 -2 -25 -2l-28 35l-13 -31h-112l-13 15q2 4 3 12q0 51 -38 92t-87 41q-90 0 -138 -90q-39 -72 -39 -172v-121q0 -287 166 -287h19q53 0 74.5 16.5t39 56.5t17.5 52zM680 1067q0 4 -17.5 11t-17.5 14q-41 23 -45 22q-29 0 -51 -29q29 10 39 5 l-19 -25l41 4h13v-2l-7 -4q6 -23 21 -23q23 7 43 27zM725 940l20 37l-32 -4l-15 -49zM803 926l-21 37h-4q-20 0 -39 -45q2 -2 2 -7.5t-12 -32t-12 -30.5q41 47 37 65l14 -47l18 35q17 0 17 25zM528 1030l13 27l-15 8l-12 -31zM637 1018q-13 -4 -51 -33q-14 25 -11 55 q-14 -14 -14 -45q-8 12 -33 13l-10 -11l-6 -4q-4 6 -8 15l-8 8q2 -25 10 -33t8 -10l-8 -2q-12 6 -25.5 39.5t-13.5 56.5l2 -4l-14 8v-39q-2 -10 -2 -22q0 -43 24 -52q27 -8 27 -14t-2 -10l43 -14q8 8 49 32q14 0 24 -10v6q1 23 19 70zM698 784l27 -10q0 8 -16 45zM375 1016 q-4 -25 -37 -27l-53 2l2 -41h4q16 0 37 -30h32l-16 14q13 39 31 82zM307 854h19l-2 29h-19zM236 848h36q-18 39 -49 39zM524 141l-12 -14q0 -4 2 -14.5t2 -14.5q0 14 43 15q12 -8 16 -15q18 4 23 8q6 17 16 87q-16 -12 -67 -25l-76 -16zM229 352l25 13v16l-31 -14zM227 274 l21 11l-10 24l-29 -6zM221 219l19 6v21h-37z" />
<glyph unicode="d" horiz-adv-x="1007" d="M909 246l13 -39q0 -6 -2 -8l4 -29q0 -6 -6 -16q8 -58 8 -140v-8q-33 -6 -37 -6q-43 0 -58 45q-4 -47 -51 -47l-129 10q-12 0 -12 10v11q2 4 2 13t-8 11q-51 -74 -193 -73l-4 2h2q-2 2 -6 2q-80 0 -190 47q-33 14 -105 98q-90 109 -90 442q0 213 53 342q70 168 244 220 q68 20 123 20t86 -14l53 -25q14 0 15 25q0 92 -5 170q8 8 9 26l-9 66l5 72q0 31 -8.5 41t-8.5 24l6 66q-7 94 0 139q25 -6 41 -6l86 22l56 -16q16 0 28 2h29q59 0 59 -29l-6 -49l6 -526v-49q-4 -12 -30 -33l18 -12l10 -35q10 -78 11 -244l-9 -436v-86zM743 1010l-14 51 q0 6 10 6t17 -12l12 -21v45q0 9 2 11q-16 12 -33 28q-2 12 -2 38t6 44q-8 33 -8 74l12 139q0 72 -22 94l8 2l17 -6l6 55q0 9 -7.5 40.5t-5.5 43.5l-20 23q8 6 20 6l-8 43q-10 -10 -10 -31l-23 -6q2 4 2 8.5t-26 10.5q-4 -18 0 -31q-8 -2 -8 -6t2 -12.5t2 -2.5t6 -69l-14 -16 q23 -113 22 -132l-6 -32q0 -8 8 -17q6 8 12 35q20 -29 27 -49q-4 -10 -14 -18q0 -10 8 -27q0 -14 -20.5 -30.5t-24.5 -20.5l10 -37l-14 -25l30 -30q-14 -35 -14 -76v-2l4 -8v-5q4 -4 4 -20l13 -61l-11 -17q16 0 33 -16q-2 8 -2 20t14 19zM719 922l41 28l-70 -10v-18h29z M780 883q17 -1 17 19.5t-9 35.5h-2q-37 4 -53 -39q2 -2 2 -4q-28 -16 -28 -23q2 2 14 4.5t20.5 6.5t6.5 12l14 -47zM305 1051l-37 -19q-39 0 -39 -26q0 -8 2 -23h2q12 0 39 -49h33q-20 12 -20 53q0 4 17 12t17 29.5t-14 22.5zM246 891h37q-18 39 -50 39q11 -23 13 -39z M274 799l17 65l-37 -2l16 -14zM723 322l12 26l-14 8l-12 -30zM637 328l-6 395q0 20 2 39v39q0 29 -2 33q-18 45 -90 45q-158 0 -203 -156q-18 -72 -19 -285q0 -8 5 -20l26 -88q16 -39 65.5 -64.5t109 -25.5t86 16.5t26.5 71.5zM692 268l-8 -16q4 -2 14 -6l-6 -35q4 0 17.5 8 t19.5 6h4v-2l-14 -16q8 -27 39 -27q4 4 12 43l-12 49q-43 20 -47 21q-6 0 -21 -25h2zM696 176l-22 -4q-6 -14 -20.5 -28.5t-18.5 -20.5q-18 0 -49 35l-25 -29l31 -27q20 6 70 13q0 -61 49 -72q65 45 65 68q-4 -12 -61 -21l-15 4q23 12 58 49zM219 295l33 -6q-4 10 -19 139z M240 219l20 10l-6 23l-45 12zM233 164l19 6v20h-37zM227 102l25 13v16l-31 -14z" />
<glyph unicode="e" horiz-adv-x="946" d="M856 362q24 -12 29 -16q0 -63 -25 -133q-76 -217 -364 -233l-52 -3q-2 2 -6 3q-141 0 -218 65.5t-107 132.5q-61 133 -62 406q0 485 297 567q45 14 184 14q33 0 111 -24q0 -8 8 -23l17 12q27 -4 71.5 -38.5t100 -147.5t55.5 -176q0 -12 -21 -33q6 -18 19 -18q2 -3 2 -17 v-49q0 -112 -15 -135t-53 -22l-290 -2l-25 30l-43 -30q-49 8 -82 8q-68 0 -68 -58.5t27 -116t57.5 -82t102.5 -24.5t115 49q29 35 20 58v8q0 8 8 10h8l52 4q18 -18 24 -18q0 23 60 22zM700 1067q-2 8 -34.5 9t-34.5 9l2 19q2 2 -1 4t-7 2q-37 0 -56 -25q29 10 39 5l-18 -25 l41 4h12v-2l-6 -4q6 -23 20 -23q23 7 43 27zM745 940l21 37l-33 -4l-14 -49zM834 850l-21 37h-2q-20 0 -39 -45q4 -4 4 -13.5t-3 -32t-3 -28.5q23 29 16 70l15 -47l16 34q17 0 17 25zM872 735h2h-2zM549 1030l12 27l-14 8l-12 -31zM657 1018q-13 -4 -51 -33q-12 29 -10 55 q-14 -14 -14 -45q-8 12 -33 13l-10 -11l-7 -4q-10 0 -15 3t-3 12l-8 8q0 -2 29 -43l-19 -2q-12 6 -29 43q-10 31 -10 51l-12 6v-39q-2 -10 -2 -29.5t12 -35.5l25 -13q25 -8 20 -18q37 -4 76 -23q6 4 10 20.5t8 18.5q14 0 25 -10v6q0 23 18 70zM745 774l9 37q0 8 -2 12 l-33 -39zM795 647q-70 58 -58 107h-4q-10 8 -15 8t-5 -27t23.5 -55.5t58.5 -32.5zM332 735l332 -4l-15 53v13q0 -2 -2 1q-8 12 -14 27q-41 72 -141 72q-66 0 -110 -46t-50 -116zM774 614v4q0 8 -22.5 17.5t-33.5 20.5q-21 20 -29.5 20t-30 -16.5t-21.5 -22.5t2 -6 q-18 10 -57 26v-41h6q12 0 37 -30h32l2 2l109 22zM344 934l27 72q-12 -16 -41 -17q45 2 16 2h-61l2 -41h4q16 0 37 -30h32zM307 854h19l-2 29h-19zM465 614l90 4l-2 29h-18zM236 848h36q-18 39 -49 39zM524 141l-12 -14q0 -4 2 -14.5t2 -14.5q0 14 43 15q12 -8 16 -15 q18 4 23 8q6 17 16 87q-16 -12 -67 -25l-76 -16zM203 324l24 12v16l-30 -14zM227 274l21 11l-10 24l-41 -14zM221 219l19 6v21h-37z" />
<glyph unicode="f" horiz-adv-x="770" d="M768 1646l4 -63l-14 -80l8 -43q0 -6 -4 -22q-14 -2 -27 -2l-51 14q-2 0 -9 12.5t-13 12.5q-18 0 -19 -13q0 -4 -10 -4l-55 4q-61 0 -111 -61q-47 -63 -47 -127v-88l-8 -39q0 -20 26 -21l70 15l110 -4q12 0 13 -43l-4 -70l4 -109q0 -31 -6 -59h6q-2 -2 -4 -2h-13 q-14 -2 -92 -2t-92 20l-20 -16q-2 -6 -2 -22l4 -68q0 -16 -16.5 -44t-16.5 -30l29 -37l4 -387l6 -178q0 -96 -37 -96l-33 2q-10 0 -20 -2h-21l-86 18q-4 0 -28.5 -13t-40.5 -13q-31 0 -31 51q0 4 6 43l-2 57v137l8 584l-41 -2q-25 0 -24 113l6 96q0 18 -2 37q-6 12 -6 21 t14 10q-14 0 55 -7l-6 148l4 39q4 76 37 157q104 270 352 271h45q8 0 8 -6q0 -18 20.5 -18.5t34 12t17.5 11.5t46 -7t59.5 -23.5t17.5 -34.5v-14q-2 -6 -2 -15zM664 1513q14 15 13 21t-11 65q-23 0 -23 -43t21 -43zM270 1384v7q0 12 -6 18l-37 -66h43q-2 2 -2 13v14 q2 6 2 14zM512 1001l43 9q8 0 8 -6q4 4 4 9t-2 7v8q0 4 4 8l2 43q-18 -27 -59 -78zM555 924v2q0 27 -14 41q-8 -20 -15 -29q9 -10 29 -14zM262 1147l4 143l-37 21l-12 -137zM252 1026l-6 27q0 2 6 2l16 51q-4 -2 -11 -2t-27.5 13t-28.5 13q16 -10 22 -124q4 4 29 20z M412 772v2v-2zM324 268q-8 14 -35 45l-62 -14v-6q0 -29 58 -29q2 0 17.5 3t21.5 1zM276 176l37 35l-30 29l-17 -25zM289 96l33 23l-46 22l-14 -10z" />
<glyph unicode="g" horiz-adv-x="995" d="M897 236l8 -35q0 -6 -4 -11l4 -28q0 -6 -6 -17q8 -51 8 -143l2 2v-57q2 -27 2 -58q0 -195 -114 -346q-91 -118 -305 -121q-72 0 -127 17q0 8 -7 22l-16 -12q-20 2 -57 25q-172 109 -189 297l-6 43q0 16 21 18h2l6 4h39q10 2 23 2t28 -14l20 12l111 -2q16 0 18 -14l-2 -10 q0 -60 51.5 -89t98.5 -28q143 0 143 237q0 18 -2 43q-4 0 -4 9l4 26l-4 6q-61 -49 -190 -49l-4 2h2q-2 2 -7 2q-145 0 -193 39t-101 94q-98 82 -99 461q0 293 121 455q63 82 176 117q45 14 187 14q80 0 131 -64l6 52l65 10q6 6 21 6l121 -20q18 0 18 10q2 -186 2 -307 l-4 -469q0 -119 2 -131zM856 973q-4 2 -14 24q-41 23 -43 23q-33 0 -51 -29q18 6 25 6t11 -2l-18 -24l41 4h12v-2l-6 -4q6 -23 23 -23q8 7 20 27zM795 889q16 -1 16 19.5t-6 35.5h-2q-37 4 -53 -39v-6q0 -6 -12.5 -32.5t-12.5 -30.5q41 49 39 65l14 -47zM793 805l22 18 l-6 31l-39 -53zM809 770v21l-33 -17l21 -31zM344 907l27 72q-12 -16 -41 -16q45 2 16 2h-61l2 -41h4q16 0 37 -31h32zM307 827h19l-2 29h-19zM821 362l-18 37h-4q-20 0 -39 -45q2 -2 2 -6t-13.5 -30.5t-13.5 -32.5q43 45 39 65l14 -47l17 35q16 -1 16 24zM236 821h36 q-18 39 -49 39zM625 604l10 139q0 29 -10 84q-27 43 -99 43q-201 0 -200 -286l6 -154q0 -28 30 -108q47 -84 154 -84q39 0 78 22.5t39 52.5l-6 47q0 6 4 15v31zM811 66l-6 32q0 6 10 6q21 0 21 29v17q-20 -10 -27 -11q-8 0 -8 15v45q2 14 24 32l-28 25l-27 -31v-10 q4 -53 -20 -72q-31 -20 -33 -32l24 -43q14 -27 37 -27q-12 4 -18 43h16q10 -16 35 -25v7zM819 -29v6q-6 10 -12 27q-10 -12 -31 -47q16 -16 25 -16q22 -1 18 30zM805 -117l20 37l-32 -4l-15 -49zM223 334l25 12l-2 16l-39 37zM233 274l21 11l-10 24l-29 -6zM227 219l19 6v21 h-37zM692 -262l25 -10q0 8 -17 45zM715 -338q0 6 -17.5 13.5t-17.5 11.5q-41 23 -43 22q-33 0 -51 -28q18 6 26 6t13 -2l-21 -25l41 4h12v-2l-4 -4q6 -23 21 -23q23 9 41 27zM565 -375l13 27l-17 8l-10 -31zM672 -387l-49 -33q-16 27 -13 55q-16 -16 -12 -45q-8 12 -35 13 l-8 -13l-8 -2q-2 2 -6 15l-11 8q2 -27 11.5 -34t9.5 -9l-10 -2q-25 11 -39 94l4 -2l-4 4v-2l-13 6q7 -14 0 -39v-22q0 -39 25 -49t25 -16.5t-2 -10.5l45 -14q8 8 49 32q14 0 24 -10v6q1 21 17 70zM190 -244h19v29h-19v-29zM209 -307h37q-18 39 -49 39q10 -23 12 -39z M406 -399q-12 -16 -39 -17q43 2 15 2h-60v-41h6q12 0 37 -30h32q-12 8 -16 14q7 27 25 72z" />
<glyph unicode="h" horiz-adv-x="1042" d="M401 1208l-12 -90q0 -18 8 -26q86 55 162 55q402 -1 402 -572l-7 -450q0 -98 2 -125q-8 -14 -34 -14l-105 18l-47 -12q-35 0 -37 8h4q-12 -12 -41 -12q-10 0 -10 55v37q2 14 2 35l-4 184q0 14 -2 25v22l8 70l-4 180q0 287 -219 287q-41 0 -74 -25q-8 -35 -8 -102l10 -140 l-8 -202q0 -31 2 -80q4 -8 4 -17l-6 -41q0 -10 6 -24q0 -63 2 -117v-117q0 -2 4 -14q0 -4 -28 -4l-144 -16q-47 0 -51 47q-14 -45 -63 -45q-14 0 -17 11q-6 17 -6 54v49q0 39 2 58l10 16q0 4 -7 13.5t-7 19.5t10 41q8 51 8 170l-12 377l4 24l-4 27q0 51 -2 92v90 q0 365 19 379l18 12q-25 20 -28 25.5t-3 36.5v235q0 31 60 31l57 -4l55 12q16 0 39 -10t31 -10l37 6q25 0 24 -51l-4 -86l6 -66l-14 -63l8 -93v-6q-4 -16 -5 -50t3 -56l-16 -17q18 -7 18 -12zM778 872l2 41q-6 0 -16 25t-14 25q-45 0 -50 16q10 -18 13.5 -64.5t7.5 -58.5 l-16 -14h32q25 36 41 30zM778 799v28h-18v-28h18zM227 1278q-48 48 4 82q-10 2 -34 14q6 18 24 49q4 -29 4 -45q12 10 12.5 43t20.5 135l-12 17l4 31q0 49 -14 55v31q-23 -6 -15 -45l-20 6q0 20 -11 30l-8 -43l19 -6l-19 -22v-11l-12 -43q0 -25 6 -55l17 6l6 -2 q-24 -31 -25 -151v-37l10 -90q0 -8 -4 -25q8 -16 8 -36.5t-4 -45.5q-18 -27 -53 -63l16 -10q10 10 35 22l11 -6q-6 -14 -13 -51q14 -6 13 -39q16 16 30 16l-8 17l10 61l6 25q2 2 2 6q2 0 0 -2v8q2 33 -14 74q12 10 31 30q0 6 -12.5 34t-10.5 36zM786 768q-31 0 -49 -39h37 q2 16 12 39zM469 924l14 4l-12 30l-14 -8zM424 985l25 -6q-37 51 -60 51q-4 0 -37 -20q-2 -8 -14 -49q2 -10 22 -27q14 0 21 22l-6 5v2h12l41 -5l-18 25zM397 911v19l-26 -21v-18zM776 365l6 14l-30 14v-16zM236 842q0 2 -13.5 32.5t-9.5 36.5q-18 39 -53 39h-4 q-6 -16 -6 -35.5t16 -19.5l16 -35l15 45q0 -18 39 -63zM778 287l19 28l-29 7l-10 -25zM784 231l19 27h-37v-20zM188 733l5 72h-27v-19zM160 227l-4 -22h2l12 -12q49 8 49 90q-12 18 -15 68t-11 69q-5 -14 0.5 -43t5.5 -35q0 -23 -31 -33q2 -2 2 -21t10 -26l-14 -4l-6 -18 v-13z" />
<glyph unicode="i" horiz-adv-x="546" d="M221 1731l148 6q57 -1 57 -17q0 6 -6 -37q-4 -57 -4 -84l8 -186q-20 -16 -41 -16q-23 35 -26 35t-13 -19.5t-20 -24.5t-136 -6q-45 0 -65 17q-6 47 -6 211v43q0 86 39 88q16 -10 65 -10zM428 205l4 -109q0 -110 -39 -106h-149l-82 -8q-39 0 -39 43t-2 69v62l6 155l-8 299 l6 236l-4 88q0 12 12 24l-12 21l24 18h-6q-16 0 -16 13v14l6 -4h33l-10 22l-29 2q8 33 10 86q14 2 88 3l96 10q100 0 101 -29zM311 1657l21 43l-25 -8zM293 1556l16 33l-16 103l-14 -80zM258 1624l14 53l-30 -32l2 -21h14zM262 1536l17 -31l-7 72l-10 -14v-27zM317 1079v13 l-22 -11l4 -10zM279 1010l10 20q-16 6 -21 8v-6q1 -12 11 -22zM258 885q15 -24 12 -29q8 -14 8.5 -57t-14.5 -103l15 6l6 -2q-18 -8 -15 -45q-4 -6 -8 -24l2 -13l-12 -10v-10q0 -6 2 -20q10 -10 22 -29q0 -4 -18 -53q27 -35 51 -78q4 41 4 82q-6 -4 -26 -8l-17 4 q35 16 45 41q-14 4 -22 14v4l22 10q4 20 11 29q-6 35 -6.5 42t14.5 34l-6 22q8 16 8 53l-12 142q0 59 -5 108q-6 -55 -10 -82h-2q-23 0 -18 66q-16 -4 -23 -8v-35l13 -4l-5 -4l-14 8l-18 -59zM336 358l2 13h-21l-2 -13h21zM334 313l8 19l-10 6l-10 -21zM301 326l-10 34 l-8 -4q-8 4 -17 11q10 -31 13 -58q22 1 22 17zM328 254l-19 -6l-10 10q14 14 20 27q-27 0 -38 16l-21 -18l16 -90q12 -12 41 -25v-29q-25 -4 -39.5 -25.5t-23.5 -29.5q20 0 16 -25q12 29 52 74q2 21 6 121zM334 117q-8 -8 -23 -15q-2 -8 -2 -26q25 23 25 41zM334 12v11 l-25 10l-4 -10zM289 217h28q-4 -6 -8 -22q-16 16 -20 22z" />
<glyph unicode="j" horiz-adv-x="561" d="M197 1720l192 15q43 -1 43 -15l-6 -39q-4 -57 -4 -77.5t4 -98.5l6 -92q-20 -16 -39 -16t-39 2l-51 4q-20 33 -35 33q-6 0 -14 -19.5t-16.5 -22.5t-40.5 -3l-66 8q-6 51 -6 248q0 78 37 79q10 -6 35 -6zM438 -47l4 -107q0 -168 -53 -270q-33 -61 -128 -109t-314 -49 q-23 0 -23 56v14q-2 6 -2 15t8.5 13.5t8.5 13.5t-17 30v90q3 4 10 12t7 12h14q117 -2 170 107q14 27 18 102v4l-4 29q0 23 10 29q-10 16 -10 29l-8 198l8 166l-4 272l4 230l-6 94q0 10 10 24l-10 21l23 18h-7q-16 0 -16 13v14l6 -4h33l-10 22l-29 2q8 33 10 86q14 2 90 3 l95 10q109 0 108 -29l-4 -80q-4 -94 -4 -157l16 -756zM305 1501l17 33l-17 102l-14 -80zM268 1569l17 53l-31 -33v-20h14zM315 1438l9 18l-11 4l-10 -22h12zM270 1470h13l-2 27h-13zM326 1079v13l-23 -11l4 -10zM287 1010l12 20q-12 4 -20 8v-6q0 -14 8 -22zM334 809v12h-21 v-12h21zM330 764l8 18l-10 6l-11 -20zM297 776l-2 2q0 4 -2 13.5t-4 19.5l-8 -4q-10 2 -19 10q10 -31 12 -57q23 0 23 16zM324 705l-19 -7l-10 11q14 14 20 26q-27 0 -36 17l-23 -19l16 -90q4 -10 23 -27l-8 -18q-14 -2 -15 -6q16 -20 0 -31q6 0 7 -8q0 -4 -5.5 -21.5 t-5.5 -21.5q14 35 49 74q3 21 7 121zM328 530q-8 -8 -23 -14q-2 -8 -2 -27q25 23 25 41zM326 436v10l-23 11l-6 -11zM317 -137l5 28l-13 15l-2 90q-29 4 -48.5 4t-18.5 -14q0 -10 18 -27q2 -12 -10 -46t-12 -42q4 -4 22 -8l16 14q43 0 43 -14zM236 -201l6 15l-29 14l-2 -16z M238 -279l18 29l-29 6l-8 -24zM244 -334l18 27h-37v-21zM285 668h28q-4 -6 -8 -23z" />
<glyph unicode="k" horiz-adv-x="1007" d="M389 1116l-4 -348q0 -43 12 -45q31 20 142.5 215.5t142.5 196.5q66 0 117 2h116q41 0 41 -19.5t-147 -239t-147 -266.5q0 -10 16 -35.5t36.5 -75.5t60.5 -106.5t98 -177.5q54 -114 114 -188q0 -4 -10 -14.5t-8 -14.5h-236q-25 0 -37 15.5t-17 22.5t-14.5 22.5t-13.5 21.5 q31 14 78 18l-82 9l-90 180q-74 145 -88 145t-36.5 -43t-39.5 -47q-4 -29 -4 -66.5t4 -74.5q-27 -25 -26 -31l14 -12q12 -10 12 -24.5t2 -24.5v-21q0 -94 -47 -94l-12 4q-37 -4 -60 -4l-170 10q-10 16 -10 57q0 256 2 461v801q-2 150 -2 338q0 84 74 84q23 0 59 -2l13 -14 q0 -25 -9 -50q6 6 14.5 34t47.5 32h29q68 0 67 -47l-14 -119v-14q14 -295 14 -338v-49l-18 -29zM211 1638l8 17l-43 14v-16zM145 1645l13 51h-19l-12 -51h18zM150 1565l24 65l-47 -20v-19zM735 1085q-14 -6 -24 -6h-15q-6 2 -14 2t-18 -2q2 -2 2 -10t-8.5 -35.5t-8.5 -36.5 q27 53 86 88zM612 922l21 57q-27 -20 -35 -51zM598 782v119l-23 -41l21 -145q2 28 2 67zM420 629l24 26l-8 19l-30 -19zM748 295l81 -117l-49 115l-32 20v-18zM475 551q0 2 -15.5 9t-18.5 12t1 49q-29 -14 -30 -50q-35 -31 -35 -47v-2q39 -2 39 -16q14 33 59 45zM942 41 l-65 86q-14 4 -29 14v-32q0 -23 24 -23l25 -23q22 -22 45 -22zM262 569l12 70l-14 6l-16 -29zM246 385l20 135l-24 41l-6 -160zM256 313l12 56l-32 -19l-19 -37h39zM270 272l-20 7q-16 0 -31 -15l-2 -39q10 4 33 25zM266 217q-12 -129 -12 -131l-2 -12v-19h29z" />
<glyph unicode="l" horiz-adv-x="532" d="M147 911l-18 50q0 18 6 73l-14 39q10 6 20 6v41q-2 -2 -4 1q-7 10 -10 26l-6 22l-4 93q0 118 3 155t17.5 68t14.5 43q-36 32 -35.5 108t37.5 105h18l112 -8l117 20q23 0 23 -8l-6 -43l8 -719v-43l-12 -12l-13 2l-16 -10q16 -6 16 -34t-8 -36t-8 -10q6 -4 5 -19.5 t-1 -32.5q4 -2 8 -12l-2 -2l-2 10l2 45l15 -16q0 -2 -2 -4l-5 4q2 14 25 31q-4 -168 -4 -287t2 -160v-90q0 -39 -1 -123t7 -209l-63 -2l-50 27l-36 -27l-146 -4q-20 8 -20 31q0 63 4 190l16 93q18 0 19 34q0 4 -7.5 4.5t-9.5 2.5v24l-18 -12l4 49q20 0 27 -6q-2 23 -11 31 q-2 6 2 8l-14 51q0 6 9 6t18 -12l12 -21v45q0 8 2 11q-16 12 -33 28q-2 12 -2 38t6 44q-2 10 5.5 39t7.5 35l18 102q0 12 -20.5 34t-20.5 28l-8 69l8 3zM319 1620l19 63h-43q12 -28 24 -63zM391 1473l-22 16l8 18l-23 -6l-6 2l29 25l-55 28q6 8 6 33q-12 -2 -37 -10 q6 -2 18 -14v-4q0 -8 -4 -29l25 6l12 -4q-10 -14 -55 -59l45 -23l-8 -14l6 -13q16 21 16 48h45zM346 1425l-10 -12v-33q10 25 10 45zM317 1350l11 10l-15 18l-12 -12zM260 1309l55 16q-25 0 -24 27h-41zM319 1245l13 10l-27 29l-10 -12zM264 1239q-16 -4 -28 -12l-3 -74 q31 49 31 86zM217 51l2 41h-43l-2 -41h43zM176 8l90 10v5q0 16 -10 26q-25 -10 -80 -41zM121 690l-4 98q2 27 5 27t5 -4q11 -4 27 -27q0 -8 -11 -43l-20 -53q0 -14 -2 2z" />
<glyph unicode="m" horiz-adv-x="1599" d="M94 846l-10 217q0 49 10 65l33 21h49q4 0 4 -18.5t5 -18.5t14.5 15t16.5 17.5t81.5 2.5t79.5 -2q0 -35 20 -53q92 55 162 55q203 0 299 -123v14q0 -8 5 -8t44 29l47 33q92 55 162 55q252 0 340 -172q62 -119 62 -400l-7 -450q0 -96 2 -125q-8 -14 -34 -14l-105 18 l-47 -12q-23 0 -35 6l-41 -10q-6 16 -6 118l-4 193v25q-2 10 -2 22l10 70l-4 180q0 287 -221 287q-59 0 -90 -95q20 -109 20 -241v-166q-2 -74 -2 -184.5t4 -196.5q-8 -14 -34 -14l-105 18l-47 -12q-23 0 -35 6l-41 -10q-6 16 -6 118l-4 193v25q-2 10 -2 22l10 70l-4 180 q0 111 -37 184q-45 100 -145 101q-119 0 -119 -156l8 -129l-8 -182q0 -31 2 -80q4 -8 4 -17l-6 -41q0 -10 6 -24l4 -234v-8q2 -2 2 -8t-30 -2l-142 -16q-47 0 -51 47q-14 -45 -63 -45q-20 0 -23 65v49q0 20 4 58l8 16q0 4 -7 13.5t-7 17.5q0 -10 4 2q14 66 14 211l-12 377 l4 24zM1352 872l2 41q-6 0 -16.5 25t-14.5 25q-37 0 -47 10q2 -39 18 -117l-16 -14h33q27 32 41 30zM1352 799l2 28h-19l-2 -28h19zM1360 768q-31 0 -49 -39h37q2 16 12 39zM1042 924l15 4l-13 30l-14 -8zM997 985l25 -6q-37 51 -57 51q-6 0 -39 -20q-6 -14 -13 -49 q2 -12 21 -27q14 0 20 22l-4 5v2h11l43 -5l-21 25zM971 911l2 19l-29 -21v-18zM1350 365l6 14l-29 14l-2 -16zM1352 287l18 28l-27 7l-10 -25zM778 872l2 41q-6 0 -16 25t-14 25q-37 0 -48 10q2 -39 19 -117l-16 -14h32q27 32 41 30zM1358 231l20 27h-37l-2 -20zM778 799 l2 28h-18l-2 -28h18zM786 768q-31 0 -49 -39h37q2 16 12 39zM469 924l14 4l-12 30l-14 -8zM424 985l25 -6q-37 51 -58 51q-6 0 -39 -20q-6 -14 -12 -49q2 -12 20 -27q14 0 21 22l-4 5v2h10l43 -5l-20 25zM397 911l2 19l-28 -21v-18zM776 365l6 14l-28 14l-2 -16zM223 987 q0 39 -14 74q-14 -20 -35 -57q-6 -8 -18.5 -10.5t-16.5 -10.5l-2 -53q8 8 33 22l12 -6q-6 -14 -12 -51q16 -6 10 -39q16 16 33 16l-8 17q18 118 18 98zM778 287l19 28l-27 7l-10 -25zM784 231l21 27h-37l-2 -20zM242 721q0 4 -14.5 33.5t-10.5 36.5q-14 39 -51 38h-4 q-6 -14 -6 -34.5t14 -20.5l18 -35l15 45q0 -18 39 -63zM197 629l4 71h-27l-2 -18zM254 176q-12 18 -15 68.5t-12 68.5q-10 -57 -20 -76.5t-47 -31.5q8 -20 55 -49l-12 -4q-25 2 -64 20q2 -27 66 -86q49 8 49 90z" />
<glyph unicode="n" horiz-adv-x="1042" d="M399 1135q-8 -26 -8 -31.5t6 -11.5q92 55 162 55q252 0 340 -172q62 -119 62 -400l-7 -450q0 -98 2 -125q-8 -14 -34 -14l-105 18l-47 -12q-35 0 -37 8h4q-12 -12 -39 -12q-12 0 -12 37.5t2 54.5v35l-4 184v25q-2 10 -2 22l10 70l-4 180q0 285 -192 285q-37 0 -70 -30 t-33 -73t2 -78v-84l-8 -202q0 -31 2 -80q4 -8 4 -17l-6 -41q0 -10 6 -24l4 -234v-8q2 -2 2 -8t-30 -2l-142 -16q-47 0 -51 47q-14 -45 -63 -45q-20 0 -23 65v49q0 20 4 58l8 16q0 4 -7 13.5t-7 17.5l8 39q10 74 10 174l-12 377l4 24l-4 27l-10 217q0 49 10 65l33 21h49 q4 0 4 -18.5t4 -18.5l33 33h162q20 0 20 -10zM778 872l2 41q-6 0 -16 25t-14 25q-45 0 -50 16q10 -18 13.5 -64.5t7.5 -58.5l-16 -14h32q27 36 41 30zM778 799l2 28h-18l-2 -28h18zM786 768q-31 0 -49 -39h37q2 16 12 39zM469 924l14 4l-12 30l-14 -8zM424 985l25 -6 q-37 51 -58 51q-6 0 -39 -20q-6 -14 -12 -49q2 -12 20 -27q14 0 21 22l-4 5v2h10l43 -5l-20 25zM397 911l2 19l-28 -21v-18zM776 365l6 14l-28 14l-2 -16zM223 981v6q0 39 -14 74q-14 -20 -35 -57q-6 -8 -18.5 -10.5t-16.5 -10.5l-2 -53q8 8 33 22l12 -6q-6 -14 -12 -51 q16 -6 10 -39q16 16 33 16l-8 17l10 61l6 23q0 6 2 8zM778 287l19 28l-27 7l-10 -25zM784 231l21 27h-37l-2 -20zM242 721q0 4 -14.5 33.5t-10.5 36.5q-14 39 -51 38h-4q-6 -14 -6 -34.5t14 -20.5l18 -35l15 45q0 -18 39 -63zM197 629l4 71h-27l-2 -18zM195 141q4 2 13.5 2 t27.5 -12q2 2 2 14q-8 18 -13 158q0 154 -14 191q-2 -6 -2 -17l6 -65q0 -37 -33 -45q2 -2 2 -13l-10 -59q0 -14 8 -16l11 -72q-20 2 -27 16q0 -53 29 -82z" />
<glyph unicode="o" d="M903 666q8 -58 8 -97.5t-4 -64.5l2 -2q-2 -246 -84 -367q-94 -143 -329 -155l-54 -3l-4 3q-236 0 -323 198q-63 135 -63.5 412t87.5 409q106 166 373 166q51 0 106 -16l9 -23l16 13q78 -8 150 -109.5t93 -195.5q28 -122 17 -168zM680 1067q0 4 -17.5 11t-17.5 14 q-41 23 -45 22q-29 0 -51 -29l26 7l13 -2l-19 -25l43 4h11q0 -4 -7 -6q6 -23 21 -23q23 7 43 27zM725 940l20 37l-32 -4l-15 -49zM803 926l-21 37q-20 4 -43 -45q2 -2 2 -7.5t-12 -30t-12 -32.5q41 47 37 65l14 -47l18 35q17 0 17 25zM764 805l24 -10q0 8 -16 45zM543 958 l18 78l-14 27l-12 -49zM831 655l11 47q-14 12 -39 46q4 18 8 24q-12 -2 -24 -2t-54 12q29 -35 39 -47q-29 -16 -53 -16q14 -12 45 -8q-10 -10 -8 -25v-10l12 -8l4 -6l-10 -11h-4l-6 -10q8 2 39 25l4 -9q-12 -39 -90 -49l-5 -12q18 2 54.5 5t43.5 10t11 32q2 14 22 12z M344 934l27 72q-12 -16 -43 -17h-23q-8 2 -20 2l2 -41h6q14 0 35 -30h32zM307 854h19l-2 29h-19zM236 848h36q-18 39 -49 39zM643 526h-2v39q2 109 -23 199q-37 127 -118 127q-94 0 -137.5 -78t-43.5 -182v-121q0 -127 25 -188q41 -98 148 -99q137 0 151 303zM598 106l6 87 q-12 -12 -63 -27q-51 -10 -70 -14l53 -11l-12 -14q0 -4 2 -14.5t2 -14.5q0 14 43 15l16 -15zM229 352l25 13v16l-31 -14zM227 274l21 11l-10 24l-29 -6zM221 219l19 6v21h-37z" />
<glyph unicode="p" horiz-adv-x="1017" d="M184 1143l160 -17q4 0 4 -22t4 -23q16 0 49 19.5t35 19.5q43 20 144 21l12 -15q4 10 14 11q111 0 164 -43q45 -29 96 -80q99 -84 99 -461q0 -479 -297 -561q-43 -12 -129 -12h-31l-86 20q-23 -12 -23 -39l4 -65l-12 -43q-8 -8 -8 -11q16 -4 16 -22l-6 -127q0 -47 7 -57.5 t8 -24.5l-7 -66q2 -23 4.5 -50t-4.5 -68q-25 6 -41 6l-86 -23l-55 17q-16 0 -29 -2h-28q-59 0 -60 28l7 49l-7 160q0 35 2 40t29 28l-18 12l-13 35l-4 508l4 467v129l-12 37q0 6 2 8l-4 28q0 8 6 17q-8 57 -8 157v9q60 10 66 10h2q16 0 26 -29q0 25 4 25zM743 958h27v19h-29 zM770 870h37l-19 27l-18 -6v-21zM772 807l29 6l-19 29l-20 -11zM756 735l30 15l-6 14l-24 -12v-17zM424 901l25 29l-33 26q-20 -6 -70 -12q0 80 -49 90q-6 -3 -17.5 -14.5t-19.5 -19t-12 -13.5l-8 -12q-9 -13 -9 -27q8 12 64 21l12 -4q-20 -12 -55 -50q31 -10 43 -24 q10 -43 24 -84q16 45 56 129q14 0 49 -35zM379 512l-10 -139q0 -68 8 -103q33 -25 94 -24q219 -1 219 286l-6 154q0 31 -31 109q-47 80 -200 79q-49 0 -78 -47q-6 -8 -6 -14l6 -10q0 -6 -2 -8l-2 -76zM795 256q-10 23 -13 39h-37q15 -39 50 -39zM221 664l27 -39q16 -4 35 47 v6q0 6 12 32.5t12 30.5q-41 -49 -39 -65l-14 47l-16 -35q-16 0 -17 -24zM731 152l-2 41h-4q-16 0 -37 30h-33l17 -14q-12 -39 -31 -82q4 23 39 27zM274 621l-22 -15l4 -110q16 84 18 125zM528 80l15 -8q-2 12 -8 55q-10 35 -26.5 52t-12.5 30l-43 14q-8 -8 -50 -33h-30 q-31 0 -35 5v-19q0 -31 -8 -49q31 8 82 31q14 -25 10 -56q14 14 14 45q10 -12 33 -12l10 12l6 3q6 -6 9 -15l10 -8q-2 27 -11.5 34t-9.5 9l9 2q12 -6 25 -40t13 -56zM471 78l12 31l-14 4l-12 -27zM328 90l12 -47q0 -4 9 -10t11 -13q36 8 89 37q-18 -6 -26.5 -6t-12.5 2 l18 25l-41 -4h-12v2l6 4q-4 16 -51 16q-2 -2 -2 -6zM354 -25l29 -20l-2 18l-16 27zM301 -186l-4 45q0 12 6 18q0 16 6 49l-28 33q16 34 20 78q-2 4 -6 31l-8 63l10 16q-6 0 -18.5 23t-12.5 25q2 -6 2 -34t-16 -34l10 -49q0 -8 -12 -8t-33 24q-4 -4 -16 -8q18 -20 49 -68 q2 -6 2 -31.5t-12 -49.5l8 -105q-12 -16 -12 -29l8 -43l-13 -6l7 -45q12 8 12 31l29 -57l-5 -25q0 -18 15 -20q4 23 2 30q8 2 8 19l-12 110z" />
<glyph unicode="q" horiz-adv-x="1009" d="M692 1130l88 15q47 0 51 -47q14 45 58 45q4 0 37 -6v-9q0 -100 -8 -157q6 -8 6 -17l-4 -28q2 -2 2 -8l-11 -37q-2 -8 -2 -158.5t9 -366.5q0 -166 -11 -243q-4 -12 -10 -35l-18 -12q27 -20 30 -33v-47l-6 -508l6 -29q0 -29 -59 -29h-29q-12 2 -28 2l-56 -12l-82 19 q-16 0 -45 -7q-6 41 -4 54l4 65l-6 49q0 10 8 19.5t9 42.5l-5 72l9 65q0 18 -9 27q9 178 2 178q-35 -20 -45 -14h-4l-61 -9q-256 0 -367 164q-94 137 -94 444.5t90 415.5l47 56q27 29 58 43q102 43 198 43q6 0 6 2h-2l5 2q125 0 194 -47q4 0 4 4l-6 28q0 4 51 4zM872 999 q0 26 -18 43t-22.5 21t-12.5 12t-12 10q-49 -8 -49 -90l-70 13l-33 -27l27 -29q20 20 47 35q12 -4 41 -49q16 -4 20 -4t31 16.5t31 16.5q-6 20 -55 49l14 4q22 -3 61 -21zM852 840l12 49q-2 12 -20 26q-14 0 -21 -22l4 -4v-2h-12l-41 4l21 -25q-6 -2 -13.5 -2t-25.5 6 q16 -22 96 -30zM782 784l70 -10l-41 29h-29v-19zM840 352l26 21l-22 123zM250 913l-31 82l17 15h-33q-25 -35 -41 -31l-2 -41q14 0 24 2h25q35 0 41 -27zM864 199q6 14 6 34.5t-16 20.5l-16 35l-15 -45q0 8 -20.5 13t-22.5 7q0 -4 8.5 -9t15.5 -10t5 -7q16 -43 51 -39h4z M637 293l-6 108q0 31 2 56v55q0 154 2 180l4 107q0 39 -4 51q-57 33 -113 33q-127 0 -172 -88q-6 -35 -18 -67.5t-13 -41.5q0 -215 19 -285q45 -156 203 -155q61 0 94 24q2 6 2 23zM231 776v29h-18v-29h18zM238 713v16l-25 12l-4 -14zM238 653v21l-19 6l-18 -27h37zM236 590 l10 24l-21 11l-16 -29zM250 561h-37q-2 -16 -12 -39q31 0 49 39zM600 158q6 -6 12 -4t8.5 2t10.5 -4q-4 12 -4 16t3 16.5t3 16.5q-10 -10 -25 -11q-8 8 -49 33l-43 -14q2 -4 2 -12l-18 -21l-19 -20l-4 -27l15 8l-3 -6v2q0 27 31 39l8 -2q0 -2 -8 -10t-10 -33l8 8v4l8 11 l6 -3l11 -12q23 0 32 12v-4q0 -27 15 -41q-2 12 -2 21.5t12 34.5zM840 57l47 70l-17 8q-20 -27 -31 -26.5t-12 8.5l9 49q-16 6 -15 39q-14 -18 -30 -19l10 -16l-6 -64l-4 -24q0 -4 -3 -6q4 -44 21 -78q-10 -10 -27 -33q8 -31 9 -61q10 -10 14 -49q-8 -16 -25 -33 q20 -4 35 -10q-2 -14 -20 -52q-4 14 -9 43q-10 -10 -10 -26l4 -56l-10 -110l14 -14v-25q0 -63 21 -72q0 -4 4 -28q14 2 14 15t-6 30l23 -4q0 -20 12 -31l4 45h-2q-6 0 -18 4l18 25q-2 8 -2 16l6 39l-10 63l-17 -8l-6 2q18 23 18.5 146t8.5 163q-14 27 -12 66v14zM541 78 l14 8l-12 27l-15 -4z" />
<glyph unicode="r" horiz-adv-x="735" d="M94 997l-4 95q0 4 4 28l33 21h49q4 0 8 -6t6 -7q-6 0 6.5 4.5t41.5 4.5t51 2h49q51 0 61 -13q2 -2 2 -65q0 -10 9 -10q8 18 43 51q53 53 139 53t135 -51v-227q0 -25 -16 -25q-65 29 -128 29t-125.5 -44t-62.5 -120v-101l-8 -202l4 -97l-4 -41q0 -10 6 -24v-117 q2 -51 2 -85t4 -46q0 -4 -28 -4l-144 -16q-47 0 -53 47q-14 -45 -63 -45q-14 0 -17 14q-6 68 -6 94t4 64l10 16q-8 4 -10 19q-4 4 -4 12l8 43q8 51 8 170l-10 377l4 24zM684 1034v29h-18l-13 -47q15 12 31 18zM690 952l-6 43q-35 0 -49 -39l55 -8v4zM469 924l14 4l-12 30 l-14 -8zM422 985l27 -6q-20 33 -87 33q-8 0 -12 -2l-12 -49q2 -10 22 -27q14 0 21 22l-6 5v2h12l41 -5l-18 25zM397 911v19l-26 -21l-2 -18zM221 948l-28 49q-6 0 -19.5 19.5t-13.5 23.5q-2 -20 -2 -61v-23q0 -47 6 -65l-2 -25l18 11q25 36 41 30v41zM229 809l-4 72 q-4 4 -6 4t-12 -11l6 -18v-2q0 -8 16 -45zM240 721q0 4 -13.5 33.5t-9.5 36.5q-14 39 -53 38h-2q-8 -14 -8 -34.5t16 -20.5l18 -35l13 45q0 -18 39 -63zM225 643v6q0 39 -14 74q-14 -20 -35 -57q-4 -6 -16.5 -10.5t-18.5 -10.5l-2 -53q8 8 33 22l12 -6q-6 -14 -12 -51 q16 -6 10 -39q16 16 33 17l-8 16l10 61l6 23q0 6 2 8zM254 176q-16 20 -19 72.5t-8 64.5q-10 -57 -16 -67q-12 -29 -53 -41q10 -23 57 -49l-14 -4q-23 2 -62 20q0 -14 6.5 -23.5t10.5 -15.5t12 -13t12 -12q16 -18 25 -22q49 8 49 90z" />
<glyph unicode="s" horiz-adv-x="925" d="M113 375l141 8q18 0 47 -4q27 -16 29 -27v-35q0 -45 41 -72.5t94 -27.5q96 0 96 90q0 37 -80 84t-82 68l-22 -6q-53 39 -152 88q-72 66 -105.5 124t-33.5 148q0 168 105.5 261t258 93t255.5 -53q66 -37 112.5 -130t46.5 -173v-20q2 -11 2 -32.5t-14 -21.5h-43 q-18 2 -41 2l-84 -10q-86 0 -86 43q0 129 -111 129q-39 0 -71.5 -25.5t-32.5 -63.5t70 -89q176 -106 264 -162q145 -102 145 -260t-122 -241t-299 -83t-283.5 88t-106.5 267q2 12 8 37q14 12 25 12zM725 899l4 109l-45 -41q2 -4 6 -20.5t6 -24t10.5 -15.5t18.5 -8zM750 803 q11 7 26 16q-14 0 -26 23q0 10 -5 26l-6 4q-10 -6 -18 -18h-6q-10 0 -19 20l-43 -26l2 -60l4 -2l17 9q20 -20 39 -18q32 5 55 5zM266 918h33l-18 36q0 4 2 7q0 6 -13.5 8t-13.5 6t2 6v-2q12 33 12 47t-4 14t-20.5 -25.5t-22.5 -25.5l2 -41h4q17 1 37 -30zM307 834l6 49h-18 l2 -29zM262 840l4 49q-2 8 -10 8t-23.5 -5t-19.5 -5q24 -18 49 -47zM813 356l-14 -18q-2 4 -2 15t2 20l-21 30q-14 -16 -10 -34q-14 -8 -35 -33l-33 -12l5 20q0 10 -21 31q-6 -20 -33 -19v-6q0 -6 4 -43l27 12h6q8 0 36 6.5t34 6.5l-4 -2q14 -10 47 -17q6 14 12 43zM311 752 h-4q-18 0 -19 22.5t-7 32.5q-10 -4 -19 -31l-10 31l-14 -64l6 -10l8 2l-2 -4l20 -4l-32 -43q0 -10 22 -39l12 31q4 10 9 8q4 12 8 35t22 33zM285 643l-17 -67q0 -9 2 -13l43 51q-4 41 -9 41t-19 -12zM141 240l43 2l-20 16l-39 -10zM168 127l27 98h-23q-18 -4 -55 -14 q8 -45 51 -84z" />
<glyph unicode="t" horiz-adv-x="679" d="M424 475l-4 -29v-4q6 -96 34 -145q42 -74 189 -68q2 -6 8 -12q8 -8 6 -27v-10q2 -38 2 -63q0 -2 -14 -17l14 -37v-18q-2 -8 -2 -18q0 -49 -22 -50l-115 5q-160 0 -223 32q-170 84 -170 279q4 0 16 -12q-2 20 -7 28t-3 10l-12 52q0 6 8 6t18 -17l13 -16v45q0 6 2 10 q-16 12 -33 29q-4 25 -4 44.5t8 37.5q-4 10 3 40t7 34l15 90q0 12 -17.5 30.5t-19.5 24.5l-6 88l6 2l18 -6l-18 49h-72q-18 14 -18 54.5t2 58.5v43q0 16 -6 47l-7 31q0 31 43 34l68 5q4 119 4 164.5t-4 127.5l-4 62q0 29 109 29l96 -11q10 0 18 2h21q16 0 49 -4 q8 -33 10 -86l-27 -2l-12 -22h33l6 4v-15q0 -21 -22 -12l24 -18l-12 -21q12 -12 12 -24l-8 -74l4 -102q41 10 78 10l115 -4q12 0 12 -43l-4 -70l6 -108q0 -33 -6 -60h4q-12 -4 -84 -4t-117 4l-8 -326q0 -12 -10 -28q10 -4 10 -29zM145 680q0 -8 -10 -43q0 -28 -16 -64v134 q10 -4 26 -27zM276 1421l17 31l-41 10l-16 -24zM281 1397l-33 6h-2l16 -55q23 22 23 49h-4zM551 950q47 1 47 11t-12 22q-23 0 -47 -6v16l18 31q8 -2 31 4l-17 27q-14 -8 -21 -8t-7 6t3 11t25.5 27.5t22.5 24.5h-31q-2 -2 -2 -18l-6 -2v-2q6 0 -18 8l2 -2l-2 -25h-19 q14 -31 14 -51t-8 -70q31 -55 62 -71q12 10 12 20l-4 4q-37 16 -45 43h2zM301 1212q-12 -8 -18 -10l-9 4l-10 -35q0 -16 25 -16q2 26 12 57zM229 1204h21l-2 13h-21zM231 1159l13 4l-11 21l-10 -6zM281 969l10 18q-4 6 -17 6l-8 19q4 6 25 26q0 39 14 90l-20 19 q-4 -4 -2 -19l-7 -8v-2q0 -4 -6 -7t-4 -7l-8 -10l-20 6l8 -121q10 -4 19 -21.5t30 -52.5l-10 43q0 8 4 8q-8 6 -8 13zM260 885q0 10 -4 26q-14 6 -23 15q0 -21 27 -41zM326 430q0 8 -22.5 26.5t-22.5 28.5q25 23 24 43q0 29 -37 29q-8 0 -14 -2v-90q0 -2 -7 -6t-7 -7 t2 -14.5t2 -15.5q0 14 43 14q12 -8 16 -14q19 4 23 8zM590 168l24 12l-2 17l-49 -11zM592 111l18 10l-8 24l-29 -6zM305 375v6q-23 0 -39 -2l31 -27q8 9 8 23zM594 35l18 6v20l-59 13zM248 1063h28q-4 -6 -20 -23q-4 17 -8 23z" />
<glyph unicode="u" horiz-adv-x="1044" d="M686 1149l125 -4q104 -10 111 -12q41 -23 41 -367l-7 -354l5 -4q0 -233 -101.5 -336t-344.5 -103t-339 127q-82 106 -82 365l4 227q0 68 -14 113q12 39 12 88l-14 186q0 10 10 55l10 9q35 10 70 6h107v-23q23 20 59 21h6q8 -4 35 -4l24 -37l7 -478q0 -81 1 -124l2 -86 q2 -76 15 -111q29 -78 111 -78t100 121q4 33 4 126t4 122q-27 45 -26 166l6 225q0 84 -13 121q16 43 72 43zM862 1073h17v10h-17v-10zM860 1042l8 23h-8l-10 -18zM764 1053l35 18l-11 6l-32 -18zM848 1063q-29 4 -45 10q2 0 2 -4q0 -12 -45 -27v-61q35 10 39 41 q12 -8 18 -10q10 2 23 14q-4 12 -4 19.5t12 17.5zM823 971l25 6l-17 14q-8 -6 -8 -20zM834 913h8l-6 21l-11 -4zM745 1038q0 10 -38 11l-15 -9q12 -12 33 -22q14 12 20 20zM788 932l11 14l-29 4l-6 -14zM760 907h49l-43 11zM711 778l-11 -65l9 -39l12 4h4q2 0 6 -2 q-23 -16 -22 -86v-58q0 -4 4 -22t4 -17.5t-6 -41.5q8 -14 8 -29v-29l-49 -45l14 -6q16 14 33 14l10 -4q-8 -10 -10 -35q16 -6 12 -28q16 12 47 12l-26 12q27 47 32 64q-2 20 -32 55q14 2 45 23l-7 47h-24q-25 23 -25 37q14 6 43 20q-43 8 -49 10q2 10 23 35q4 -20 4 -31 q14 13 43 140l-12 10q2 25 2 39q0 49 -33 57q0 16 -2 21q-14 0 -15 -13q0 -2 5 -18l-23 4q0 12 -10 23l-6 -31l18 -4l-16 -17v-6zM285 950h12v19h-12v-19zM317 1012q0 19 -6 53q-51 -27 -118 -27q-27 20 -48 21q-12 -31 -12 -47q2 2 14 20q8 -23 3 -39q8 -8 24 -35 q14 18 10 39q23 27 32 32t48 18q-4 -20 -4 -23.5t25 -32.5q1 25 32 21zM176 915l14 15l-6 6l-16 -14zM152 872l18 9l-4 6l-14 -6v-9zM127 895h25v8h-25v-8zM727 233l25 29l-25 17l-8 -5zM166 836l-12 12l-7 -41q15 13 19 29zM143 877v2l-16 -11l-4 -53q20 35 20 62zM682 215 l31 27q-10 10 -6 71h-25q10 -10 10 -24zM748 121l24 33v75q0 25 -6 31q-14 -29 -27 -49l-10 10v-22q-6 2 -6 5t2 5v6q0 4 -2 6l-29 -20q12 -4 19 -8l-13 -13l21 -4q-8 -2 -21 -12q14 -6 25 -47q6 6 10 37l4 41q16 -10 16.5 -39t-7.5 -35zM166 754l-10 26l-17 -20q9 -6 27 -6 zM203 621h10v20h-10v-20zM178 469l49 20q9 -2 23 -6l-19 31q-6 -31 -43 -31q-4 0 -10 2q6 4 23 54l10 4q-27 0 -27 28l6 47q-14 0 -24 7v12q27 8 27 25q-16 6 -27 12q12 10 18 18q-23 10 -28 23l-15 -29q0 -25 2 -51v-53q0 -29 -4 -74q14 -31 15 -55q6 -6 22 -7l21 15 q-16 4 -19 8zM295 446l6 -137q0 -2 -6 -22l37 -6v30q-30 19 -10 47l-5 9v12l-4 45q0 55 13 63zM268 342l19 6l-2 6l-17 -6v-6zM186 420l13 6q0 12 -13 20v-26zM344 197v51l-22 20l4 -10q-29 -18 -31 -45q8 -6 49 -16zM455 61l26 -32l-10 43q0 76 -55 75h-13q14 -27 25 -77 l23 20l6 -18zM307 184l8 15l-10 2l-8 -15zM346 125l-37 59q-14 -12 -28 -12q20 -7 14 -33q12 0 20 4l11 -8l-27 -22q33 0 47 12zM813 1059h10v-19h-10v19zM739 774v-10q-6 2 -18 10l16 10q2 -6 2 -10zM762 729v-18h-12v18h12zM727 741l21 -14l-25 -18l8 22zM784 631l-34 6 q-8 -6 -9 -21z" />
<glyph unicode="v" horiz-adv-x="1077" d="M811 1147l79 -2q28 0 70 -1t87 -1q-63 -231 -103 -365q-20 -88 -65 -205q-29 -12 -29 -26t12 -21q-33 -88 -76 -248t-84 -268l-40 -22q-20 0 -39 -2h-41q-37 0 -60 6l-33 28l-14 -16l-123 -12q-8 4 -39 35q-25 63 -77 270t-103 459q8 18 8 42t-35 40q-6 43 -41 137 t-34 151q12 0 22 11h17l120 6q84 0 162 -13l17 -22l-4 -21l47 -235q2 -2 4 -2q-15 -20 -15 -21l25 -22q0 -25 12 -59q8 -59 6 -62l2 -16h-2l13 -49l-15 -5l19 -16q0 -4 2 -8v-2q0 -4 -4 -9.5t-4 -9.5l2 2q2 0 20 -41q10 -6 10 -65q0 -6 9 -21q0 -29 8 -30l4 -37q5 -8 8 -14 q5 -15 10 -15q17 17 19 88h22l-20 19q8 33 33 84l-13 10v14q23 23 31 76l-10 10l6 25l16 -2l-2 8h10l-18 16q0 51 43 74l-18 4l14 12h-10l-4 25l20 16q-2 23 -2 37q0 86 45 150l-6 12q16 29 18 64l-10 -13q18 68 111 68h10zM817 1049q-2 0 -18 4l-54 -6h5l65 -5l2 -2l2 9h-2 zM772 1022l29 10l-19 4q-2 -4 -14 -16l6 -2zM817 967q6 30 6 34t-4 9l-10 -43h8zM784 961l4 6l-45 10v-6zM805 887l20 6l-6 8v-2l-14 -4v-8zM780 842l41 -4v20q-6 8 -22 19h-23zM793 805l2 2l-2 2v-4zM676 858l18 12l-8 4l-18 -10zM678 821l20 6l-4 7l-16 -5v-8zM295 1022 l29 12q-4 0 -8 3q-12 8 -25 12q2 4 12 14l-16 10l-4 21q-10 -4 -17 -17q-18 10 -22 13v-5q0 -12 -8 -20v-8q0 -17 59 -35zM244 922q0 -27 20 -23h2l8 53q-10 4 -30 15l-15 4q2 2 2 5.5t-18 8.5l18 16q-25 -25 -45 -49v-61q31 10 50 18l-31 21l28 10l13 -14q-2 -2 -2 -4z M295 776l6 23l-6 22q-2 -10 -12 -26l-9 -2h-2v-2l2 -11q0 -2 -2 -2zM274 831l2 5q-4 8 -10 14l6 35h-6q-10 0 -14 -11q-18 0 -37 -6l35 -24l-27 -10q12 -8 35 -17l-25 -2l-12 -14l2 14l-18 -8v-2q0 -5 7 -11q13 -12 9 -16q12 -12 33 -26l6 14l-2 -8q-23 18 -22.5 32.5 t21 20.5t19.5 10v6q-2 2 -2 4zM313 659h21l6 7l-8 8l-35 -6q2 -12 16 -29l17 4l8 6q-16 6 -25 10zM602 285l-10 14q-4 0 -12.5 -11.5t-11.5 -11.5t-7 5q0 -4 -2 -7l-2 2q-2 -2 -2 -6l33 -30q0 4 14 45zM586 211l4 8q-14 14 -29 25l-16 -19v-6q18 0 41 -8zM590 186l-2 9 l-2 -2q-20 4 -31 10v-31h2q4 0 16.5 7t16.5 7zM371 379l-9 -4l7 -6q2 4 2 10zM371 365l-2 4l-4 -11q6 3 6 7zM553 145l43 13l-6 6l-37 -10v-9zM586 137l-21 -18l10 -43l5 10v10q-2 4 -2 8.5t4 16.5t4 16z" />
<glyph unicode="w" horiz-adv-x="1607" d="M1348 1147l78 -2q26 0 66 -1t85 -1q-49 -213 -76 -320q-61 -244 -100 -276l10 -15q-20 -61 -67.5 -244.5t-81.5 -275.5l-41 -24l-74 -2q-33 -2 -60 6l-24 28l-6 -16l-121 -12q-18 12 -41 39q-33 92 -55.5 208.5t-55.5 280.5l-59 -256q-33 -143 -72 -252l-41 -24l-75 -2 q-31 -4 -60 6l-22 22l-9 -10l-120 -12q-18 12 -41 39q-59 166 -107.5 397.5t-48.5 359.5q0 25 -33 39q-2 33 -34 128.5t-31 158.5q4 25 22 25l129 4q88 0 162 -13q20 -14 21 -28l-5 -21l41 -227l5 -10l-13 -17l23 -20q-2 -20 10 -57l10 -78l-4 -6q0 -2 14 -54l-6 -2l6 -6 l3 -14l-7 -15l7 -12v-2q23 -29 22 -41l-10 -36l16 -87l10 -6q6 25 7 60h4l-6 8q8 10 18 45l10 35l-6 8l-2 22q18 18 29 68l-11 10l9 39l6 -8q4 4 4 10l-6 4q0 49 24 72l-10 4l12 14l-4 31l19 16l-2 31q-6 74 39 150l4 10q16 10 0 20l-13 -14q8 37 27 84v18h6l19 11l20 -4 q29 12 47 12h27q54 -4 211 -4l-11 -33l7 -8l-4 -21l40 -227l7 -10l-15 -17l23 -20q-2 -20 10 -57l10 -78l-2 -6l2 -4q0 -1 8 -33l-14 -21l17 -4l2 -14l-5 -15l5 -12v-2q14 -23 14 -52t10 -50l-4 -15l6 -26q6 -8 6 -21l9 -12q4 37 4 66h4l-6 8q8 10 18 45l10 35l-6 8l-2 22 q18 18 29 68l-11 10l9 39l10 -2q8 2 8 8h-14q0 49 24 72l-10 4l12 14l-4 31l19 16l-2 31q-4 61 22 103l33 53l-8 18l-6 31q14 57 30 70q18 12 84 12h11zM1450 1108q54 10 86 -6l6 22q0 -4 -37.5 -4t-54.5 -12zM1309 1042l8 -20l20 -14l-16 49l-12 -4q4 -2 8 -13zM1343 938 l15 6l-10 21l-13 -7zM1298 1010l27 -15l-27 27l-22 -6l2 -35l-14 -8l12 -31l10 -2v29q6 6 31 20l-23 2l6 6l-6 9zM1360 922l-12 -7l8 -6zM1339 899l-12 19l-33 -13l-2 -2l21 -20q-8 -14 -29 -17l-18 23l6 6l-15 14l-4 -49q27 -14 45 -18l-2 -6l9 -7q38 41 34 70zM1260 786 l16 7l-12 30l-17 -8zM1313 725l-13 66q-2 -39 -34 -39q37 -23 47 -27zM901 1081l17 4l16 -6l-21 21l-14 -13zM1253 713l35 -11l-4 9v-4l-29 6h-2zM915 1024l7 20l-9 9v-11l-14 -4l4 -10zM1276 635l8 37l-6 6q0 -4 -2 -6l-14 6l-13 -12q4 -6 6 -7l-2 -2zM1243 608l29 -4 l-19 21l-10 -15v-2zM1251 565l19 10l-19 7v-17zM1251 537l33 14l-6 -2h-2l-33 -10l6 -7zM1262 467l10 -2l-8 35l2 8l-2 -2v-6q-2 -6 2 -25zM1325 311l23 127l-25 41l-10 -110q0 -40 12 -58zM782 1034l17 -8q0 10 -17 16l-26 11l18 39l-4 10q-29 -6 -59 -21l-15 15l-6 -17 q-2 -29 47 -57l-10 -78q-12 4 -22 23q4 4 10 20q-25 23 -23 35l-12 -53q0 -33 16 -43q-12 -31 -12 -91.5t21 -68.5v37l16 -10l55 51h-31l-20 -21q4 47 41 90l-4 17l6 10q-18 25 -25 43l19 12q2 8 -2 21zM702 692l13 6l-4 21l-17 -27l8 -6v6zM1006 338l20 8q0 10 -22.5 28.5 t-22.5 26.5q25 20 25 43q0 29 -35 29l-17 -2l15 -29l-29 -75l4 -29l43 14zM688 629l27 -4v12l-19 16h-10zM279 1040l18 9l-31 14l15 14l-15 8l-2 17l-12 -17l-19 13q-6 -20 -6 -25q1 -19 52 -33zM997 283l11 22v6l-41 -2zM1010 250q0 4 -41 20l18 -55h14q2 6 3 16l6 21v-2z M272 895l7 51l-46 19l3 6l-9 6q-37 -43 -37 -70l15 -20l33 14l2 2l-23 21q10 14 31 16l16 -22l-4 -7zM1010 172v12h-27l-6 -57zM1006 102v33l-29 -49l20 -47q9 26 9 63zM256 831l25 13v2q0 14 -31 33l-6 -13l-31 -2l33 -26l-25 -11h2l-4 -4l14 -10l-28 -25l-6 -32l26 -25 l11 14l-5 11l11 32q6 -10 34 9l-20 22l14 10h-10zM199 805l12 6l-8 20l-15 -6zM281 715l14 10l-12 31h-11v-27q-6 -6 -30 -20l22 -4l2 -7h-2l-6 2l6 -8l-4 -6l-27 14l27 -24l23 6zM242 657l8 5h-2l-6 14l-21 14l17 -49l12 2q-4 2 -8 14zM541 250l8 37l-6 8q-8 -20 -25 -21z M508 225l29 -4l-19 19l-10 -13v-2zM516 180l19 10l-19 9v-19zM516 154l33 12h-6l-2 -2l-33 -8l6 -6zM526 84l11 -2l-9 35l2 8l-2 -4v-4q-2 -6 2 -27zM1276 672l4 -2l-6 -2q0 2 2 4zM1266 666l8 2q-10 -10 -17 -11zM1255 659l2 -2h-2v2z" />
<glyph unicode="x" d="M784 1141l66 4q14 0 20 -15l31 13q25 -8 25 -27l-133 -280q-37 -80 -109 -263l-6 -4l-2 -2q0 10 4 2l6 -12q63 -139 116.5 -234.5t139.5 -283.5l-10 -39q-113 -6 -252 -6q-29 0 -45 31q-31 72 -57 129l-66 125q-14 25 -23 73q-29 -35 -20 -49q-4 -10 -19 -41 q-46 -100 -69 -158l-43 -94q-12 -23 -53 -22l-123 6q-31 0 -53 -2h-54q-35 0 -35 28q0 4 14.5 29.5t33.5 61.5q52 102 142.5 272t90.5 184.5t-129 276.5t-129 272q0 25 86 25l172 -4q61 0 74 -29q31 -102 92 -266v-6q0 -15 18 -37l-4 -13q27 53 62 165t59 167q10 23 182 23z M815 1036q-10 0 -39 -35q-2 0 0 3l-18 -60q20 26 57 92zM633 768q0 16 -17 20v-34h15zM639 711l2 12h-29l-6 -57zM635 641v33l-29 -49l21 -47q8 26 8 63zM285 852v18q0 66 -23 95v-84zM635 424l2 37l-21 37v-74h19zM303 797l-43 18l12 -45q2 27 31 27zM287 721l14 4l-10 20 l-17 -4zM618 379l17 4l-12 18h-15zM633 340v12h-27v-12h27zM621 221q6 5 6 19t-6 67h-15zM287 408l39 12l-4 33l-21 -17zM293 373l37 -35l-27 51l-14 4zM268 326l13 18l-11 33l-16 -51h14zM309 195q0 18 -16 28q12 25 12 70v22q0 10 -4 15l2 -25l-16 6q-16 -12 -66 -35h27 q12 8 37 15q-2 -12 -56 -62l7 -10l-7 -6q16 -16 23 -29l-16 -8q0 -8 2 -14l-19 -12l-16 6q0 -6 17.5 -12.5t23.5 -6.5l-19 -24l4 -9q23 2 54 17l14 -10l6 10q0 23 -45 37l8 51q14 -2 21 -12q-6 -6 -8 -15q23 -14 20 -22zM285 68l18 8l-2 6l-16 -6v-8zM217 92v10h-24v-10h24z M254 23h37q-12 2 -23 10l6 12l-14 -4l-6 2l22 16l-47 19q6 8 7 18v4l-35 -8q8 -2 16 -10v-4q0 -12 -2 -19l25 7l10 -3q-4 -4 -53 -40q10 -2 43 -17l-7 -8l5 -8q12 10 16 33zM262 250l10 -2l-10 -15l-10 5z" />
<glyph unicode="y" horiz-adv-x="1077" d="M811 1147l79 -2q28 0 70 -1t87 -1q-63 -231 -103 -365q-20 -88 -65 -205q-29 -12 -29 -26t12 -21l-104 -348q-16 -43 -37 -119q-16 -84 -150 -407q0 -3 -36 -67t-130.5 -112t-314.5 -48q-23 0 -22 55v16q-2 6 -2 13.5t8 13.5t8 13t-16 30q2 31 1 64.5t-1 41.5l16 25h14 q68 0 107 16.5t82 65.5l34 67l11 31q4 35 16 41l-4 6q0 6 4 27q-18 43 -35 119l-32 125q-106 352 -150 557q8 23 8 47.5t-33 38.5q-6 39 -40 137t-33 151q12 0 22 11h17l120 6q84 0 162 -13l17 -22l-4 -21l47 -235q2 -2 4 -2q-15 -20 -15 -21l25 -22q0 -25 12 -59 q8 -59 6 -62l2 -16h-2l13 -49l-15 -5l19 -16q0 -4 2 -8v-2l-8 -17q4 0 8 -12q6 -6 14 -29q10 -6 10 -65q0 -6 9 -21q0 -29 8 -30l4 -37q5 -8 8 -14q5 -15 10 -15q17 17 19 88h22l-20 19q8 33 33 84l-13 10v14q23 23 31 76l-10 10l6 25l16 -2l-2 8h10l-18 16q0 51 43 74 l-18 4l14 12h-10l-4 25l20 16q-2 23 -2 37q0 86 45 150l-6 12q16 29 18 64l-10 -13q18 68 111 68h10zM817 1049q-2 0 -18 4l-54 -6h5l65 -5l2 -2l2 9h-2zM772 1022l29 10l-19 4q-2 -4 -14 -16l6 -2zM817 967q6 30 6 34t-4 9l-10 -43h8zM784 961l4 6l-45 10v-6zM805 887l20 6 l-6 8v-2l-14 -4v-8zM780 842l41 -4v20q-6 8 -22 19h-23zM793 805l2 2l-2 2v-4zM676 858l18 12l-8 4l-18 -10zM678 821l20 6l-4 7l-16 -5v-8zM295 1022l29 12q-4 0 -8 3q-12 8 -25 12q2 4 12 14l-16 10l-4 21q-10 -4 -17 -17q-18 10 -22 13v-5q0 -12 -8 -20v-8q0 -17 59 -35z M244 922q0 -27 20 -23h2l8 53q-10 4 -30 15l-15 4q2 2 2 5.5t-18 8.5l18 16q-25 -25 -45 -49v-61q31 10 50 18l-31 21l28 10l13 -14q-2 -2 -2 -4zM295 776l6 23l-6 22q-2 -10 -12 -26l-9 -2h-2v-2l2 -11q0 -2 -2 -2zM274 831l2 5q-4 8 -10 14l6 35h-6q-10 0 -14 -11 q-18 0 -37 -6l35 -24l-27 -10q12 -8 35 -17l-25 -2l-12 -14l2 14l-18 -8v-2q0 -5 7 -11q13 -12 9 -16q12 -12 33 -26l6 14l-2 -8q-23 18 -22.5 32.5t21 20.5t19.5 10v6q-2 2 -2 4zM313 659h21l6 7l-8 8l-35 -6q2 -12 16 -29l17 4l8 6q-16 6 -25 10zM602 285l-10 14 q-4 0 -12.5 -11.5t-11.5 -11.5t-7 5q0 -4 -2 -7l-2 2q-2 -2 -2 -6l33 -30q0 4 14 45zM586 211l4 8q-14 14 -29 25l-16 -19v-6q18 0 41 -8zM590 186l-2 9l-2 -2q-20 4 -31 10v-31h2q4 0 16.5 7t16.5 7zM371 379l-9 -4l7 -6q2 4 2 10zM371 365l-2 4l-4 -11q6 3 6 7zM553 145 l43 13l-6 6l-37 -10v-9zM586 137l-21 -18l10 -43l5 10v10q-2 4 -2 8.5t4 16.5t4 16zM467 104l-25 21q-8 -16 -39 -33q19 6 64 12zM455 -68l22 33l-12 15l-2 90q-29 4 -48.5 4t-19.5 -12.5t19 -28.5v-4l-6 -58v-4q4 -20 10 -30q4 6 16 14q20 0 21 -19zM453 -154l10 35l-51 8 v-16zM438 -217l17 29l-27 6l-10 -25zM434 -328l29 82h-37v-20q2 -21 8 -62zM145 -375l25 13v16l-51 -10zM147 -453l21 11l-10 24l-29 -6zM150 -508l18 6v21h-37z" />
<glyph unicode="z" horiz-adv-x="913" d="M543 223l288 4q31 0 19 -24v-10q0 -45 2 -80v-80q0 -45 -37 -45l-209 8h-41l-55 -6q-6 0 -21 8l-75 -8l-205 8l-94 -8q-25 0 -33 5t-31 34q-2 70 10 168q10 10 29 49q4 4 25 33l26 59q78 152 119 205q66 106 148 219q4 20 36 72q35 25 43 67h-6q-8 2 -27.5 -6t-23.5 -8 h-319q-18 0 -33 14l6 37q0 2 -12 51l8 2l-4 33v96q4 18 18 21h33q111 4 237 4t236 -4q36 6 88 6l4 -8l21 8q55 6 85 6t37 -8t7 -41l4 -74q0 -68 -31 -127l-164 -268l-155 -260q-12 -31 -60 -101q-37 -41 -37 -47q6 -8 11 -8l20 6q31 0 55 -2h58zM717 1032l6 66l-33 6l8 -72 h19zM702 922l11 84q-10 10 -17 10l-18 -25q10 -3 24 -69zM551 950q20 27 20 35t-22 37q0 -10 -8 -12l-19 -4q12 -2 29 -56zM565 907l23 27v31q-23 -29 -23 -54v-4zM501.5 958.5q16.5 14.5 16.5 21.5t-11 20.5t-11 15.5q-8 -23 -27 -53q-18 8 -18 6q0 14 18 35l-35 12 q2 -8 2 -29t-10 -61q12 18 32.5 18t26.5 -2q0 2 16.5 16.5zM397 993v8l-55 27q-2 -2 -2 -8q0 -18 43 -37zM342 969v18q-25 6 -43 51q-16 -18 -20 -69h63zM500 764l-56 -43l2 -39q44 35 54 82zM506 713l-64 -72l7 -18q37 31 57 90zM436 526l19 45l-9 31l-18 -49zM475 491.5 q0 8.5 -16 34.5q-12 -10 -35 -55q4 -4 4 -14t-2 -26.5t-2 -20.5q6 14 28.5 43.5t22.5 38zM455 367l12 22h-14l-15 -18zM797 68l8 65q-23 25 -86 25l-47 -15q-2 -20 -23 -20l-28 22q-57 0 -93 -8l2 -6l-6 -14q20 -12 20.5 -26.5t-20.5 -22.5l35 8l55 -33l72 16v7q0 16 6 26 q6 -6 15 -18l-5 -19q45 -4 65 -4t30 2v15zM457 63q-27 14 6 54l-35 10q2 -6 2 -25.5t-10 -64.5q12 20 29.5 20t29.5 -4q0 2 15.5 16.5t15.5 21.5t-11.5 20.5t-11.5 15.5q-8 -29 -30 -64zM412 104v9l-56 26q-2 -2 -2 -8q0 -16 43 -37zM354 80l2 18q-25 6 -45 52 q-16 -18 -18 -70h61zM264 59l2 35h-16l-2 -14q0 -17 16 -21zM135 10l4 29l-20 51l-6 -63z" />
<glyph unicode="{" horiz-adv-x="1069" d="M455 1708l-13 59q0 27 13 41q10 135 52 214t152 114l117 23q10 2 33 8l8 -6h90q22 -2 49 -2l-4 -289l-51 4q-111 0 -143 -70q-25 -55 -30 -94t-10 -70q-12 -74 -18 -112l11 -146q0 -108 -58 -104l41 -18q37 -25 -2 -162q-20 -84 -51 -109l-23 8q-20 -106 -131 -141l7 -8 q203 -68 202 -338l-20 -64l8 -235l-10 -203q0 -117 71 -151q43 -23 177 -19l-7 -289h-41q-18 -2 -40 -2q-199 0 -284 53.5t-106 170.5q-10 53 -18 288q-8 33 -10 82l-2 258l12 103q0 213 -274 207l4 288l43 -4q20 0 43 2q51 20 92 39q20 23 63 56q55 94 56 374q0 98 -9 150 q12 16 11 61v33zM666 1704l10 12l-19 133l-6 -127zM639 651q0 14 -25 64l-10 -213l10 76q9 40 25 73zM639 397l-45 25l10 16l-8 15q-12 -18 -16 -54h-39l22 -20l-8 -21l16 9l7 -5l-23 -26l49 -33q-16 -27 -20 -70q12 14 51 43l-19 17v4q0 12 5 33l-25 -6l-12 4q12 20 55 69z M621 203v12l-21 -10l2 -10zM653 20q-8 12 -20 41q2 12 14 25l-14 76q12 25 12 28v15q-27 -6 -57 -25l-13 25q-6 -31 -6 -33q0 -35 45 -61l-12 -99q-16 10 -18 33l8 25q-14 14 -21 36l-12 -57q0 -33 16 -49q-10 -37 -10 -103.5t23 -78.5l-2 41q0 80 14 94q39 34 53 67z M616 -262q-12 -2 -19 6t-7 20q-8 -47 -31 -126q10 14 57 100z" />
<glyph unicode="|" horiz-adv-x="917" d="M486 1860l69 8q23 0 35 -25l-23 -842l11 -235q0 -655 -13 -662l-8 -671l-33 -19h-4q-55 0 -104 19q-18 -2 -33 -2q-45 0 -45 45l8 198l-14 299q0 119 9 285t9 227l-8 121q0 82 10 219l8 97q0 4 2 10q-4 61 -10 96v10l21 187l-6 35q-4 33 -5 71l7 492q0 49 45 49z M469 1122l-14 -51q16 -6 16 -18t-2 -21q16 16 35 17l-10 16q2 23 20 92l2 -2v6q0 37 -16 76q10 6 35 31q-22 3 -26 7q-11 11 -11 36t30 39q-29 29 -28 30q12 18 32 31q-10 2 -38 14q14 29 28 50q4 -29 4 -45l37 198l-14 17q6 76 6 77q0 33 -18 39v13q0 6 -2 18 q-16 -4 -17 -20l4 -25l-24 6q0 20 -13 31l-8 -43q10 0 21 -6l-21 -23v-10l-12 -74q0 -8 3 -29.5t3 -25.5l18 6l9 -2l-9 -8q-23 -63 -22 -187q0 -20 16 -26q-33 -31 -32 -53l4 -21q2 -12 0 -20q8 -16 8 -42t-2 -40l-60 -84q6 12 15 12l4 -2q23 23 36 22.5t13 -6.5zM500 782 l35 9q-12 12 -5 102h-28q10 -16 10 -31.5t-6 -44.5t-6 -35zM545 715q0 12 -17 33q-12 -18 -22 -29l-10 14l-2 -31q-27 -43 -37 -77q10 14 23 20t26 51q16 -10 16 -37.5t-8 -35.5q14 0 29 14zM532 63q0 84 5 119v15q0 55 -15 69q-12 -18 -24 -69l-11 14l-4 -82q-6 2 -14 2 q-18 0 -18 -20q0 -12 10 -40t16 -28v4l19 76q18 -8 18 -35.5t-10 -38.5q14 0 28 14zM510 -412l2 47l-20 -22l6 -25h12z" />
<glyph unicode="}" horiz-adv-x="1054" d="M150 2142l81 4q199 0 283 -49t107 -166q14 -70 16 -286l14 -351v-6q2 -12 -5 -49t-7 -47q0 -215 285 -209l-6 -287q-25 2 -43.5 2t-42 -4t-91.5 -37l-63 -55q-55 -94 -55 -373q0 -100 8 -151q-12 -16 -13 -60v-34l13 -58q0 -29 -13 -41q-10 -135 -45 -202 q-47 -92 -157 -127q-61 -10 -95 -17.5t-57 -13.5l-6 8q-25 -2 -47.5 -2t-44.5 2h-47l4 289q12 0 24 -2h25q84 0 120 36t52 109l18 131q10 66 11 68l-8 145q0 106 55 107q-41 16 -41 18q-39 17 2 162q20 84 51 109l23 -11q20 106 133 142l-8 10q-209 68 -209 336q0 16 8 35 l12 30q2 6 2 117v297q0 123 -57 160t-191 41zM506 2054q-10 -12 -55 -98q10 0 18 -8.5t6 -20.5q11 55 31 127zM438 1671l-6 -31q0 -14 -14 -22l14 -76q-12 -27 -12 -31v-14q25 6 57 27l12 -27q6 31 7 33q0 35 -45 61l12 99q16 -10 18 -33l-8 -23q2 -2 23 -35q4 37 4 65 t-11 38q10 37 10.5 104.5t-22.5 79.5l2 -43q0 -70 -10 -86l-49 -63q18 -14 18 -23zM446 1477l21 2l-4 20l-17 -10v-12zM485 1294h39l-20 19l6 20l-16 -6l-2 14l18 17l-49 33q16 27 20 67q-14 -14 -51 -41l19 -18v-4q0 -23 -3 -33l25 8l12 -6l-57 -68q41 -25 45 -26l-8 -17 l6 -14q16 22 16 55zM459 979l4 211q-2 -10 -4 -37t-4 -41q-6 -42 -21 -70q0 -14 25 -63zM418 -158l6 127l-16 21l-11 -13z" />
<glyph unicode="~" horiz-adv-x="1843" d="M1632 890l10 -151q0 -49 -69 -94l-111 -61v4q0 10 -6 10l-59 -8q-18 -47 -43 -47l-152 -6q-100 0 -267 68.5t-233 80.5q2 4 4.5 13.5t3.5 12.5q3 9 28.5 9t41.5 -35q31 35 37 35q18 -16 31 -39v4q0 6 -2 10v11q0 8 2 10q18 -6 55 -29q-6 2 -20 2h-15q6 -12 127 -22 q-20 2 -89 37q-120 60 -118 14q-31 39 -53 39l-43 -6l-22 -11q-12 0 -23 2q-2 6 -14 2l-10 15q-4 -12 -13 -21q-2 6 -14 19q0 -16 -8 -25l-53 15q-6 -18 -25 -19q-6 0 -16 2q16 -16 16 -20l16 10q31 -6 64 -6t35 8l-4 2q23 0 28 -12l15 6l14 -31h-64q-23 2 -70 2t-55 -14 q-47 0 -100 -35q-12 0 -10 64l-23 40q4 -53 4 -72.5t-4 -47.5q-6 -10 -43 -15.5t-51 -38.5q0 -2 -38 -31.5t-40 -29.5q-12 12 -12 80v33q2 14 2 32l-12 78q0 12 55.5 61t178 95.5t206.5 46.5h41q80 0 113.5 -20.5t56.5 -20.5l39 4q20 0 16 -16q14 0 119.5 -42t139.5 -46 t34 -18.5t-47 -53.5l4 -2l68 59q6 -2 20 -2l135 21l45 -4q27 0 71 47t85 51q4 6 19.5 9t26.5 22.5t14 19.5l34 -6q-4 -29 -4 -48zM1438 637l24 -2h2q35 0 45 22q12 -2 14.5 -2t18.5 4q-2 20 -20 21q-2 0 -6 -1q-10 -3 -21 -3l8 29q29 0 33 34l-43 11l-8 -48l-23 46h-10 l-76 14q-8 0 -30.5 -4t-26.5 -4l2 -17q2 2 12 2t39 -9t29 -16t-21.5 -45t-21.5 -55v-4l28 29z" />
<glyph unicode="&#xa1;" horiz-adv-x="669" d="M350 1792l139 18q60 0 60 -94q0 -168 -19 -276q-142 -17 -286 -10q-31 25 -31 110l4 84l-14 111q0 25 39 50.5t67 24.5zM537 545l4 -187l-13 -165l7 -127q0 -39 -11.5 -50.5t-54.5 -11.5l-96 -8q-20 0 -25 49l-67 -49l-68 -2q-59 0 -59 110l10 199q0 235 34 380.5 t35 197.5l35 47l-12 16l25 17q-2 -2 -12.5 -2.5t-10.5 10.5v12l6 -4h33l-12 18l-27 2v7q0 45 18 108q25 70 35 105q8 35 17 45q14 14 71 14q12 0 31 -19q31 -27 69 -322.5t38 -389.5zM395 1618v53q0 27 -6 45l-39 -10q8 -10 31 -33q-10 -10 -23 -31q19 -8 37 -24zM332 1647 q-12 18 -12.5 27t4.5 26q-23 -16 -25 -41l4 22l-2 -55q11 11 31 21zM377 1526v12l-25 -12l4 -10zM313 1542l11 6l-21 21l-8 -6zM315 1503v31h-16v-31h16zM369 1122l16 82l-16 27l-15 -45zM338 1087l12 15l-12 4l-10 -16zM311 1016l8 6l-10 8l-8 -4zM408 944v88q0 25 -5 70 l-8 -66q-24 -6 -24 51l-21 -6v-26l12 -4l-4 -4l-14 8l-18 -49l16 8v-8l-6 -17q6 -12 6 -45t-12 -82l14 4h6q-20 -8 -14 -37q-4 -8 -8 -20l4 -8l-15 -8v-7l2 -18l25 -25q-4 -4 -18 -41l51 -63l4 66q-16 -6 -27 -7l-2 2q-2 0 -6 1t-8 1q35 12 43 33q-20 -2 -21 10v5l23 8l2 12 l6 10l-6 29q2 14 14 33l-6 16q15 27 15 86zM324 883l-19 -6v-5q0 -14 10 -18q5 17 9 29zM305 821v21h-12v-21h12zM299 723l10 4l-6 14h-12zM334 651v23l-37 -15zM334 631q-27 0 -35 8l-8 -16l12 -5q17 1 31 13zM369 608h-27v-10q0 -18 8 -43q13 26 19 53zM322 553l-21 -6 l8 -17q13 11 13 23zM371 391v10h-21v-10h21zM367 354l8 15l-10 6l-11 -17zM334 365l-8 28l-9 -4q-14 4 -18 8q10 -25 12 -45q13 1 23 13zM360 307l-18 -4l-10 8q4 4 22 21q-27 0 -39 12l-20 -14l14 -72q23 -14 43 -20v-23q-29 0 -58 -39q-3 -4 -5 -4q20 0 16 -20 q12 23 49 59q2 18 6 96zM369 197q-12 -8 -23 -11q-2 -6 -2 -22q25 19 25 33zM369 115v8l-25 8l-4 -8zM367 1022h14v-16h-14v16zM381 981l10 -4l-10 -21h-12zM367 928l22 8v-10l-18 -6zM367 885l20 -6l-10 -17q-10 15 -10 23zM324 279h28q-8 -12 -10 -19q-12 11 -18 19z" />
<glyph unicode="&#xa2;" horiz-adv-x="909" d="M100 1337q0 70 15 70l-6 16v4q0 10 24 101q72 252 277 264v68q0 29 22 28q2 0 31 -6q29 4 31 4q12 0 14 -14l-2 -86q14 -2 39 -10v-7q0 -20 8 -30l18 24q6 0 41 -18q172 -90 172 -334q0 -14 -8 -104q-4 4 -12 4l-62 -8q-20 0 -24 18l-21 -14h-71l-15 20q2 12 2 49 q0 168 -73 187q-2 -31 -2 -103t2 -127v-123q0 -31 -4 -204.5t-9 -174.5v-86q76 27 76 152q0 23 17 33q35 -4 88 0h86q10 0 10 -19q0 -168 -55 -254q-68 -100 -226 -116l-2 -111l-14 -12q-29 0 -49 12l-10 -2q-25 0 -25 47l4 62h-14q-41 0 -74.5 19t-63.5 38.5t-38 23.5 q-98 119 -99 379l2 195l15 14l-17 17zM492 1788v8q0 20 -9 27v18l-6 -12v-14l-10 4q0 10 -4 18l-6 -27l10 -4l-8 -12v-2zM567 1653q0 23 -14 37l-49 4v-17q16 -14 18 -30q16 23 25.5 22.5t19.5 -16.5zM487 1692v2h-6zM580 1544l-9 74q-12 12 -30 22q-6 -2 -13 -12l17 -51 q12 -29 35 -33zM483 1645l-6 4v-25q6 11 6 21zM387 1608l12 14q11 0 7 -6l2 53l-17 -4q0 -6 1 -13t-13 -10q-14 -20 -25 -73l11 4q0 16 10 40.5t17 24.5t9 -2q0 -4 -7 -15t-7 -13zM610 1360l23 -35q0 47 -12 74zM461 1407q10 50 10 63v3q0 14 -6 36q6 7 14 19q-16 12 -16 18 t6 21h-18q-6 -10 -7 -17l2 -26q2 -6 3 -23v-26q-13 -21 -29 -50l26 19l5 -4l-7 -31l7 -12v-11l14 11zM463 1237l14 4q-2 20 0 62h-14q4 -16 4 -25zM403 1327v-2v2zM481 1149v47q2 8 -6 21l-10 -19l-4 10q-4 -33 -17 -63q12 8 21 41q6 -12 6 -22.5t-4 -22.5zM399 1391l11 110 q0 8 -2 29.5t-2 25.5q-47 -18 -66 -81q-8 -27 -16 -111l-33 -107q0 -18 14 -57t14 -45l-4 -180q0 -180 70 -223zM475 885q0 33 -6 43l-10 -41l-4 8l-2 -49q-6 0 -9 2q-6 0 -6 -24.5t11 -28.5v2l8 45q8 -8 8 -19.5t-4 -23.5l12 8zM532 725q-16 -16 -47 -25v-63l17 -14 q18 4 22 8q6 71 8 94zM182 954l2 84h-53q10 -39 16 -51q12 -29 35 -33zM154 842l10 84l-21 30l-2 -75q5 -12 13 -39zM377 629l12 -2v12zM348 672q-6 43 -18 61l-45 45l-13 -6l-10 6l-12 -20l4 -10l8 2q-8 -33 -8 -56.5t2 -29.5q8 -6 31 -33q10 18 61 41zM461 522v17h-8v-2 l2 -15h6zM276 684l5 18q0 3 -5 7l15 14h12q19 -23 19 -31q0 -13 -27 -24l-8 -6q-10 4 -11 22z" />
<glyph unicode="&#xa3;" horiz-adv-x="1024" d="M186 1038l35 25q0 5 -16.5 8.5t-22.5 11.5t-20.5 86t-14.5 111t27 33q-2 14 -31 26q-6 20 -6 50q0 406 447 405q51 0 110 -16q16 -29 21 -33q74 12 55 12l21 -4q100 -35 154 -143.5t54 -227.5q0 -33 -14 -69q-4 2 -10 2l-4 2l-82 -10l-82 10l-68 -6l-18 26l6 15l2 -2l4 8 v8q0 63 -33.5 110.5t-89.5 47.5q-168 0 -168 -172q0 -49 27 -130t29 -118q12 -35 30 -98l46 -2h16l22 -3h6q25 0 54 5l16 -11h12q-2 -10 -2 -18l17 -139q0 -14 -19 -19v-6h-39l-12 -8l-110 2v-111q0 -279 -66 -297v-8q0 -35 -33 -86q94 -82 172 -82q147 0 156 211q10 0 18 4 h2q18 0 31 -18q10 29 59 29l93 -17l6 -18q-8 -203 -62 -305q-76 -143 -256 -144q-150 0 -209 109l-32 10l14 41l-33 -21l-47 54q-133 -182 -299 -191v47q-2 20 -4 51t14.5 56.5t16.5 30.5q0 41 -23 73q-6 16 -6 37t33 33q98 41 131 107.5t33 172t-21 236.5l-174 2l-8 53 q0 14 8 31h2v98h19q16 10 125 11q-8 27 -9 32zM731 1634q2 27 -18 47l-54 -8l15 -49q40 53 57 10zM924 1401l28 -47q0 57 -16 94zM748 1495l-11 92q-12 16 -39 31l-16 -16l20 -66q19 -41 46 -41zM526 1620l17 -14q27 0 35 12v-4q-4 -20 12 -37v18q0 6 10 31l55 -31 q-23 55 -22 70q-4 -4 -23 -8q-2 0 -27.5 15.5t-35.5 15.5t-37 -13l2 -12l-29 -53q-6 -18 -14 -60l23 15l-5 -4v6q0 59 33 73l10 -4q-12 -12 -20 -37l8 7v4zM944 393l-18 8h-11l13 -67q2 12 16 59zM285 610q0 -34 28 -30l27 -21l6 6q0 12 -37 35q35 -10 49 -4l19 -6 q10 0 39 4l4 18h-27q-4 0 -53 6q35 4 76 15l-17 16q0 14 21 29l-49 -16l35 43q-25 -4 -72 -21l-29 66q20 16 57 63l-18 6q10 16 10 19.5t-9 9.5t-7 10l27 19l-15 6l19 10l-15 6l21 14q-14 10 -10 21q-18 8 -19 33q0 10 27 10h22q10 -2 33 -2t39 10l-78 14l-14 -4 q-2 0 -20.5 3t-26.5 1l10 29v-2l-2 2q0 4 -2 2l-17 6l-12 33q-4 -4 -4 -12l4 -31l-6 -10l14 -6q-6 -27 -14 -52q2 -18 31 -34q-18 -12 -37 -27l33 4l16 -14q-2 -12 -31 -29l8 -6q-4 -29 -59 -57q29 4 47 4q-4 -8 -26 -33h-5l-10 8l-6 -4v-6q0 -18 7 -53t7 -56q45 6 52 7 l16 -3q-57 -37 -57 -49z" />
<glyph unicode="&#xa4;" horiz-adv-x="1114" d="M711 1726l61 15q10 0 23 -6q123 -49 190 -199q57 -122 57 -276l-2 -17q0 -16 -3 -53t-5 -80q-8 4 -18 4l-90 -10l-90 10l-76 -6l-21 29q4 41 4 80q0 264 -145 264q-137 0 -188 -113q-33 -74 -33 -231l2 -72h18l180 4q29 0 29 -37q0 -20 -20 -61q14 -41 14 -57t-18 -33 h-203l-2 -105q166 0 209 -6l-2 -72l-35 -20l33 -12q0 -10 2 -19v-18q0 -16 -23 -33l-184 -4q6 -141 31 -197q41 -96 159 -96q147 0 160 211q2 2 2 25.5t23 33.5l182 -6l67 8q14 0 15 -26q0 -401 -230 -496q-104 -41 -329 -41q-61 0 -133 41q-14 10 -119 76 q-80 98 -104.5 198.5t-28.5 264.5h-84l-13 24q4 49 19 88l-4 39q0 39 32 39q4 0 50 -6l-4 107h-76q-6 27 -6 56.5t10 49.5l18 -4l-16 47q6 47 67 39v43q-4 139 23 139q8 -2 25 -4q-4 16 -35 31v8q0 12 35 139q51 190 159.5 278.5t298.5 88.5q57 0 131 -23q0 -10 11 -41z M731 1604v4q0 29 -20 49l-60 -10l17 -54q25 33 38 33.5t25 -22.5zM944 1343l33 -51q-4 68 -21 105zM748 1448l-11 104q-20 20 -43 33q-10 -6 -18 -18l22 -72q21 -43 50 -47zM504 979l-49 10q-4 0 -35 -6l4 -14l-2 -6l-4 6q19 -1 35 -17h-2q0 -10 -37 -14t-37 -10l-35 -17 q33 -4 54.5 -4t54.5 4l10 11l45 -2q24 0 26 14h19q-2 10 -12 14l-15 -2l4 19q10 0 21 10l-27 6l-4 -18zM518 621l2 22q-14 -10 -25 -10t-33 5t-26 5l4 -29q12 11 78 7zM874 270q0 16 -10 27h-39l-28 -27q4 -2 11 -3t10 -3t8 -5q10 -6 10 -22.5t-23 -46.5l37 37q24 27 24 43z M80 956l49 11q0 4 -55 14l-11 -4h-10q10 -14 10 -27l11 8zM29 940l6 14q-2 8 -17 9q3 -13 11 -23zM682 276q-20 -20 -176 -63l84 -16q0 -2 -10.5 -9.5t-10.5 -11.5t3 -22.5t3 -22.5q0 23 35 23q10 -6 27 -23q25 4 33 12q6 49 12 133zM156 563q-4 25 -13 72l-18 -45l-2 -90 q5 -16 16 -56zM12 614l37 -2l-16 17l-19 -6zM420 201q-12 61 -22.5 78.5t-67.5 74.5q-6 -4 -19 -8l-16 8l-19 -28q0 -10 9 -17l10 4q-10 -57 -10 -84.5t2 -38.5q20 -16 45 -47q12 25 88 58zM317 221l5 25q0 4 -5 8l19 20h16q31 -31 31 -43t-11.5 -20t-25.5 -15.5t-16 -9.5 q-12 6 -13 35z" />
<glyph unicode="&#xa5;" horiz-adv-x="1056" d="M244 1720l114 15q13 0 27 -11q39 -190 113 -491q0 -16 10 -59.5t13 -73t5 -38.5t11 -9l28 141l10 39q14 76 21 106l6 23q8 23 26.5 81t39.5 122l18 98q14 57 62 61q154 10 274 17q4 -13 4 -19q0 -39 -61 -200l-82 -217l-105 -332l172 4q61 0 62 -47q0 -25 -43 -88 q31 -61 30 -72q0 -18 -36 -37l-261 -2q-4 -23 -10 -196q51 2 139 2h156l-2 -99l-59 -26l57 -19l6 -51q0 -27 -39 -47l-262 -4q6 -131 6 -242q0 -49 -37 -59q-16 -4 -77 -4h-11l-69 -2l-138 -2q-27 0 -26 32l16 269l-282 -7l-21 35q4 70 29 123q-6 49 -6 53q0 49 47 50 q35 0 86 -6.5t151 -14.5q-6 49 -6 57l10 125q0 23 -2 31l-290 -2q-35 92 6 135l43 -6l-39 64q4 20 27.5 38.5t58.5 18.5t131 -8q-8 29 -100.5 304t-120.5 431q12 -6 24.5 -6t12.5 10q0 18 49 18zM594 553l-129 -14q12 -8 53 -12.5t45 -6.5q-14 -20 -49 -20t-49 10 q0 -18 18 -33h101q18 0 43 19q-14 8 -35 24l18 12h-39q7 17 23 21zM883 1577l2 76h-21l-2 -76h21zM797 1108l16 45l-22 4l-11 -43zM899 793q-2 18 -18 18q-4 0 -37 -4l14 -8q-16 -4 -59 -6q10 -10 53 -11l8 9h17q12 0 22 2zM891 848l-55 8q0 -14 -9 -25q-16 12 -28 25h-19 l-39 -2l-10 -33h4q16 0 39 -35q8 23 21 43q25 -8 47 -20l10 25q39 0 39 14zM422 1188v18h-29v-18h29zM672 934l2 4q-23 4 -60 27t-49 22q-16 0 -16 -39q0 -2 6 -20q27 2 117 6zM530 971l7 57q-14 10 -23 10q-18 0 -29 -34q18 -18 23 -35zM305 1135l2 51q-20 -8 -20 -22.5 t2 -28.5h16zM313 1010h17l-15 32l-16 -6zM528 819l-10 27l-14 -6l6 -49q4 10 18 28zM520 717v12h-2zM948 326l2 32q-20 -14 -40.5 -14t-57.5 6t-47 6l10 -37q18 11 133 7zM303 905l12 -12l-6 18l-18 15q14 -8 14 -15zM244 823l94 -16l-12 45q-8 2 -72 14q-8 -18 -24.5 -18 t-26.5 2q20 -18 20 -37zM164 817q-12 12 -37 12q16 -27 23 -32q6 14 14 20zM352 338v6q-4 -4 -4 -6h4zM281 330l24 24l-16 -6l-41 12zM283 311v13l-35 2v-9l-21 17l-32 -8l-2 -13l55 -2h35zM477 27l23 86l-31 8q-20 -12 -20 -23.5t12 -19.5zM444 29l-14 84q0 14 8 22l-6 17 l-26 -15q-14 -20 -15 -49q0 -53 53 -59zM248 317l6 -6h-6v6z" />
<glyph unicode="&#xa6;" horiz-adv-x="917" d="M354 1206l6 492q0 49 46 49q20 0 77 -29q55 27 70 27t29 -27l-11 -909q-41 -14 -72.5 -14t-49.5 12l4 33l-58 -31q-41 4 -41 35q0 192 11 256q-10 31 -11 106zM463 188l10 -98q8 35 21 76q16 -10 16 -36.5t-10 -37.5q16 0 30 14l2 78q0 12 -16 33q-12 -18 -22 -29l-13 15 v-31q-14 2 -18 16zM344 -178l-14 299q0 150 8 291l6 77l88 3l23 -46l18 46h23q40 0 71 -41l-12 -871l-33 -18h-4q-55 0 -104 18q-18 -2 -33 -2q-45 0 -45 45zM518 1305q1 6 35 198l-12 17q0 53 4 69v8q0 33 -17 39v13q0 6 -2 18q-16 -4 -16 -18t2 -27l-23 6q0 23 -12 31 l-10 -43q12 0 22 -6l-20 -23v-10l-14 -74q0 -14 8 -55l18 6l8 -2l-10 -8q-20 -59 -20 -187q0 -18 16 -28q-33 -27 -33 -53v-5q10 -10 4 -34q16 -31 7 -82q-23 -35 -62 -84q10 12 15 12l6 -2q23 23 36 23t13 -6l-15 -52q20 -8 13 -39q20 16 37 17l-11 16l13 61l8 33v2 q2 35 -14 76q8 6 32 31q-35 0 -35 37q0 29 31 45q-29 29 -28 30q12 18 32 31q-10 2 -39 14q6 16 29 50q4 -29 4 -45zM508 868q-10 2 -19 11q-8 -8 -12 -29q15 6 31 18zM487 258l35 8q-6 8 -6 43t2 60h-29q14 -23 7 -74zM483 -14q15 14 15 26t-2 21v20q-8 -18 -21 -37 q10 -10 8 -30zM487 -68v17q-2 4 -4 12q-8 -2 -18 -12q10 -11 22 -17zM508 -143l2 26h-12l-2 -26h12zM463 -145l31 26l-23 19l4 -13zM508 -264l2 47l-21 -23l7 -24h12z" />
<glyph unicode="&#xa7;" horiz-adv-x="1105" d="M590 -16l28 67q0 59 -17 81.5t-136 166.5q-55 78 -156 197q-15 15 -29 25.5t-28 23t-19.5 18.5t-16.5 18.5t-16 20.5q-10 16 -20 41q-90 68 -80 98q-31 74 -30 138q0 299 254 344q-6 16 -39 75q-55 78 -56 189q0 289 349 311l45 4q106 -29 152 -60.5t110 -115.5 q4 -37 16 -43q-63 -47 -59 -47q-16 0 -41 28.5t-33 51.5q25 -109 25 -123t-41 -31q-49 41 -50 56q0 31 -10 30q-29 0 -39 16.5t-63.5 16.5t-69.5 -12l-49 -37q-16 -16 -16 -57.5t38.5 -111t71.5 -91.5q63 -49 216 -220t167 -227q0 -4 25.5 -62t25.5 -93q0 -293 -264 -330 q76 -125 86 -143q35 -80 35 -138.5t-21.5 -112.5t-39.5 -69q-31 -78 -101.5 -123t-180 -45t-197 55.5t-185.5 172.5q29 29 59 67v8l3 -4q6 0 27.5 19.5t31.5 19.5l55 43q10 -59 67.5 -105t114.5 -46q25 0 76 22q8 0 32 -38t32 -42v4q0 6 -19.5 42t-19.5 57zM618 1663l56 -39 l-10 43l-43 12zM600 1657l8 51h-12l-16 -51h20zM887 637l-19 -64q0 -20 29 -45l-27 -4l-18 6q0 -29 27 -28l18 8v-10q-2 -4 8 -35q18 8 29 57q10 11 22 13l-26 38q12 4 20 5l2 34q-10 10 -39 25h-26zM635 508l94 29q53 0 53 141q0 16 -16 12l-12 10q-20 43 -70 103l-86 92 v47l-49 4q-25 37 -74 66t-67 45h-13q-41 2 -92 -23l-27 -30l11 -29l-13 -37q29 -80 51 -118t72 -95v2q4 -4 35 -18q23 -14 21 -31q23 -27 18 -80q10 -8 64 -10q76 -80 100 -80z" />
<glyph unicode="&#xa8;" horiz-adv-x="1056" d="M694 2159l105 14q43 0 43 -70q0 -127 -15 -205q-70 -6 -131 -6h-80q-20 18 -20 80v31q2 14 2 33l-10 82q0 18 28.5 36.5t49.5 18.5zM453 2032l10 -82q0 -18 -28.5 -37t-49.5 -19l-29 15l-104 -15q-43 0 -43 70q0 127 14 205q72 6 131 6h80q23 -18 23 -80zM733 1997 q4 25 4 44.5t-14 49.5l-27 -6l23 -25q-10 -10 -19 -22q20 -31 33 -41zM680 2040q-4 8 -8 28l4 13q-12 -8 -31 -33q0 10 14 18v-41q13 13 21 15zM715 1952v8l-19 -8l2 -8zM668 1964l8 4l-17 17l-6 -7zM670 1935v23h-13v-23h13zM393 2109v23h-10l-2 -23h12zM391 2083l6 6 l-14 14l-6 -4zM336 2107l18 9l-2 8l-16 -8v-9zM406 2019q0 -10 -15 -18l2 41q-12 -12 -22 -14q4 -8 8 -29l-4 -12q13 7 31 32zM328 1976l28 6l-22 25l16 23q-20 31 -31 41q-14 -43 9 -95z" />
<glyph unicode="&#xa9;" horiz-adv-x="1796" d="M1704 725q-18 -12 -43 -94l-29 -111q-49 -145 -174 -276l-96 -99l-121 -43q-27 -51 -186 -92l-39 -10q-45 -6 -174 -6q-219 0 -420 169t-272 386q-51 154 -52 330q0 252 137 482t359 337q164 80 225 80t101 -52q10 10 10 16.5t-19 29.5q297 0 557 -240q234 -215 236 -807 zM897 1628l-68 -8q-125 0 -331 -147q-123 -88 -211 -304q0 -8 -20.5 -8t-20.5 -9t10 -17.5t10 -35t-22.5 -130.5t-22.5 -143.5t55 -233.5q10 -27 31 -68l37 -63q55 -119 217 -223q164 -102 295 -103q90 0 220 32t186 81q29 29 57 51q45 25 84 83t49 96t40 79t34 57l20 107 q16 82 43 84q-14 66 -14 137q0 20 -14 27q-33 117 -29 164q-72 176 -152 270t-243 178q-63 33 -117 33l-90 18q-4 0 -19 -6q-6 2 -14 2zM774 874l-4 -192q0 -223 135 -223q117 0 117 159q0 20 16 31q35 -4 88 0h86q11 0 11 -16q0 -55 -13 -119q-51 -254 -325 -254 q-162 0 -234 78q-98 104 -98 379l2 194l14 17q-4 0 -16 14v57q0 129 16 129q-14 37 -14 42.5t1 8.5t3 19t4 31q39 283 301 282q59 0 115 -16v-6q0 -20 8 -31l19 25q6 0 41 -19q172 -92 172 -334q0 -12 -9 -102q-2 2 -12 2l-61 -8q-20 0 -25 18l-20 -12l-72 -2l-14 21 q2 14 2 51q0 188 -101 188q-96 0 -127 -72q-16 -43 -16 -155l-19 -82q0 -16 14.5 -56t14.5 -47zM1001 1372q0 23 -14 37l-72 6q31 -20 41 -49q16 23 25.5 22.5t19.5 -16.5zM1014 1264l-8 73q-12 12 -31 23q-6 -4 -12 -12l16 -52q12 -28 35 -32zM821 1327l13 16l6 -2l6 -8 q12 0 26 8q0 -18 11 -32v8q0 17 8 31l39 -23q-6 18 -6 39q-10 8 -27 8q-4 4 -37 23l-35 -11q0 -4 2 -6q0 -14 -14 -16q-14 -23 -25 -74l13 6l-2 -4v2q0 55 30 66l7 -2zM1044 1079l23 -35q0 45 -12 74zM637 674l2 84h-53q20 -79 51 -84zM991 444q-14 -14 -127 -45l60 -12 q-16 -4 -17 -12q0 -14 6 -33q0 16 25 16l18 -16l27 8q6 71 8 94zM608 561l10 84l-20 31l-2 -76q4 -12 12 -39zM844 293q43 51 43 60t-8 16h-27l-21 -19q2 -2 9.5 -4t9.5 -3q8 -4 8 -18.5t-14 -31.5zM803 391q-6 43 -19 62l-45 45l-12 -4l-10 4l-12 -19l4 -12l8 2 q-8 -33 -8 -56t2 -30q8 -6 30 -33q11 18 62 41zM731 406l4 16q0 2 -4 6l14 14h13q18 -20 18 -29t-8 -14.5t-17.5 -10.5t-11.5 -7q-8 2 -8 25z" />
<glyph unicode="&#xaa;" horiz-adv-x="716" d="M627 1458l-13 -373q0 -102 13 -186q-131 6 -178 6q-68 0 -58 92q-29 -41 -47 -47q-41 -10 -53 -18t-41 -33q-12 -6 -68 -6q-184 0 -184 237q0 125 82 205q16 -4 22 -4t7 4q0 8 -13 17l41 16q61 68 258 90q4 20 4 29q0 96 -75 96q-66 0 -76 -61q-14 -8 -27.5 -8.5 t-62.5 14.5q-35 -20 -75 -20.5t-48 14.5q14 258 297 258q84 0 151 -29q4 -29 48 -55.5t59 -50.5q37 -68 37 -187zM162 1655q-18 2 -49 16l2 -10q0 -18 -35 -35q-14 -43 -14 -57.5t10 -30.5q25 10 26 59q16 -12 23 -14q10 4 29 19q-6 8 -6 22.5t14 30.5zM391 1143l2 164 q-170 -35 -170 -144q0 -74 66 -73q49 0 102 53zM438 946l19 64h-43q12 -29 24 -64z" />
<glyph unicode="&#xab;" horiz-adv-x="1046" d="M836 256l-19 6l-4 -4l-33 -2q-104 113 -274 313q0 8 -17.5 24.5t-17.5 20.5t19.5 22.5t21.5 27.5l31 -7l14 5l-12 18l-23 6q6 27 271 281q2 18 81.5 18t110.5 -8q-111 -125 -332 -356q41 -57 164 -179q115 -109 158 -182h-25q-66 0 -88 12l12 -10l-32 -2q0 -4 -6 -4z M426 256l-18 6l-5 -4l-32 -2q-104 113 -275 313q0 8 -17.5 24.5t-17.5 20.5t19.5 22.5t21.5 27.5l31 -7l14 5l-12 18l-22 6q6 27 270 281q2 18 81.5 18t110.5 -8q-111 -125 -331 -356q41 -57 164 -179q115 -109 157 -182h-24q-66 0 -88 12l12 -10l-33 -2q0 -4 -6 -4z M805 858l8 10l-2 6l-10 -12v17l8 14l-12 -8v-15l-9 7q-14 -12 -38 -39q4 -8 4 -13l-4 2q-18 -8 -44 -34.5t-30 -44.5l-12 4q-12 -20 -37 -45l-25 6v-4q10 -10 10 -18.5t-16 -12.5l-2 -10l8 -11q2 2 12 9q20 13 31 36l10 -10v6q0 18 13 29l8 -6q2 8 26 43l9 -8l2 24q2 0 5 1 t9 -1l-12 -16l2 -2l55 43l2 12q15 8 31 41zM573 633v12q0 12 -8 14v-4zM621 506l6 6l-2 2l-9 16zM633 494l8 -7v13zM582 543l12 -17l-4 19l-6 4zM664 453l-9 22v-2l-8 6q5 -12 17 -26zM618 496l3 8l-7 8l-2 -6zM737 344l4 16l-2 -2q-10 0 -24 35l-2 -20q14 -15 24 -29z M395 858l8 10l-2 6l-10 -12v17l8 14l-12 -8v-15l-8 7q-14 -12 -39 -39q4 -8 4 -13l-4 2q-18 -8 -44 -34.5t-30 -44.5l-12 4q-12 -20 -37 -45l-24 6v-4q10 -10 10 -18.5t-17 -12.5l-2 -10l9 -11q2 2 11 9q19 13 32 36l10 -10v6q0 18 12 29l8 -6q2 8 27 43l8 -8l2 24q2 0 5 1 t9 -1l-12 -16l2 -2l55 43l3 12q14 8 30 41zM164 633v12q0 12 -8 14v-4zM211 506l6 6l-2 2l-8 16zM223 494l8 -7v13zM172 543l12 -17l-4 19l-6 4zM254 453l-8 22v-2l-8 6q4 -12 16 -26zM209 496l2 8l-6 8l-2 -6zM328 344l4 16l-2 -2q-10 0 -25 35l-2 -20q15 -15 25 -29z" />
<glyph unicode="&#xac;" horiz-adv-x="1024" d="M578 879l241 14q41 -1 41 -64q0 -31 -9 -87t-15 -105q18 -39 18 -74t-6 -65q-86 -29 -94 -29q-39 0 -62 41l-4 127l21 104h-25q-57 0 -127 -18q-53 12 -119 12h-55q-27 -2 -81 -2t-142 21q-2 31 -2 49q0 55 35 90q47 -8 78.5 -8t47.5 8q41 -6 70 -35q12 33 45 35 q51 -14 144 -14z" />
<glyph unicode="&#xad;" horiz-adv-x="729" d="M106 995l123 -18q16 14 96 14t119 -2h86q55 0 84 4q25 -6 25 -47l-21 -143l11 -76q0 -12 -17 -35l-546 -6q-11 121 8 182l16 -6l-14 70q0 16 10 39.5t20 23.5zM332 846l-35 -12q-8 0 -12 2q-10 14 -31 53l10 -49q0 -6 -2 -13q-8 8 -18 13q-4 -12 -11 -15l-6 2 q6 -18 4 -61l7 10q14 -4 34 -18q16 0 31 14q8 -25 10 -29q0 16 17 33q14 -18 16 -26q10 16 35 24q10 -10 12 -26l6 32q10 -10 19 -24l-19 -4l15 -11q14 2 53 -8l37 -10l6 12l29 -2q12 1 16 17h12q-2 12 -8 14l-8 -2q2 25 16 61l-16 8l-4 -49l-8 47l-31 11l-21 -6v-54l-4 8 q-59 47 -106 48q-10 0 -27 -17q-12 27 -18 27zM100 756l6 22q-2 10 -14 15q4 -25 8 -37z" />
<glyph unicode="&#xae;" horiz-adv-x="1777" d="M1704 725q-18 -12 -43 -94l-29 -111q-49 -145 -174 -276l-96 -99l-121 -43q-27 -51 -186 -92l-39 -10q-45 -6 -174 -6q-219 0 -420 169t-272 386q-51 154 -52 330q0 252 137 482t359 337q164 80 225 80t101 -52q10 10 10 16.5t-19 29.5q297 0 557 -240q234 -215 236 -807 zM1669 756v28h-12l-2 -28h14zM897 1628l-68 -8q-125 0 -331 -147q-123 -88 -211 -304q0 -8 -20.5 -8t-20.5 -9t10 -17.5t10 -35t-22.5 -130.5t-22.5 -142.5t55 -234.5q10 -27 31 -68l37 -63q55 -119 217 -223q164 -102 295 -103q88 0 213 31t193 82q18 14 49 28q27 14 65 80 l54 64q12 16 28 80q4 16 34 57t34 57l20 107q16 82 43 84q-14 66 -14 137q0 20 -14 27q-35 127 -29 164q-72 176 -152 270t-243 178q-63 33 -117 33l-90 18q-4 0 -19 -6q-6 2 -14 2zM926 1487l39 16q154 0 231 -110q68 -94 68 -254q0 -205 -113 -287q-12 -4 -78 -35 q96 -61 182 -344q22 -60 45 -149q-12 -27 -59 -27l-141 4q-43 0 -50 19.5t-16 60.5q-23 76 -63 231q-55 170 -123 170q-6 0 -14 -4q-14 -27 -15 -424l-6 -65q-51 -6 -127 -6h-84q-8 14 -8 41v475q0 100 8 583q4 117 64 113q10 -37 21 -37t11 31l119 22zM967 1399l4 12l-31 8 v-10zM918 1403l10 37h-15l-10 -37h15zM1096 1214l10 21l-10 4l-13 -20zM1104 1169l2 29h-14v-29h12zM829 1059l-6 -58q0 -35 25 -43q23 -2 41 -2q158 0 158 205q0 82 -39 109q-18 12 -115 30l-57 -10l-19 -22q-2 -27 -2 -43zM715 1284l45 64h-12l-48 -43zM700 1325l27 16 q-23 -2 -37 -12zM725 1206q-16 66 -32.5 66t-10.5 22q-12 4 -18 4q10 -39 8 -67q10 -4 24 -12l25 -15q2 0 4 2zM688 1190l14 12l-38 17l-5 -29h29zM688 1169l-37 9q16 -18 25 -37q12 12 12 28zM672 1092l37 32l-15 4q-14 -2 -22 -10v-26zM866 895l11 20l-11 5l-10 -21z M872 889q-23 -12 -22 -35q0 6 1 -1t4 -22.5t3 -19.5q10 15 14 78zM1042 645v12h-28v-12h28zM1184 444v29q-23 12 -39 33q-4 -20 -15 -29q19 -10 54 -33zM688 932v14h-22v-14h22z" />
<glyph unicode="&#xb0;" horiz-adv-x="798" d="M80 1591q39 0 39 49q29 51 102.5 83t138.5 32q147 0 233.5 -110.5t86.5 -262.5h-35q25 -6 25 -55q0 -125 -97.5 -211t-226.5 -86t-225 98q-94 100 -94 234.5t53 228.5zM545 1386q0 80 -49 148t-140 68t-142.5 -71t-51.5 -179q0 -49 40 -95.5t91 -66.5q8 -10 31 -27 q53 18 120 47q101 49 101 176zM393 1130.5q0 8.5 -10 18.5h-18l-39 -21l55 -20q12 14 12 22.5z" />
<glyph unicode="&#xb1;" horiz-adv-x="1843" d="M360 1290l117 -4q100 0 324 6l-2 527q0 88 43 88q20 0 80 -33q63 14 75 14q23 0 37 -37l2 -557q176 -4 342.5 -4t184.5 6l-7 2l-6 -110l-71 -25l67 -20l6 -49q0 -25 -47 -47l-481 2l-6 -619q-49 -23 -71 -22.5t-44 18.5l4 51l-63 -49q-55 10 -56 51l17 367q0 16 -4 102 l-4 101l-488 -2q-2 0 -59 18q2 74 39 129l-21 72q0 25 92 24zM674 244l424 16q182 0 278 -2t180 -6l-2 -98l-61 -27l59 -18l4 -52q0 -25 -36 -47l-1246 -10l-22 37q2 61 31 121q-12 76 -13 67q0 35 41 35zM989 1386q11 97 25 101q2 0 2 -2l-15 26l5 125q0 47 -21 56v10 q-4 23 -10 70q-18 -6 -18.5 -24.5t12.5 -78.5l-13 6l-22 35q0 35 -12 49l-11 -67q12 -4 33 -41q-16 -29 -22 -35v-19l-13 -112q0 -48 3 -66t3 -20l21 8l10 -2l-10 -12q-4 -29 -4 -50.5t-23 -134.5l62 127q-12 -129 -13 -137v-14l31 43q20 90 21 121q0 4 -21 38zM1202 1100 l-117 16q-59 0 -59 -10q0 -4 68 -27q20 4 42.5 4t116.5 -4l4 33q-25 -12 -55 -12zM1018 1081q-27 12 -43 25l24 12q-20 12 -26 12t-23 -10l2 2q-12 -18 -22 -18t-12 2q-16 -16 -47 -16t-46 12v-2q-2 -14 19 -31q119 -6 133 -6t41 18zM918 686l-15 -70v-10q10 -6 19.5 -41 t9.5 -59q6 33 26 65q-10 16 -12 27l21 133q0 10 2 10v2q0 63 -19 123q14 10 37 47q-2 2 -13 6.5t-16 8.5q-12 11 -12 49.5t33 64.5l-51 2q-33 -45 -33 -77l6 -64q10 -35 10 -72t-2 -55q-14 -31 -71 -131q12 14 22 19l4 -2q25 35 39 34.5t15 -10.5zM424 1059l72 -4l-33 24 l-39 -8v-12zM1221 39l2 31q-23 -12 -42 -12.5t-56.5 6t-45.5 6.5l8 -39q23 10 134 8zM1024 39l-37 22l21 15h-41q16 14 22 20q-6 2 -21 2t-39 -9t-24 -17l6 -2q16 0 47 -9q-16 -18 -51 -18t-45 10q-4 -16 17 -33l100 -2q18 1 45 21zM811 57q-31 12 -47 21q-18 -10 -39 -8 q23 -16 32 -16.5t29.5 1.5t24.5 2zM692 68q-2 8 -14 20q-16 -10 -23 -25h21q8 1 16 5zM588 57l24 23l-16 -4l-41 12zM590 39v12l-35 2v-14h35zM397 37l62 -2l-29 24l-33 -10v-12z" />
<glyph unicode="&#xb2;" horiz-adv-x="694" d="M313 1765l68 -6l8 -8q74 -6 133.5 -65.5t59.5 -131.5q-1 -10 -11 -20l15 -2q0 -70 -2 -111l-27 -98q-14 -57 -118.5 -204.5t-178.5 -227.5q2 -17 31 -23h166q33 0 45 -16q12 18 42 18t35 -7t5 -71.5t-27 -103.5l-176 6q-16 -6 -33 -6l-12 8l-57 -8h-66l-68 8l-82 -8 q0 29 -8 43q-2 16 -2 30.5t4 24t9.5 13.5t5.5 6q-16 12 -16.5 42t3.5 42l97 137q156 219 221 350q38 91 10 178q-31 31 -49 31t-45 -2q-40 -28 -53 -113q-4 -26 -4 -30h-9q-10 0 -16 -2h-16q-20 4 -20.5 4t-6.5 -2l-49 -8q-4 0 -29 4h-6q-16 0 -16 30q0 299 245 299z M532 1579l7 12l-15 33v-6q0 -16 -12 -27q6 -6 14 -18zM526 1544v25h-8l-2 -25h10zM492 1649q-16 12 -68 39q-27 -18 -39 -27q-2 0 -10 4v-12q18 0 20 -49l13 30l6 -30l10 2l8 -9q6 11 11.5 18t10.5 14t8 9t9 7.5t10.5 4.5t10.5 -1zM455 1567q-4 10 -17 26l-16 -16 q21 -6 33 -10zM354 1659q0 27 -39 39l-67 -25l6 -26l8 14l6 -10l-4 -11l12 7l11 -13l-2 8l4 11l6 -4l-4 -29l2 -4q8 8 61 8v35zM514 1366v16h-8v-16h8zM244 1645h2q-4 6 -21 10l-2 -21l2 6l8 7q7 -2 11 -2zM449 1397l8 6l-4 6l-9 -6zM215 1642v27q-18 -6 -35 -29v-16l25 37z M475 1354l8 16l-8 4l-10 -16zM393 1253h8l-6 19l-10 -4zM410 1169l8 21h-8l-9 -16zM334 1081q24 33 24 47.5t-10 38.5q-4 -20 -24 -49q10 -10 10 -37zM514 831l-59 -6q-4 -12 -15 -18q-18 10 -20 18q-37 0 -62 -6l2 -6l-4 -12l13 -15v-6q0 -14 -13 -22l23 6q29 -23 37 -27 l47 15q0 14 6 28l8 -16l-2 -19q14 -2 34.5 -2t27.5 2q8 23 8 76zM326 745l6 66q-6 -29 -23 -57l-8 16q2 18 12 31l-22 10q2 -8 2 -29t-6 -51l8 10l14 9zM281 791v8h-13v-8h13zM244 768v18q-16 4 -29 43q-10 -14 -14 -61h43zM154 844l8 20h-8l-11 -16zM180 719l2 31h-10 q-2 -12 -2 -16.5t10 -14.5zM117 737l2 11h-19l-2 -11h19zM451 1653l6 -13l-6 -4l-7 13zM410 1645h18l-2 -9h-16v9zM328 1640h18v-8h-18v8z" />
<glyph unicode="&#xb3;" horiz-adv-x="702" d="M496 1206q73 -59 73 -215.5t-53 -214.5q-25 -10 -58 -38q-79 -70 -128 -70q-299 0 -299 313v39l14 20h133q37 0 41 -47l6 -92q12 -49 66 -49q88 0 88 190q0 70 -17 99q-25 35 -94 35q-29 0 -28 28v33q-2 14 -2 39t5 30t21 10q57 19 70 25q10 16 24 27h9l10 6l-12 10 q14 23 14 78q0 133 -76 133q-53 0 -65 -45q-18 -68 -23 -90l-133 -2l-23 25v16q-2 84 50 172t133 88v2q18 6 66.5 6t62.5 -14l22 4q6 -16 23 -16q16 -10 55 -10q8 0 4 -7q88 -70 88 -192.5t-35 -181.5q-20 -39 -67 -61.5t-49 -31.5zM432 1628q0 27 -43 60l2 -5l-12 -4 q-14 6 -19 23l-10 -70l6 -24q18 25 23 49q25 -20 33 -23q-12 -4 -25 -4v-37l37 6q8 25 8 29zM461 1511q-16 16 -45 25l26 -23l-20 -10l6 -16q21 8 33 24zM446 1448l3 31h-13v-31h10zM467 1313l10 16l-26 -6zM145 1565l9 8l-7 8l-10 -10zM156 1495l8 8l-4 8l-10 -12z M373 1237q-53 43 -54 59q-2 -14 -2 -21t2.5 -21.5t2.5 -16.5l14 12l6 -18q15 6 31 6zM455 1143q0 20 -13 61q-16 -4 -28 -2q16 -12 16 -26q0 -20 -39 -35l25 -6q4 10 16 22q7 -6 23 -14zM473 1137l-2 -4l-16 10q-12 -4 -25 -4l6 -15l-8 -22l12 4l-2 -37l17 -43l-2 82h12 q4 9 8 29zM461 840q-6 25 -12 75q-14 -33 -17 -45l10 -20l-8 -21q21 5 27 11zM342 795l8 43q-27 -6 -63 -7v-34q0 -20 26 -47q8 10 29 26q-6 4 -25 23l11 2zM127 958l-16 25l-27 -6q25 -15 43 -19zM160 872v13l-29 6v-10z" />
<glyph unicode="&#xb4;" horiz-adv-x="1056" d="M788 2286q0 -25 -101 -154t-132 -143l-2 -19l-53 -59q-2 -20 -35 -21h-59q-35 0 -44 21q47 66 68 127l57 10l-43 14q18 53 73.5 152t80.5 98.5t43 1.5h41q84 0 98 -18q8 -2 8 -10zM641 2165q23 28 23 64t-43 50q-7 -20 0 -45v-24q0 -25 -11 -39l2 -17zM580 2191 q24 9 24 21t-8 20l-8 54l-37 -82z" />
<glyph unicode="&#xb6;" horiz-adv-x="940" d="M918 1774l116 -15q10 -25 10 -41t-53 -21t-67 -3q-4 -29 -4 -47l4 -91l-6 -180l14 -45q0 -49 -15 -123t-20 -112q8 14 21 14q6 0 6 -13t-5.5 -19.5t-13.5 -4.5v-4q0 -2 8.5 -4t8.5 -10l-11 -17l17 -26v-162l-4 -145l6 -347v-161l-2 -45q4 -72 13 -93.5t9 -27.5 q0 -31 -16 -31l-68 16q-45 -16 -65.5 -16t-20.5 53l8 111q0 463 -6 477q-6 125 -6 354l-10 277l6 82l-6 157l25 80q-14 0 -24.5 12.5t-10.5 24.5t9 40t15 28q2 -2 0 -2q-20 -4 -43 -4l-104 4l-29 4h-8l-2 -486q0 -2 -15.5 -15t-15.5 -29.5t15 -26.5t16 -6l-2 -586l12 -125 l-6 -141v-156l-23 -59q0 -4 13.5 -21.5t13.5 -28.5q0 -29 -100 -28q-51 0 -51 43v383l22 24q-25 2 -24 140l4 378l-121 27q-74 37 -98.5 37t-43.5 14q-25 19 -55 60l-49 45q-18 18 -27 61q-23 86 -22 238q0 92 92 192t182 131q78 23 195 23l297 -19zM332 1075q0 -35 28 -31 l27 -20l6 6q0 14 -37 35q35 -10 50 -4l-3 -6q10 0 39 4l4 18h-22q10 0 -37 6q27 4 55 15l-16 16q0 16 20 31l-28 -19l14 43q-4 0 -51 -20l-29 65q29 23 58 64l-19 6q10 16 10 19.5t-9 9.5t-7 10l27 18l-15 7l19 10l-15 6l21 14q-14 10 -10 23q-18 8 -19 33q0 8 27 8h22 q10 -2 33 -2t39 10l-78 14q-4 -2 -10 -2l-4 -2q-2 0 -20.5 3t-26.5 1l10 29v-2q-2 6 -4 4l-16 6l-13 33q-4 -4 -4 -12l4 -31l-6 -10l14 -6q-6 -27 -14 -52q2 -18 31 -34q-16 -6 -37 -27l33 4l16 -14q-4 -14 -31 -29l9 -6q-4 -29 -60 -57q29 4 49 4q-8 -12 -28 -33h-4l-11 8 l-6 -4v-6q0 -20 7 -54t8 -55q47 6 51 6l16 -2q-57 -37 -57 -49z" />
<glyph unicode="&#xb8;" horiz-adv-x="1105" d="M541 -125l67 2l8 2q121 0 168 -49t47 -167t-74.5 -177t-197.5 -59q-39 0 -59 6l-47 18l-29 -6q-4 0 -82 23l2 143q154 -41 201 -41q117 0 117 90q0 66 -58 84q-2 25 -12 35l-33 -25q-14 2 -37.5 2t-67.5 -5t-55 -5l68 254h100zM774 -279l33 -51q0 63 -19 105z" />
<glyph unicode="&#xb9;" horiz-adv-x="665" d="M197 1491l-68 -4q-35 0 -47 10t-12 51v13l16 16l-12 14l22 23q2 2 17 2q45 0 96 51l78 82q16 12 108 12q31 1 31 -26l-10 -136l8 -45l-10 -79l-4 -740q0 -23 -10.5 -25.5t-25 -9.5t-69.5 -7.5t-98 12.5v8l4 53q0 37 -8 55l18 664q-4 6 -24 6zM272 1647l23 28l-8 2 q-20 -6 -62 -51q10 -18 27 -20l-6 10l6 20q10 -2 31 -2zM250 1579v8h-10v-8h10zM229 1597l-10 5l-14 -17l4 -2q12 6 20 14zM240 1536l6 12q-23 4 -19 29q-12 -23 -30 -29q18 0 43 -12zM236 1509l14 4l-4 7l-8 -4zM145 1556l-10 27q-2 -4 -14 -16q16 -9 24 -11zM100 1540h6 l-10 25l-6 -4zM276 1348v26h-6l-2 -26h8zM287 1309h-17l4 -27q3 11 13 27zM270 1217h27l-18 2l18 24q-23 -6 -27 -8v-18zM276 1174l3 8h-13l-2 -8h12zM319 1116l11 8q-8 2 -21 11q0 -13 10 -19zM352 997v9h-12v-9h12zM319 1104l-16 -8l-14 4q14 8 14 39h-16l-6 -9l-13 5 l-4 -76h4q12 0 19 -2q-12 -6 -19 -13l11 -38q0 -6 -7 -23l2 -6l-4 -8h33l-6 32l-6 5l16 12l2 53l-12 6l6 8l6 -10q2 15 10 29zM367 891l6 12h-4l-9 -10zM313 952v9h-14v-9h14zM356 854v-8h19q-10 14 -10 26q-8 -8 -9 -18zM305 897h23l-17 16zM360 809l13 10l-13 12v-22z M317 852q-10 10 -16 25l-6 -7q0 25 2 25v-6q-6 8 -18 14q8 -8 8 -18v-4l-21 -7q20 -12 25 -16q-10 -6 -10 -14v-6l14 8q12 0 22 6zM301 811l-14 10l4 10l-12 -10q4 -6 22 -10z" />
<glyph unicode="&#xba;" horiz-adv-x="720" d="M633 1440q0 -59 -12 -180l-17 -15l14 -24l-18 -19l16 -10l7 80q-2 -203 -56 -287q-68 -104 -262 -104q-279 0 -278 282q0 33 8 230.5t63 277.5q78 111 291 111q121 0 189 -117q55 -96 55 -225zM541 1563v24l-23 21l-10 -23q2 -2 7 -5t26 -17zM483 1616l11 16l-11 4 l-10 -18zM494 1542l12 2q-25 12 -25 26.5t2 33.5l-6 4l2 -15q-8 -25 -7 -29.5t3 -15.5zM344 1735q-16 -33 -22 -33l16 -60l18 44zM481 1518l8 2l-10 18l-2 -14zM479 1200l4 17v43zM326 1110q77 0 77 222.5t-59 221.5q-82 0 -82 -268q0 -176 64 -176zM129 1520l6 12l-6 4 l-6 -12zM471 1143l2 24l-10 -24h8zM131 1432h4l-4 79q-10 -20 -10 -31t2 -20l-14 -14q-2 -8 4 -11t18 -3zM131 1372l10 6l-18 43l-12 -24l4 -6l-4 -7q6 -18 26 -24zM434 1032l10 43q-2 10 0 31q-35 -35 -34 -57q-1 -17 24 -17zM117 1329l24 4l-18 15l4 -9zM133 1323 q-12 -6 -29 -23l11 -4q10 11 18 27zM418 965l12 32h-10l-12 -28zM127 1264l12 6q-6 8 -6 33h-8l-4 -23l-23 6q4 -12 8 -45h7l6 -6l-4 -8l-19 4l15 -12h8l4 22l-4 4l8 4l-8 4l2 2l-8 11l6 4zM111 1190l8 20h-10l-5 -12zM322 1016h-39l4 -8l-8 -4l-11 12q12 12 13 28 q-20 -4 -25 -8l16 -78q14 16 15 41q4 0 26 -14q1 15 9 31zM111 1051l12 43l-6 -2h-4l6 14l-10 39l-3 -12l-8 -7v-24l2 2l2 -14l-4 -5zM111 1137l-5 -4l-6 -27v-2l6 4q2 12 5 25v4zM109 1096l4 -4l-9 -15l-2 13z" />
<glyph unicode="&#xbb;" horiz-adv-x="1036" d="M623 983l20 -6l2 4l35 2q86 -90 272 -313q0 -4 17.5 -21.5t17.5 -22.5t-18.5 -23.5t-20.5 -27.5l-33 7l-14 -2l12 -21l25 -6q-10 -25 -272 -281q-2 -18 -82.5 -18t-110.5 8q113 127 332 356q-39 59 -160 174.5t-160 186.5h25q68 0 88 -12l-12 10l32 2q-4 4 5 4zM213 983 l20 -6l3 4l34 2q86 -90 273 -313q0 -4 17.5 -21.5t17.5 -22.5t-18.5 -23.5t-20.5 -27.5l-33 7l-14 -2l12 -21l24 -6q-10 -25 -272 -281q-2 -18 -82 -18t-111 8q113 127 332 356q-39 59 -160 174.5t-159 186.5h24q68 0 88 -12l-12 10l33 2q-4 4 4 4zM745 846l3 20l-27 29 l-4 -14h4q4 0 24 -35zM846 727l2 8l-6 8l-2 -6zM805 766l6 -6q0 10 -14 26l6 -20h2zM877 690v8l-11 15l2 -19zM819 739l6 6l-6 9l-2 -2zM836 725l6 -16l-2 24l-9 -6zM893 580l2 4l-8 22q-2 -6 -2 -15t8 -11zM858 526q-10 20 -10 22q0 11 14 13l2 10l-6 11q-33 -20 -43 -45 l-10 10v-6q0 -20 -14 -29l-9 6q-4 -12 -24 -43l-10 8v-24q-2 0 -5.5 -1t-11.5 1l12 16l-2 2q-4 -4 -53 -41l-4 -12q-16 -12 -31 -43l-8 -10l4 -6l10 12v-15l-8 -14v-2l13 8v15l8 -7l37 39q-2 4 -2 13l2 -2q20 8 44.5 34.5t30.5 45.5l11 -5q25 31 39 45zM336 846l2 20l-27 29 l-4 -14h4q5 0 25 -35zM436 727l2 8l-6 8l-2 -6zM395 766l6 -6q0 10 -14 26l6 -20h2zM467 690v8l-10 15l2 -19zM410 739l6 6l-6 9l-2 -2zM426 725l6 -16l-2 24l-8 -6zM483 580l2 4l-8 22q-2 -6 -2 -15t8 -11zM449 526q-23 31 4 35l2 10l-6 11q-33 -20 -43 -45l-11 10v-6 q0 -20 -14 -29l-8 6q-4 -12 -25 -43l-10 8v-24q-2 0 -5 -1t-11 1l12 16l-2 2q-4 -4 -53 -41l-5 -12q-16 -12 -30 -43l-8 -10l4 -6l10 12v-15l-8 -14v-2l12 8v15l8 -7l37 39q-2 4 -2 13l2 -2q20 8 45 34.5t31 45.5l10 -5q25 31 39 45z" />
<glyph unicode="&#xbc;" horiz-adv-x="1609" d="M1438 872l-13 -434q0 -25 7 -39h69q6 0 10.5 -14t6.5 -16q-2 -6 -2 -66.5t-23 -71.5q-12 -6 -40.5 -6t-29.5 -8l-10 -217l-12 -6q-16 6 -37 6l-80 -6q-12 0 -22.5 8t-14.5 8v23l6 192l-192 -6q-18 12 -39 12l-102 -10q-11 77 2 182q4 27 99 246.5t130 284.5q31 20 31 27 q-4 0 -8 -3l-5 5q0 106 111 106q72 0 125 -4q33 -2 33 -193zM1264 1800l53 -20q16 0 35.5 6t21.5 6q-229 -469 -465 -897l-90 -154q-66 -115 -65 -149q-35 -59 -96.5 -172t-79.5 -146q-125 -233 -127 -313l-68 21l-37 -17h-37q-45 0 -45 29q0 12 250 495q279 530 297 570 l2 31q25 33 55 49l4 41l84 161l45 5l-20 40l209 406q33 8 74 8zM209 1491l-68 -4q-35 0 -47 10t-12 51v13l14 16l-10 14l23 23q2 2 16 2q43 0 94 51l80 82q16 12 109 12q30 1 30 -26l-10 -136l8 -45l-10 -79l-4 -740q0 -24 -16 -27q-7 -1 -20.5 -8t-68.5 -7.5t-98 12.5 q-2 2 -2 8l6 53q0 37 -8 55q2 221 18 664q-4 6 -24 6zM1343 1769l-20 -12l-16 -2l-13 8l-28 -59q6 8 37 37l4 -8q-2 -10 -21 -25l19 -16q1 9 38 77zM1397 932v16l-11 29v-45h11zM1376 934l4 59l-14 -22l-2 -51zM1374 834l8 63l-6 18l-12 -49zM905 1153l8 21h-8l-8 -17z M1372 653l-18 -6v-29q0 -6 14 -77q-2 4 -2 36.5t6 75.5zM848 1061h10l-8 20l-8 -4zM285 1647l22 28l-8 2q-20 -6 -61 -51q10 -18 26 -20l-6 10l6 20q8 -2 31 -2zM262 1579v8h-10v-8h10zM242 1597l-11 5l-14 -17l4 -2q19 12 21 14zM252 1536l6 12q-25 4 -20 29 q-10 -23 -29 -29q18 0 43 -12zM1106 406l53 -9q89 1 101 15l10 422q-18 -29 -102.5 -212t-94.5 -219zM1448 311l2 47q-4 2 -11 7.5t-12 7.5l-10 -62h31zM248 1509l12 4l-2 7l-10 -4v-7zM1372 375l6 35h-10l-8 -35h12zM158 1556l-11 27q-2 -4 -14 -16q17 -9 25 -11zM1337 360 l9 25h-11l-8 -23zM1374 336v16l-8 8l-49 -20v-31q39 17 57 27zM113 1540h6l-10 25l-7 -4zM289 1348v26h-6l-2 -26h8zM1372 295l-24 -12q0 -14 16 -31q0 29 8 43zM299 1309h-16l4 -27q2 11 12 27zM1356 207l10 16l-10 4l-8 -18zM1323 213l-4 31q-12 -10 -12 -23q12 -4 16 -8z M283 1217h26l-18 2l18 24q-23 -6 -26 -8v-18zM1186 299l2 57q4 10 -12 23q0 -10 -3.5 -23.5t-6.5 -35t-5 -35.5q13 2 25 14zM1151 324l2 22h-12v-22h10zM289 1174l2 8h-12l-3 -8h13zM332 1116l10 8q-12 2 -20 11q0 -13 10 -19zM1331 80l8 76q-10 -10 -26 -17l-19 -57l9 -29 q8 17 28 27zM365 997v9h-13v-9h13zM332 1104l-17 -8l-14 4q14 8 14 39h-16l-6 -9l-12 5l-5 -76h5q12 0 18 -2q-12 -6 -18 -13l10 -38q0 -6 -6 -23l2 -6l-4 -8h32l-8 32l-4 5l16 12l3 53l-13 6l6 8l7 -10q2 15 10 29zM379 891l6 12h-6l-6 -10zM326 952v9h-15l-2 -9h17z M369 854v-8h18q-10 14 -10 26q-8 -8 -8 -18zM317 897h21l-14 16zM373 809l12 10l-12 12v-22zM330 852q-10 10 -17 25l-8 -7l2 25q2 -2 2 -6q-6 8 -18 14q8 -8 8 -18l-2 -4l-18 -7q16 -10 22 -16q-10 -6 -8 -14v-6l14 8q13 0 23 6zM313 811l-14 10l4 10l-12 -10q4 -6 22 -10z M438 66q0 27 -41 38l-65 -24l4 -27l10 15l4 -11l-4 -10l12 6l11 -12l-2 8l6 10l4 -4l-4 -28l2 -4q14 10 19 10t42 -17zM1313 129h12l-2 -18h-10v18z" />
<glyph unicode="&#xbd;" horiz-adv-x="1658" d="M1307 1075l65 -6l8 -6q74 -6 133.5 -65.5t59.5 -131.5q0 -12 -8 -20l12 -4q0 -70 -2 -109l-27 -98q-14 -59 -123.5 -211.5t-173.5 -222.5q2 -18 39 -23q-16 2 -3 2h161q35 0 45 -16q12 18 42 18t35 -7t5 -71.5t-27 -103.5l-176 6q-12 -6 -33 -6l-10 8l-57 -8h-68l-67 6 q-23 0 -39 -2l-41 -4q0 25 -10 41q-2 16 -2.5 32.5t18.5 41.5q-16 16 -16 47t6 39l96 137q150 209 219 350q25 49 25 129q0 16 -15 47q-31 31 -55 31h-37q-32 -27 -39.5 -51.5t-9.5 -31.5q-10 -35 -10 -62q-2 2 -8 2l-33 -4q-14 6 -25 6q-33 -11 -45 -11t-33 5q-2 -2 -8 -3 q-14 0 -14 33q0 297 246 297zM1264 1800l53 -20q16 0 35.5 6t21.5 6q-229 -469 -465 -897l-90 -154q-66 -115 -65 -149q-35 -59 -96.5 -172t-79.5 -146q-125 -233 -127 -313l-68 21l-37 -17h-37q-45 0 -45 29q0 12 250 495q279 530 297 570l2 31q25 33 55 49l4 41l84 161 l45 5l-20 40l209 406q33 8 74 8zM209 1491l-68 -4q-35 0 -47 10t-12 51v13l14 16l-10 14l23 23q2 2 16 2q43 0 94 51l80 82q16 12 109 12q30 1 30 -26l-10 -136l8 -45l-10 -79l-4 -740q0 -24 -16 -27q-7 -1 -20.5 -8t-68.5 -7.5t-98 12.5q-2 2 -2 8l6 53q0 37 -8 55 q2 221 18 664q-4 6 -24 6zM1343 1769l-20 -12l-16 -2l-13 8l-28 -59q6 8 37 37l4 -8q-2 -10 -21 -25l19 -16q1 9 38 77zM1526 889l4 12l-14 35v-8q0 -18 -13 -27q12 -12 15 -18zM1518 854v27h-9v-27h9zM1483 958q-33 25 -66 41l-41 -28l-10 4l2 -10q18 -4 21 -50l12 29 l4 -31l10 5l10 -9q35 55 58 49zM1448 877l-18 26l-17 -14q12 -2 35 -12zM1348 969q0 29 -41 39l-66 -25l4 -25l10 13l7 -8l-5 -13l11 8l10 -12l-2 8l6 9l4 -5l-4 -26l4 -6q10 10 60 10zM1505 676v18h-6l-2 -18h8zM1235 956h4q-6 6 -22 11v-15l8 6zM1442 709l6 6l-4 4l-8 -6z M1206 954v27q-18 -6 -35 -29v-16q18 23 27 35zM1466 664l11 18l-11 4l-10 -18zM905 1153l8 21h-8l-8 -17zM1384 563h11l-9 21l-8 -4zM848 1061h10l-8 20l-8 -4zM285 1647l22 28l-8 2q-20 -6 -61 -51q10 -18 26 -20l-6 10l6 20q8 -2 31 -2zM1403 481l8 21h-10l-8 -17z M262 1579v8h-10v-8h10zM242 1597l-11 5l-14 -17l4 -2q19 12 21 14zM252 1536l6 12q-25 4 -20 29q-10 -23 -29 -29q18 0 43 -12zM248 1509l12 4l-2 7l-10 -4v-7zM1325 393q25 33 25 46t-11 38q-4 -23 -24 -49q14 -10 10 -35zM158 1556l-11 27q-2 -4 -14 -16q17 -9 25 -11z M113 1540h6l-10 25l-7 -4zM289 1348v26h-6l-2 -26h8zM299 1309h-16l4 -27q2 11 12 27zM1348 111l14 -21q0 -14 -14 -22l22 8q33 -25 39 -29l47 14q-2 12 4 29q4 -4 8 -16l-2 -17q29 -4 43 -4t21 2q4 23 8 78q-25 8 -43.5 8t-48.5 -6q0 -12 -14 -18q-14 8 -21 20 q-35 0 -61 -6l2 -6zM283 1217h26l-18 2l18 24q-23 -6 -26 -8v-18zM289 1174l2 8h-12l-3 -8h13zM332 1116l10 8q-12 2 -20 11q0 -13 10 -19zM1317 55l6 66q-6 -31 -20 -55l-9 14q4 18 13 31l-25 10q2 -6 2 -27t-6 -53l10 12l15 6zM1272 102v7h-12v-7h12zM365 997v9h-13v-9h13 zM332 1104l-17 -8l-14 4q14 8 14 39h-16l-6 -9l-12 5l-5 -76h5q12 0 18 -2q-12 -6 -18 -13l10 -38q0 -6 -6 -23l2 -6l-4 -8h32l-8 32l-4 5l16 12l3 53l-13 6l6 8l7 -10q2 15 10 29zM1235 80v16q-16 6 -29 45q-12 -14 -12 -61h41zM1145 156l10 20h-10l-10 -16zM379 891l6 12 h-6l-6 -10zM326 952v9h-15l-2 -9h17zM369 854v-8h18q-10 14 -10 26q-8 -8 -8 -18zM317 897h21l-14 16zM1174 31v30h-11v-12q1 -8 11 -18zM373 809l12 10l-12 12v-22zM330 852q-10 10 -17 25l-8 -7l2 25q2 -2 2 -6q-6 8 -18 14q8 -8 8 -18l-2 -4l-18 -7q16 -10 22 -16 q-10 -6 -8 -14v-6l14 8q13 0 23 6zM1110 47v12h-18v-12h18zM313 811l-14 10l4 10l-12 -10q4 -6 22 -10zM438 66q0 27 -41 38l-65 -24l4 -27l10 15l4 -11l-4 -10l12 6l11 -12l-2 8l6 10l4 -4l-4 -28l2 -4q14 10 19 10t42 -17zM1442 963l6 -11l-6 -4l-6 13zM1401 956h18v-10 h-18v10zM1321 950h16v-6h-16v6z" />
<glyph unicode="&#xbe;" horiz-adv-x="1669" d="M1499 881l-14 -422q0 -43 8 -60h51q20 0 25 -6q6 -20 10 -24v-52q2 -14 2 -30q0 -66 -84 -62q-20 -23 -22 -225l-13 -6q-16 6 -37 6l-73 -6q-10 0 -25.5 8t-17.5 8v21l6 194l-193 -6q-18 12 -39 12l-102 -10q-4 33 -4 88t9 103t95 244t131 278q16 6 31 27l-8 4l-2 10 q2 94 108 94h68q37 0 57 -4q33 -8 33 -184zM1325 1800l53 -20q15 0 58 12q-299 -606 -465 -897l-90 -150q-59 -111 -66 -153l-176 -316q-121 -227 -127 -315l-68 21l-36 -17h-37q-45 0 -45 31q0 10 415 819l97 189q6 16 41 79q20 33 55 52l-8 24l92 182l45 5l-21 40l209 406 q33 8 74 8zM563 1233q68 -56 68 -215.5t-53 -212.5q-31 -20 -72 -49q-59 -59 -115 -60q-170 0 -234 88.5t-65 262.5q0 18 14 26l130 2q39 0 40 -49l9 -96q14 -49 67 -49q88 0 88 198q0 88 -37 109l-69 16q-35 10 -35 73t18 73l78 18l19 27l78 4l-37 18l-29 -4q14 20 14 76 q0 135 -75 135q-53 0 -66 -47q-18 -70 -23 -88l-133 -4q-12 0 -22 16v27q0 90 50 175t132 85q16 8 64 8t63 -14l25 2q3 -14 15.5 -17.5t31 -6.5t35.5 -7q88 -74 88 -200t-31 -181q-16 -29 -63.5 -55.5t-49.5 -32.5q10 -6 82 -51zM1405 1765q-20 -10 -33 -10h-4l-12 8 l-37 -59q4 8 43 43l12 -10q-8 -14 -26 -29q2 -6 18 -16q4 14 39 73zM1458 932v16l-10 29v-45h10zM1438 934l4 59l-15 -22l-2 -51zM1436 834l8 63l-6 18l-13 -49zM485 1628l21 19q4 41 -53 65l-11 14l-16 -2l-6 5q-4 -45 -10 -68l8 -25q20 29 22 50q18 -18 33 -25l-24 -4 l-3 -35zM956 1165l19 -22v39h-10zM532 1550q-10 12 -55 13l25 -23l-21 -8l8 -19q27 14 43 37zM1434 653l-19 -6v-29q0 -4 12 -69v24q1 4 7 80zM920 1061l14 45l-31 -29l6 -16h11zM530 1434l27 24l-16 -2l-11 8v-30zM526 1341l13 15l-27 -6zM1167 406l54 -9h26q54 1 74 15 l10 422q-59 -88 -108 -211l-88 -220zM1509 311l2 47q-4 2 -11 7.5t-11 7.5l-10 -62h30zM1434 375l6 35h-10l-9 -35h13zM209 1569v39l-10 -9v-16zM1399 360l8 25h-10l-8 -23zM215 1522l10 10l-6 6l-10 -10zM1436 336v16l-9 8l-49 -20v-31q40 17 58 27zM432 1266 q-53 39 -51 59q-2 -16 -2 -30.5t4 -30.5l14 12l6 -19q15 9 29 9zM1434 295l-25 -12q0 -14 16 -31q1 29 9 43zM526 1137l11 12l-15 33q0 25 -20 51q-16 -4 -29 -2q18 -14 19 -29q0 -18 -39 -33l24 -6q2 14 17 21l22 -15q-8 -4 -27 -4l9 -12l-9 -23l11 3v-37l14 -43l-2 82z M1417 207l10 16l-10 4l-8 -18zM1368 221l16 -8l-4 31zM1247 299l2 57q4 10 -12 23q0 -10 -3 -23.5t-6 -35t-5 -35.5q12 2 24 14zM1212 324l2 22h-12v-22h10zM1393 80l8 76q-10 -10 -27 -17l-18 -57l8 -29q9 17 29 27zM520 868l-12 76q-14 -31 -16 -45l10 -22l-6 -21 q18 4 24 12zM401 821l11 45q-27 -6 -64 -6l-2 -35q0 -20 27 -47q10 12 30 27q-6 2 -24 20l8 4zM186 987l-16 25l-25 -6q25 -15 41 -19zM221 901v10l-28 9l-3 -13zM500 43q0 49 -41 61l-66 -24l4 -27l11 15l4 -11l-4 -10l12 6l10 -12l-2 8l6 10l4 -4l-4 -28l2 -4l23 10 l39 -17zM1374 129h12l-2 -18h-10v18z" />
<glyph unicode="&#xbf;" horiz-adv-x="1089" d="M610 1737l140 12q49 0 59 -53v-92q0 -104 -12 -199q-49 -6 -123 -6l-164 2q-33 25 -33 112q0 20 2 35v37l-14 111q0 25 36 41t68 16zM815 578l111 12q55 0 67 -4q25 -8 25 -51q0 -168 -64 -293q-70 -143 -209 -203q-29 -12 -75 -8q-12 -14 -23 -39q-74 -25 -149 -25 q-150 0 -267 93t-149 237q-12 63 -12 80v26q14 4 22 17q0 2 -7 5q-19 8 -19 52l-3 8l-2 43q0 4 11.5 12.5t11.5 16.5t-2 14v19q0 41 70 151.5t102 110.5h2l-6 -23v-2h4l20 54q113 92 163 165.5t55 204.5l110 2l57 2h7q30 7 43.5 -11.5t17.5 -20.5q12 0 35 34q8 0 16 1.5 t25 -15.5l4 -69q0 -233 -262 -441l-68 -4v-2q0 -2 19 -8l20 -6q0 6 -20 -18.5t-47 -59.5q-63 -82 -68 -160q-2 -14 -12 -14q-16 0 -16.5 -21.5t5.5 -23.5l15 8q6 -2 6 -51.5t31 -67.5t92 -18h41q176 6 176 219v24q-2 10 -2 32t22 22zM657 1583l2 19q0 59 -8 77 q-29 -6 -39 -8l31 -35q-4 -4 -22 -28q22 -11 36 -25zM594 1610q-12 20 -12 28t4 25q-23 -16 -25 -41l4 23l-2 -56q11 11 31 21zM641 1491v10l-25 -10l5 -12zM578 1505l10 6l-21 21l-8 -6zM580 1466v31l-15 -2l-2 -29h17zM715 1163l-31 -71q-20 -45 -47 -62 q-18 -31 -18.5 -39t14.5 -20q84 110 82 192zM948 463l-35 -51l11 -54q22 39 24 105zM696 219l17 105q-39 -4 -78 -119q2 -8 16 -19q14 6 45 33zM688 168q-16 -23 -29 -23t-34 33l-21 -55l60 -8q20 20 24 53zM270 276q0 11 -4 15v4q0 14 15 41l-9 2q19 39 19 182.5t-17 163.5 v-43q2 -20 2 -45t-4 -57h-2q-8 -2 -12 5q-12 22 -8 58q-12 -4 -21 -8l-2 -35l13 -4l-4 -4l-19 -2l-12 -49l16 8v-4q0 -8 -6 -25q6 -16 6 -34.5t-12 -79.5l14 -19l6 -2q-16 -8 -12 -25q-4 -6 -8 -24q8 -31 29 -31q12 0 32 12zM190 512l9 8l-11 10l-8 -6zM463 203 q2 -23 20 -41l-10 -4q-16 6 -27.5 37.5t-11.5 54.5v4q2 -2 2 -4l-16 8q7 -77 41 -118q8 -9 8 -5q0 -2 -4 -14q25 -6 29 -15q10 8 55 35q16 0 26 -10q5 31 25 76q-23 -10 -57 -33q-14 25 -11 55q-16 -16 -16 -45q-10 12 -37 11l8 -11l-6 -4q-6 4 -8 15zM168 459l-18 -6v-4 q0 -23 12 -25q0 17 6 35zM186 309v27h-12v-27h12zM246 520l14 2v-20l-14 -2v20zM260 467l8 -2l-8 -25l-12 -2zM246 422l22 -8l-10 -15q-8 13 -12 23zM248 369l20 -7l-12 -22q-8 8 -8 25v4z" />
<glyph unicode="&#xc0;" horiz-adv-x="1138" d="M397 2294l92 -4q38 0 140 -250l-47 -15l57 -10q16 -57 59 -127q-8 -20 -45 -20h-59q-31 0 -33 20l-49 60l-2 18q-25 10 -119 139q-92 129 -94 156q20 33 100 33zM487 1683l125 15q80 0 127 -12l29 -64q18 -51 35 -160l22 -164q23 -113 94.5 -586.5t139.5 -731.5 q-39 -29 -160 -29l-137 4q-27 27 -37 163t-16 199q-14 14 -50 15l-63 -13q-6 0 -6 9q0 2 -6 2t-9.5 -5.5t-5.5 -5.5l-32 13l-144 14q-4 0 -16 -5t-45 -175t-33 -209l-246 -6q-27 0 -40 26.5t-9 59.5q-2 2 -2 12t21 25l53 362q31 193 82 359q0 14 18 50t23 54 q-18 37 -18.5 52t30.5 146.5t63 295.5l19 133q12 74 35 127q16 37 78 37zM500 2169l30 12l-30 82l-13 -53q-10 -10 -10 -20.5t23 -20.5zM459 2179l8 64v14q-49 -16 -49 -55.5t18 -59.5l29 -10l4 16q-10 10 -10 31zM575 1243l11 -57l39 -23q-8 0 -15 29l-6 37q4 31 17 57 l-25 100q-43 -68 -43 -110q0 -8 25 -27q0 -4 -3 -6zM633 588q2 43 2 112.5t-35 237.5l-61 272l-68 -270q-33 -152 -33 -236.5t8 -103.5h58q74 0 129 -12zM651 442l17 43h-17l-14 -36zM238 713l43 10l-27 53q-4 -32 -16 -63zM524 489l8 33q0 16 -8 25q-4 -29 -28 -111l-4 10 l-11 11v26l4 6l-32 19q18 18 30 39q-23 0 -34 12q-31 0 -31 -45q0 -10 43 -39l-17 -2l-26 6l-51 -104q14 4 108 16q70 9 74 66q-25 12 -25 32z" />
<glyph unicode="&#xc1;" horiz-adv-x="1138" d="M801 2249q0 8 -8 10q-14 18 -99 18h-41q-18 -2 -43 -2t-80 -98t-73 -152l43 -14l-58 -10q-20 -61 -67 -127q8 -20 43 -21h59q33 0 35 21l53 59l2 19q31 14 132.5 143t101.5 154zM762 -45l137 -4q121 0 160 29q-68 258 -139.5 732t-94.5 586l-22 164q-16 109 -35 160 l-29 64q-47 12 -127 12l-125 -15l-81 7q-61 0 -78 -37q-23 -53 -35 -127l-19 -133q-33 -164 -63.5 -295t-30.5 -146.5t19 -52.5q-4 -18 -22.5 -54t-18.5 -50q-51 -166 -82 -359l-53 -362q-20 -14 -20.5 -24.5t1.5 -12.5q-4 -33 9.5 -59.5t39.5 -26.5l246 6q0 39 31 209 q35 170 47 175t16 5l144 -14l32 -13q2 0 5.5 5.5t9.5 5.5t6 -2q0 -8 6 -9l63 13q35 0 50 -15q6 -63 16 -199t37 -163zM653 2279q45 -14 45 -50t-22 -64l-29 -11l-4 17q12 12 12 32.5t-2 30.5v45zM631 2232q8 -8 8 -20t-25 -21l-28 13l37 82zM586 1186l-11 57q2 2 3 6 q-25 18 -25 27q0 43 43 110l25 -100q-12 -27 -17 -57l6 -37q7 -29 15 -29zM600 938q35 -168 35 -237.5t-2 -112.5q-55 12 -129 12h-58q-8 18 -8 103.5t33 236.5l68 270zM668 485l-17 -43l-14 7l14 36h17zM281 723l-43 -10q12 31 16 63zM532 522l-8 -33q0 -20 25 -32 q-4 -57 -74 -66q-94 -12 -108 -16l51 104l26 -6l17 2q-43 29 -43 39q0 45 31 45q12 -12 34 -12q-12 -20 -30 -39l32 -19l-4 -6v-26l11 -11l4 -10q25 82 28 111q8 -8 8 -25z" />
</font>
</defs>
</svg>
